<?xml version="1.0" standalone="no"?>
<!DOCTYPE svg PUBLIC "-//W3C//DTD SVG 1.1//EN" "http://www.w3.org/Graphics/SVG/1.1/DTD/svg11.dtd" >
<svg xmlns="http://www.w3.org/2000/svg" xmlns:xlink="http://www.w3.org/1999/xlink" version="1.1">
<metadata>
Created by FontForge 20161003 at Fri Feb 22 15:27:44 2019
 By www-data
Copyright (c) by David Bergsland, NuevoDeco Typography, 2007. All rights reserved.
</metadata>
<defs>
<font id="HackberryArinar" horiz-adv-x="468" >
  <font-face 
    font-family="HackberryArinar"
    font-weight="400"
    font-stretch="normal"
    units-per-em="1000"
    panose-1="2 15 6 2 6 3 2 6 0 3"
    ascent="800"
    descent="-200"
    x-height="447"
    cap-height="678"
    bbox="-80 -315.174 1161.47 877"
    underline-thickness="34"
    underline-position="-138"
    unicode-range="U+000D-FB04"
  />
<missing-glyph horiz-adv-x="251" 
 />
    <glyph glyph-name="ff" unicode="ff" horiz-adv-x="544" 
d="M167 372v-22q0 -4 -0.5 -50.5t-0.5 -80.5q0 -208 10 -218q-11 1 -32 1q-8 0 -24 -0.5t-23 -0.5q6 20 6 44q0 157 0.5 225.5t0.5 104.5q-39 -3 -59 -6q-12 0 -12 26q0 10 34.5 14t34.5 16q3 49 6 83.5t11 81t20 75t33.5 49.5t49.5 21q19 0 40 -11.5t21 -27.5
q0 -12 -11.5 -22t-23.5 -10q-13 0 -23.5 12.5t-15.5 12.5q-42 0 -42 -199q0 -7 -1 -20.5t-0.5 -19.5t2.5 -14t8 -11t17 -3q22 0 79.5 9t57.5 16q14 288 120 288q19 0 40 -11.5t21 -27.5q0 -12 -11.5 -22t-23.5 -10q-14 0 -24 12.5t-15 12.5q-42 0 -42 -179v-14.5t-0.5 -14
t0 -12.5t1.5 -11t2.5 -8t4.5 -6t7 -2q6 0 22.5 4t24.5 4q19 0 19 -29q0 -11 -8 -12l-67 -7q-6 0 -6 -8v-22q0 -4 -0.5 -53t-0.5 -86q0 -221 10 -232q-11 1 -32 1q-8 0 -24 -0.5t-23 -0.5q6 20 6 44q0 157 0.5 236.5t0.5 115.5q-10 -1 -159 -17q-6 0 -6 -8z" />
    <glyph glyph-name="fi" unicode="fi" horiz-adv-x="419" 
d="M329 1q3 14 3 392q0 10 -1 14l-158 -5q-6 0 -6 -8q0 -11 -0.5 -63.5t-0.5 -97t0.5 -97t3 -88.5t6.5 -47q1 -3 0 -5t-3.5 -3l-5 -2t-7 -1h-7h-7h-5.5h-14.5t-14 1t-12.5 3.5t-3 6.5q6 30 6 44q0 157 0.5 236.5t0.5 115.5q-39 -3 -59 -6q-3 0 -5 1t-3 3.5l-2 5t-1 5.5
q-3 21 7 22q61 5 61 19q7 144 36 213q12 31 34 53t50 22q19 0 40 -11.5t21 -27.5q0 -12 -11.5 -22t-23.5 -10q-13 0 -23.5 12.5t-15.5 12.5q-48 0 -41 -234q0 -12 23 -13.5t70 3t64 4.5q11 4 27 4h8.5h9h8t7.5 -1t5.5 -2.5t4 -4t1.5 -5.5q0 -10 -1 -84t-1.5 -140t1 -132
t5.5 -84q1 -7 -7.5 -9t-24.5 -2q-8 0 -14 0.5t-12.5 1.5t-10 3.5t-2.5 6.5zM365 624q14 4 25 -6t13 -26q3 -18 -16 -30.5t-36 -14.5q-6 -1 -9.5 0.5t-5 3.5t-3.5 6l-3 6q-2 3 -7 4t-11 0.5t-7 -0.5q-9 4 -1 16q4 6 24.5 21t36.5 20z" />
    <glyph glyph-name="fl" unicode="fl" horiz-adv-x="426" 
d="M406 80l5 -82v-1q0 -7 -37 -7q-35 0 -35 7q3 25 3 49v609q-10 37 -107 34q-28 -1 -44.5 -29t-19.5 -65.5t-4.5 -76.5t1.5 -63q0 -9 6 -12t14.5 -1t18.5 4t18.5 3.5t14.5 -2.5t7 -15q3 -21 -7 -23l-67 -7q-6 0 -6 -8v-22q0 -5 -0.5 -52.5t-0.5 -90.5t0.5 -94t3 -87
t6.5 -47q1 -3 0 -5t-3.5 -3l-5 -2t-7 -1h-7h-7h-5.5h-14.5t-14 1t-12.5 3.5t-3 6.5q6 30 6 44q0 157 0.5 236.5t0.5 115.5q-39 -3 -59 -6q-3 0 -5 1t-3 3.5l-2 5t-1 5.5q-3 21 7 22q61 5 61 19q7 144 36 213q12 30 34 52t50 23q63 2 117 -12q-1 2 -2 6.5t-2 6.5q-2 2 -2 6
q0 12 31 12q43 0 43 -17q0 -106 -0.5 -339.5t-0.5 -317.5z" />
    <glyph glyph-name="ffi" unicode="ffi" horiz-adv-x="657" 
d="M544 -3q5 15 5 39v364l-153 1q-2 -1 -2 -29q0 -4 -0.5 -53t-0.5 -86q0 -221 10 -232q-11 1 -32 1q-8 0 -24 -0.5t-23 -0.5q6 20 6 44q0 156 0.5 236t0.5 114l-154 -13q-6 0 -6 -8v-22q0 -323 8 -348q0 -2 1 -3q-11 1 -32 1q-8 0 -24 -0.5t-23 -0.5q6 20 6 44
q0 157 0.5 226.5t0.5 105.5q-39 -3 -59 -6q-3 0 -5 1t-3 3.5l-2 5t-1 5.5q-3 21 7 22q61 5 61 19q8 167 36 233q12 31 34 53t50 22q19 0 40 -11.5t21 -27.5q0 -12 -11.5 -22t-23.5 -10q-13 0 -23.5 12.5t-15.5 12.5q-49 0 -41 -254q0 -19 122 -2q17 2 25 3q10 3 10 11
q14 288 120 288q22 0 44 -2t53.5 -7.5t51.5 -20t22 -36.5v-1v-2l1 -2q0 -19 -23 -30t-35 -11q-8 0 -13 10t-15 10h-11q-6 0 -6 7q0 11 15 21q-3 3 -3 6q0 1 0.5 3t0.5 4q0 4 -3.5 8.5t-15.5 8.5t-30 4q-30 0 -48 -12.5t-26.5 -41t-11 -59t-2.5 -82.5q0 -11 0.5 -30t0.5 -25
q1 -15 52 -15q15 0 48 1.5t49 1.5q13 0 31 -2q15 1 39 7q-3 -74 -3 -269q0 -151 6 -179h-22q-27 0 -51 -3z" />
    <glyph glyph-name="ffl" unicode="ffl" horiz-adv-x="670" 
d="M630 80l5 -82v-1q0 -7 -37 -7q-35 0 -35 7q3 25 3 49v602q-12 34 -49.5 44.5t-79.5 -3.5q-42 -13 -42 -179v-14.5t-0.5 -14t0 -12.5t1.5 -11t2.5 -8t4.5 -6t7 -2q6 0 22.5 4t24.5 4q19 0 19 -29q0 -11 -8 -12l-67 -7q-6 0 -6 -8v-22q0 -4 -0.5 -53t-0.5 -86
q0 -221 10 -232q-11 1 -32 1q-8 0 -24 -0.5t-23 -0.5q6 20 6 44q0 157 0.5 236.5t0.5 115.5q-10 -1 -159 -17q-6 0 -6 -8v-22q0 -4 -0.5 -50.5t-0.5 -80.5q0 -208 10 -218q-11 1 -32 1q-8 0 -24 -0.5t-23 -0.5q6 20 6 44q0 157 0.5 225.5t0.5 104.5q-39 -3 -59 -6
q-12 0 -12 26q0 10 34.5 14t34.5 16q3 49 6 83.5t11 81t20 75t33.5 49.5t49.5 21q19 0 40 -11.5t21 -27.5q0 -12 -11.5 -22t-23.5 -10q-13 0 -23.5 12.5t-15.5 12.5q-42 0 -42 -199q0 -7 -1 -20.5t-0.5 -19.5t2.5 -14t8 -11t17 -3q22 0 79.5 9t57.5 16q14 275 120 288
q46 6 113 -15q-2 10 -4 16q-2 2 -2 6q0 12 31 12q43 0 43 -17q0 -106 -0.5 -339.5t-0.5 -317.5z" />
    <glyph glyph-name="f_j" unicode="fj" horiz-adv-x="443" 
d="M239 -217q-17 0 -31 7t-14 23q0 12 9.5 22.5t20.5 10.5q6 0 20 -6.5t20 -6.5q19 0 32.5 12.5t20 28t10 42t4 40.5t0.5 37v6v408l-158 -5q-6 0 -6 -8v-22q0 -4 -0.5 -61.5t-0.5 -99.5q0 -179 10 -207v-1q0 -5 -13.5 -9t-29.5 -4q-32 0 -36 14q6 20 6 61q0 157 0.5 226.5
t0.5 105.5q-39 -3 -59 -6q-12 0 -12 26q0 10 34.5 14t34.5 16q14 288 120 288q51 0 90 -18t57 -44t26.5 -46.5t8.5 -32.5v-1q-1 -1 -1 -2v-4q0 -19 -22.5 -29.5t-35.5 -10.5q-8 0 -12.5 10t-14.5 10h-11q-6 0 -6 7q0 6 11 15.5t11 28.5q0 29 -25 50t-89 21q-42 0 -42 -179
v-14.5t-0.5 -14t0 -12.5t1.5 -11t2.5 -8t4.5 -6t7 -2q6 0 95.5 3.5t97.5 3.5q5 0 8.5 -1t5 -3.5t2 -6t0 -9.5t-1 -14t-0.5 -18.5v-23.5q7 -191 7 -279v-38v-34t-0.5 -24.5t-2.5 -27t-5 -22.5t-7 -30q-16 -58 -60 -96.5t-82 -38.5z" />
    <glyph glyph-name="f_f_j" unicode="ffj" horiz-adv-x="676" 
d="M469 -217q-17 0 -31 7t-14 23q0 12 9.5 22.5t20.5 10.5q6 0 20 -6.5t20 -6.5q19 0 32.5 12.5t20 28t10 42t4 40.5t0.5 37v6v408l-158 -5q-6 0 -6 -8v-22q0 -4 -0.5 -61.5t-0.5 -99.5q0 -179 10 -207v-1q0 -5 -13.5 -9t-29.5 -4q-32 0 -36 14q6 20 6 61q0 157 0.5 226.5
t0.5 105.5q-10 -1 -160 -15q-6 0 -6 -8v-22q0 -301 8 -348v-1q0 -14 -32 -14q-16 0 -31 4t-15 8t3 18.5t3 25.5q0 157 0.5 226.5t0.5 105.5q-39 -3 -59 -6q-12 0 -12 26q0 10 34.5 14t34.5 16q3 61 8.5 104.5t17.5 95.5t36 80t58 28q19 0 40 -11.5t21 -27.5q0 -12 -11.5 -22
t-23.5 -10q-14 0 -24.5 12.5t-14.5 12.5q-42 0 -42 -197q0 -13 0.5 -32t0.5 -25l163 12q12 288 120 288q51 0 90 -18t57 -44t26.5 -46.5t8.5 -32.5v-1q-1 -1 -1 -2v-4q0 -19 -22.5 -29.5t-35.5 -10.5q-8 0 -12.5 10t-14.5 10h-11q-6 0 -6 7q0 6 11 15.5t11 28.5q0 29 -25 50
t-89 21q-42 0 -42 -212q0 -35 15 -35q6 0 95.5 3.5t97.5 3.5q9 0 12.5 -3.5t3.5 -11.5q0 -4 -1 -19t-1 -28v-14q7 -177 7 -335q0 -70 -15 -120q-16 -58 -60 -96.5t-82 -38.5z" />
    <glyph glyph-name="T_h" unicode="Th" horiz-adv-x="957" 
d="M438 665q85 0 119 4q3 16 30 16q15 0 27.5 -4t12.5 -10q0 -193 2 -277q68 56 135 56q77 0 120 -51t43 -129v-207q0 -43 10 -64q-1 -10 -36 -10q-43 0 -45 11q7 19 7 46v204q0 67 -30.5 111t-94.5 44q-37 0 -73.5 -23t-36.5 -58v-182q0 -53 1.5 -85t3 -43.5t1.5 -14.5
q0 -10 -31 -10q-44 0 -44 8q0 7 2.5 23t2.5 24v457q0 73 -3 119q-60 10 -163 10h-7q-21 0 -30 -1t-19 -5.5t-13.5 -15.5t-3.5 -30q0 -76 -0.5 -263t-0.5 -263q0 -28 4 -47q0 -6 -12 -11t-23 -5q-41 0 -41 14l4 74q3 74 3 130q0 63 -1.5 174t-1.5 178q0 50 -15 60.5t-68 10.5
q-69 0 -143 -12q-20 6 -20 20t20 34q54 -7 408 -7z" />
    <glyph glyph-name="T_h.caron" unicode="&#x164;h" horiz-adv-x="882" 
d="M290 772q12 0 39 10.5t47 21.5l21 10l13 -11l-6 -9q-96 -74 -114 -74q-9 0 -37.5 18.5t-52.5 37.5l-24 18l-6 9l12 11q78 -42 108 -42zM438 665q85 0 119 4q3 16 30 16q15 0 27.5 -4t12.5 -10q0 -193 2 -277q68 56 135 56q77 0 120 -51t43 -129v-207q0 -43 10 -64
q-1 -10 -36 -10q-43 0 -45 11q7 19 7 46v204q0 67 -30.5 111t-94.5 44q-37 0 -73.5 -23t-36.5 -58v-182q0 -53 1.5 -85t3 -43.5t1.5 -14.5q0 -10 -31 -10q-44 0 -44 8q0 7 2.5 23t2.5 24v457q0 73 -3 119q-60 10 -163 10h-7q-21 0 -30 -1t-19 -5.5t-13.5 -15.5t-3.5 -30
q0 -76 -0.5 -263t-0.5 -263q0 -28 4 -47q0 -6 -12 -11t-23 -5q-41 0 -41 14l4 74q3 74 3 130q0 63 -1.5 174t-1.5 178q0 50 -15 60.5t-68 10.5q-69 0 -143 -12q-20 6 -20 20t20 34q54 -7 408 -7z" />
    <glyph glyph-name="T_h.commaaccent" unicode="&#x162;h" horiz-adv-x="893" 
d="M438 665q85 0 119 4q3 16 30 16q15 0 27.5 -4t12.5 -10q0 -193 2 -277q68 56 135 56q77 0 120 -51t43 -129v-207q0 -43 10 -64q-1 -10 -36 -10q-43 0 -45 11q7 19 7 46v204q0 67 -30.5 111t-94.5 44q-37 0 -73.5 -23t-36.5 -58v-182q0 -53 1.5 -85t3 -43.5t1.5 -14.5
q0 -10 -31 -10q-44 0 -44 8q0 7 2.5 23t2.5 24v457q0 73 -3 119q-60 10 -163 10h-7q-21 0 -30 -1t-19 -5.5t-13.5 -15.5t-3.5 -30q0 -76 -0.5 -263t-0.5 -263q0 -28 4 -47q0 -6 -12 -11t-23 -5q-41 0 -41 14l4 74q3 74 3 130q0 63 -1.5 174t-1.5 178q0 50 -15 60.5t-68 10.5
q-69 0 -143 -12q-20 6 -20 20t20 34q54 -7 408 -7zM248 -114q17 2 33.5 -7.5t17.5 -34.5q0 -24 -17 -41.5t-34 -22.5l-17 -6q-1 0 -3 -1t-5 -3.5t-4 -4.5t1.5 -4.5t10.5 -3.5q26 -4 49 8t37.5 33t22.5 38t12 30q6 21 -14.5 51.5t-48.5 34.5q-56 7 -56 -32q0 -36 15 -34z" />
    <glyph glyph-name=".notdef" horiz-adv-x="251" 
 />
    <glyph glyph-name=".notdef" horiz-adv-x="251" 
 />
    <glyph glyph-name=".null" horiz-adv-x="0" 
 />
    <glyph glyph-name="nonmarkingreturn" horiz-adv-x="333" 
 />
    <glyph glyph-name="CR" unicode="&#xd;" horiz-adv-x="251" 
 />
    <glyph glyph-name="space" unicode=" " horiz-adv-x="250" 
 />
    <glyph glyph-name="exclam" unicode="!" horiz-adv-x="181" 
d="M97 299q0 -21 2.5 -64t2.5 -64q0 -17 -10 -17q-21 0 -32.5 104.5t-11.5 168.5q0 123 5 184q1 18 6 25.5t20 19.5q33 26 52 26q15 0 15 -14q0 -11 -2.5 -24t-6.5 -29.5t-6 -24.5q-34 -170 -34 -291zM97 111q-16 -5 -36.5 -19.5t-24.5 -20.5q-8 -14 1 -16q17 -7 25 -19
q1 -2 5.5 -14.5t10 -22t12.5 -8.5q14 3 31.5 21.5t17.5 38.5q1 22 -13 43t-29 17z" />
    <glyph glyph-name="quotedbl" unicode="&#x22;" horiz-adv-x="281" 
d="M86 409q-5 -20 -16 -20q-7 0 -16 10q-18 193 -18 268q0 10 16 10q3 0 9 -0.5t8 -0.5q3 0 9.5 0.5t9.5 0.5q16 0 16 -10q0 -27 -4.5 -91.5t-9.5 -115.5zM226 409q-5 -21 -16 -21q-6 0 -14 11q-19 183 -19 268q0 10 16 10q3 0 9.5 -0.5t9.5 -0.5t9 0.5t9 0.5q15 0 15 -10
q0 -47 -4.5 -111.5t-9.5 -105.5z" />
    <glyph glyph-name="numbersign" unicode="#" horiz-adv-x="500" 
d="M276 354q-3 -14 -15 -18t-22 4t-7 22l20 101h-77l-21 -109q-3 -14 -15 -18t-22 4t-7 22l20 101h-91q-14 0 -20 11t0 22t20 11h99l15 75h-92q-14 0 -20 11t0 22t20 11h100l22 109q3 14 15 18t22 -4t7 -22l-20 -101h78l22 111q3 14 15 18t22 -4t7 -22l-21 -103h89
q14 0 20 -11t0 -22t-20 -11h-97l-15 -75h83q14 0 20 -11t0 -22t-20 -11h-92zM198 582l-14 -75h77l15 75h-78z" />
    <glyph glyph-name="dollar" unicode="$" horiz-adv-x="475" 
d="M448 212q0 -71 -56.5 -119t-136.5 -57l1 -54q0 -9 -3 -11t-15 -2q-18 0 -18 10l-1 56q-18 1 -41.5 7t-35 10t-44.5 17.5t-34 14.5q-12 6 -20 22.5t-8 30.5q0 20 13 20q5 0 10 -4q24 -26 72.5 -50.5t87.5 -28.5v255q-40 16 -63 27.5t-51 31t-41 45.5t-13 59q0 59 49 100
t115 48v44q0 17 24 17q13 0 13 -18q0 -4 -1 -11t-1 -9v-22q168 -5 168 -58q0 -20 -18 -20q-13 2 -28 13q-44 36 -121 38l2 -227q5 -2 27 -11t28.5 -12l26 -12t27 -13.5t23 -14.5t21.5 -17t16.5 -18.5t14.5 -22.5t7.5 -25t3.5 -29zM379 184q0 47 -32.5 76t-92.5 55l1 -240
q52 6 88 35.5t36 73.5zM218 583q0 20 -1 28q-41 -8 -69.5 -33.5t-28.5 -61.5q0 -39 25.5 -65.5t73.5 -48.5v181z" />
    <glyph glyph-name="percent" unicode="%" horiz-adv-x="781" 
d="M298 452q0 -56 -12 -105t-45 -86.5t-81 -37.5t-81 37.5t-45.5 87t-12.5 104.5q0 56 12 105t44.5 87t81.5 38q37 0 65 -21.5t43.5 -56.5t23 -73.5t7.5 -78.5zM239 473q-3 28 -10 57.5t-18.5 61.5t-31 48.5t-42.5 9.5q-61 -15 -61 -157q0 -30 4 -64q4 -29 10 -57
t17.5 -59.5t30.5 -48t42 -10.5q63 18 63 160q0 27 -4 59zM190 -12q-20 0 -20 13q2 7 7 16.5t13 21.5t10 16l67 114l193 331q84 146 92 158q9 13 14 16.5t20 3.5q18 0 18 -10q0 -5 -172.5 -302.5t-207.5 -354.5q-6 -10 -9 -13.5t-9 -6.5t-16 -3zM762 222q0 -56 -12 -105
t-45 -86.5t-81 -37.5t-81 37.5t-45.5 87t-12.5 104.5q0 56 12 105t44.5 87t81.5 38q37 0 65 -21.5t43.5 -56.5t23 -73.5t7.5 -78.5zM703 243q-3 28 -10 57.5t-18.5 61.5t-31 48.5t-42.5 9.5q-61 -15 -61 -157q0 -30 4 -64q4 -29 10 -57t17.5 -59.5t30.5 -48t42 -10.5
q63 18 63 160q0 27 -4 59z" />
    <glyph glyph-name="ampersand" unicode="&#x26;" horiz-adv-x="768" 
d="M654 359q-9 -24 -15 -42.5t-10 -29.5t-13 -30q-22 -47 -42 -76.5t-58 -72.5q49 -49 109 -49q22 0 46 6q14 3 35.5 15.5t24.5 12.5q5 0 5 -11q0 -33 -44.5 -61t-93.5 -28q-71 0 -139 71q-73 -71 -214 -71q-87 0 -149 46t-62 130q0 69 42.5 126t106.5 80l11 3q11 3 17 6.5
t6 8.5q0 4 -17.5 43t-17.5 65q0 69 49 121t115 52q58 0 104.5 -32t50.5 -82q-19 -37 -42 -37q-15 0 -33 15q-3 41 -28 68.5t-64 27.5t-68 -39t-29 -83q0 -13 3 -25.5t10 -27t12.5 -23.5t17 -26.5t16.5 -25.5q48 -76 89 -127t108 -123q29 21 54 58q23 35 32.5 60.5t9.5 62.5
q0 29 -8 56q24 20 40 20q19 0 34 -22q-1 -3 -1 -10zM107 221q0 -91 62 -130.5t158 -39.5q56 0 112 40q-106 117 -197 256q-5 1 -16 1q-52 0 -85.5 -36.5t-33.5 -90.5z" />
    <glyph glyph-name="quotesingle" unicode="'" horiz-adv-x="138" 
d="M86 409q-5 -20 -16 -20q-7 0 -16 10q-18 193 -18 268q0 10 16 10q3 0 9 -0.5t8 -0.5q3 0 9.5 0.5t9.5 0.5q16 0 16 -10q0 -27 -4.5 -91.5t-9.5 -115.5z" />
    <glyph glyph-name="parenleft" unicode="(" horiz-adv-x="246" 
d="M107 253q0 -248 105 -493q0 -7 -8 -7q-6 0 -10 1t-7 2t-5.5 5t-4 5.5t-4.5 7.5l-4 8q-138 253 -138 471q0 158 69 327q55 138 86 169q4 4 11 4q15 0 15 -8q-105 -245 -105 -492z" />
    <glyph glyph-name="parenright" unicode=")" horiz-adv-x="246" 
d="M138 253q0 247 -104 492q-2 8 8 8q5 0 9.5 -1t7 -2t5.5 -5t3.5 -5.5t4 -8t4.5 -8.5q139 -250 139 -470q0 -155 -70 -328q-58 -141 -86 -168q-4 -4 -11 -4q-14 0 -14 8q104 245 104 492z" />
    <glyph glyph-name="asterisk" unicode="*" horiz-adv-x="326" 
d="M130 584q4 5 12 10l-6 22q-7 21 -7 32q0 18 11.5 29.5t29.5 11.5q30 0 30 -40q0 -15 -7.5 -31.5t-8.5 -23.5q7 -3 13 -9q57 32 73 32q26 0 26 -26q0 -22 -5 -22q0 -14 -82 -25q-1 -5 -5 -13q54 -51 54 -61q0 -16 -11.5 -25.5t-27.5 -9.5q-18 0 -50 73q-2 -1 -5 -1
q-5 0 -7 1q-34 -76 -58 -76q-13 0 -22.5 9t-9.5 29q0 9 56 62q-4 8 -5 12q-83 9 -83 25v-1q-5 0 -5 22q0 27 26 27q13 0 74 -33z" />
    <glyph glyph-name="plus" unicode="+" horiz-adv-x="400" 
d="M186 386q0 21 20 21t20 -21l1 -132h123q21 0 21 -20t-21 -20h-123l1 -127q0 -21 -20 -21t-20 21l-1 127h-138q-21 0 -21 20t21 20h138z" />
    <glyph glyph-name="comma" unicode="," horiz-adv-x="187" 
d="M102 -63q-30 -26 -51 -24q-3 0 -6 2.5t-2 6.5q0 3 15 11.5t30 22t15 30.5q0 4 -6 4.5t-13 -0.5t-12 2q-21 12 -30 45q-8 23 -4 30q4 6 26 21.5t39 20.5q14 4 32.5 -31.5t18.5 -59.5q-1 -28 -11 -42t-41 -39z" />
    <glyph glyph-name="hyphen" unicode="-" horiz-adv-x="270" 
d="M229 306q11 2 11 -9q0 -5 -4.5 -13.5t-11.5 -18.5t-9 -13q-5 -8 -14 -13.5t-15 -6.5t-20.5 -2.5t-17.5 -1.5q-68 -9 -90 -26q-16 -11 -17 -11q-10 -2 -10 9q0 7 25 46q5 9 14.5 14t16.5 6.5t21.5 2t18.5 1.5q63 8 86 26q12 9 16 10z" />
    <glyph glyph-name="hyphen" unicode="&#xad;" horiz-adv-x="270" 
d="M229 306q11 2 11 -9q0 -5 -4.5 -13.5t-11.5 -18.5t-9 -13q-5 -8 -14 -13.5t-15 -6.5t-20.5 -2.5t-17.5 -1.5q-68 -9 -90 -26q-16 -11 -17 -11q-10 -2 -10 9q0 7 25 46q5 9 14.5 14t16.5 6.5t21.5 2t18.5 1.5q63 8 86 26q12 9 16 10z" />
    <glyph glyph-name="period" unicode="." horiz-adv-x="175" 
d="M96 109q15 4 30 -17t13 -42q-2 -19 -20 -33.5t-34 -17.5q-7 -1 -11.5 6t-8 17.5t-4.5 12.5q-11 15 -25 18q-4 1 -4 6.5t3 9.5q4 6 24.5 20.5t36.5 19.5z" />
    <glyph glyph-name="slash" unicode="/" horiz-adv-x="488" 
d="M47 -12q-20 0 -20 13q2 7 7 16.5t13 21.5t10 16l67 114l193 331q84 146 92 158q9 13 14 16.5t20 3.5q18 0 18 -10q0 -5 -172.5 -302.5t-207.5 -354.5q-6 -10 -9 -13.5t-9 -6.5t-16 -3z" />
    <glyph glyph-name="zero" unicode="0" horiz-adv-x="477" 
d="M442 331q0 -47 -6.5 -93t-21.5 -92t-37.5 -80t-58 -55.5t-79.5 -21.5q-54 0 -95.5 31.5t-64 83.5t-33.5 109.5t-11 117.5q0 61 10.5 118t32.5 109.5t63 84.5t96 32q54 0 95.5 -32t64.5 -84.5t34 -110t11 -117.5zM366 364q-5 44 -16 89.5t-29.5 95t-49.5 76t-69 15.5
q-38 -10 -61 -51t-29 -97.5t-6 -105t5 -91.5q5 -44 15 -88.5t28.5 -93.5t48.5 -75t68 -15q38 10 61.5 50.5t30.5 96t7.5 103.5t-4.5 91z" />
    <glyph glyph-name="one" unicode="1" horiz-adv-x="175" 
d="M125 98q0 -18 3 -47t3 -39q0 -23 -45 -23q-42 0 -42 18v3q14 59 14 138q0 56 2 172t2 162q0 32 -6 64.5t-13.5 55.5t-7.5 27q-2 17 30 29t61 16q4 0 4 -5q0 -1 -4.5 -82.5t-4.5 -168.5q0 -84 4 -320z" />
    <glyph glyph-name="two" unicode="2" horiz-adv-x="484" 
d="M450 478q-1 -48 -36 -97t-84 -87.5t-98 -75t-83.5 -72.5t-34.5 -66q0 -23 101 -23q106 0 202 14q1 0 3 0.5t3 0.5q18 0 18 -20q0 -17 -11.5 -40t-17.5 -23q-30 2 -91.5 9.5t-90.5 7.5q-43 0 -97 -4t-81 -4q-8 0 -13 9t-5 21q0 45 18.5 84t48.5 68t66 55.5t72 52t66.5 52
t50 60.5t20.5 73v24q0 53 -38.5 93.5t-119.5 40.5q-21 0 -35.5 -2t-27.5 -9.5t-19 -11.5t-21 -18t-21 -20q-10 -8 -18 -8q-17 0 -17 23q0 10 6 19q64 71 158 71q116 0 171.5 -56.5t55.5 -140.5z" />
    <glyph glyph-name="three" unicode="3" horiz-adv-x="483" 
d="M54 105q13 13 23 13q2 0 2 -2v-1q0 -35 39.5 -60t97.5 -25q63 0 110 54.5t47 118.5q0 65 -43 114.5t-106 49.5q-16 0 -31 -5q-23 14 -23 23t19 19q57 13 88 39t31 77q0 44 -31.5 74t-76.5 30q-44 0 -81 -44q-3 -3 -10 -3t-14 3.5t-7 8.5q0 1 2 5q24 35 68 58t84 23
q54 0 98 -35.5t44 -87.5q0 -24 -9 -46.5t-21.5 -38t-25 -27.5t-21.5 -19.5t-9 -8.5q0 -4 6 -4q61 -14 103 -66t42 -115q0 -87 -82.5 -161.5t-170.5 -74.5q-63 0 -109 25q-54 30 -54 52q0 16 21 37z" />
    <glyph glyph-name="four" unicode="4" horiz-adv-x="513" 
d="M477 238q16 0 16 -42q0 -36 -13 -37q-67 7 -92 10q0 -11 -0.5 -43t0.5 -63t5 -62q0 -11 -37 -11q-49 0 -49 10q11 56 16 171q-27 0 -122 -2t-144 -2q-9 0 -16.5 5.5t-7.5 13.5q0 3 1.5 5t4 4.5l3.5 3.5q227 312 307 456q14 26 35 26q19 0 19 -12q0 -1 -3 -16
q-11 -39 -11 -109l-1 -314q5 0 36.5 3.5t52.5 4.5zM116 229v-1q0 -5 8 -5h197q4 0 4 7v290q0 14 -7 14q-4 0 -88.5 -128.5t-113.5 -176.5z" />
    <glyph glyph-name="five" unicode="5" horiz-adv-x="500" 
d="M497 254q0 -68 -45.5 -131t-114.5 -99.5t-138 -36.5q-50 0 -94.5 24t-44.5 70q0 15 9.5 26t23.5 11q29 0 29 -24q0 -30 27 -47t60 -17q84 0 151 56.5t67 136.5q0 66 -49 126.5t-114 60.5q-30 0 -57.5 -12t-42.5 -24t-16 -12q-6 0 -12 6t-6 12t3.5 17.5t3.5 13.5
q17 82 17 181q0 11 -2.5 33t-2.5 33q0 6 5.5 10.5t12.5 4.5q4 0 12 -4q48 -21 158 -21q28 0 49 8t32.5 15.5t14.5 7.5q10 0 10 -10q0 -33 -32 -57.5t-67 -24.5q-24 0 -78 6t-74 6q-18 -38 -18 -138q0 -11 5 -11t41 10t59 10q81 0 149.5 -67.5t68.5 -148.5z" />
    <glyph glyph-name="six" unicode="6" horiz-adv-x="482" 
d="M448 217q0 -92 -60 -161t-150 -69q-96 0 -150.5 71t-54.5 170q0 139 98.5 265t232.5 180q18 7 58 7q13 0 13 -9q0 -5 -2.5 -8.5t-8 -6.5t-8.5 -4.5t-10 -3.5l-8 -3q-119 -43 -199 -151q-26 -34 -28 -50l4 -4q36 12 66 12q85 0 146 -73.5t61 -161.5zM375 213
q-6 45 -25.5 91.5t-58.5 82t-85 29.5q-33 -4 -56 -27.5t-31.5 -56t-12 -68t1.5 -63.5q9 -72 54 -131.5t112 -51.5q32 4 55 24.5t33 49t14 61t-1 60.5z" />
    <glyph glyph-name="seven" unicode="7" 
d="M78 -20q-14 0 -14 18q0 8 24 48q33 56 145.5 293.5t112.5 264.5q0 6 -39 6q-57 0 -141 -7t-104 -7q-21 0 -21 23q0 19 12 36t22 17q13 0 75 -4.5t95 -4.5q25 0 86 7.5t94 7.5q6 0 10.5 -5t4.5 -11q0 -19 -159.5 -333.5t-177.5 -335.5q-11 -13 -25 -13z" />
    <glyph glyph-name="eight" unicode="8" horiz-adv-x="491" 
d="M456 180q-1 -84 -64 -139.5t-148 -55.5q-84 0 -147 51.5t-63 131.5q0 40 20.5 76t45.5 55.5t46 35t21 19.5q-2 3 -8.5 8.5t-14.5 11.5t-11 8q-33 27 -50 54t-17 65q0 75 54.5 126.5t127.5 51.5q70 0 121 -42.5t51 -112.5q0 -15 -3 -29.5t-7 -25.5t-11 -22t-13.5 -18.5
t-16 -15t-16 -12.5t-16.5 -10t-14.5 -7t-12.5 -6t-9 -4q61 -17 108 -71t47 -123zM364 530q0 51 -32 85.5t-82 34.5q-123 0 -123 -121q0 -35 17.5 -58.5t50.5 -44.5q50 -29 58 -29q41 0 72 27q25 21 32 45t7 61zM208 335q-12 0 -37 -19t-38 -33q-32 -35 -32 -91
q0 -69 47.5 -121.5t103.5 -52.5q132 0 132 143q0 54 -21 81.5t-70 52.5q-74 40 -85 40z" />
    <glyph glyph-name="nine" unicode="9" horiz-adv-x="482" 
d="M34 445q0 92 59.5 161t149.5 69q96 0 151 -70.5t55 -169.5q0 -70 -31.5 -142.5t-81 -130t-107 -101t-111.5 -63.5q-41 -16 -58 -16q-14 0 -14 10q0 7 7 11.5t17.5 8t13.5 5.5q128 80 198 173q26 34 29 50l-4 5q-39 -13 -66 -13q-87 0 -147 63.5t-60 149.5zM108 465
q0 -72 38 -135.5t106 -63.5q64 0 93 54.5t29 124.5q0 45 -14 89t-48 78.5t-80 34.5q-43 0 -72.5 -31t-40.5 -70t-11 -81z" />
    <glyph glyph-name="colon" unicode=":" horiz-adv-x="175" 
d="M96 179q15 4 30 -17t13 -43q-2 -19 -20.5 -33.5t-33.5 -16.5q-7 -1 -11.5 5.5t-8 17.5t-4.5 13q-11 15 -25 18q-4 1 -4 6.5t3 9.5q4 6 24.5 20.5t36.5 19.5zM96 375q15 4 30 -17.5t13 -42.5q-2 -19 -20.5 -33.5t-33.5 -17.5q-7 -1 -11.5 6t-8 17.5t-4.5 12.5
q-11 15 -25 18q-9 4 -1 16q4 6 24.5 21t36.5 20z" />
    <glyph glyph-name="semicolon" unicode=";" horiz-adv-x="185" 
d="M105 358q-16 -5 -37 -19.5t-24 -20.5q-3 -4 -3 -9.5t4 -6.5q14 -3 25 -18q1 -2 4.5 -12.5t8 -17.5t11.5 -6q16 3 34 17.5t19 33.5q2 21 -12.5 42t-29.5 17zM99 -52q-29 -23 -51 -22q-9 2 -8 8q0 1 29.5 20t30.5 40q0 3 -6 3.5t-12.5 0t-11.5 1.5q-22 12 -31 42
q-8 20 -3 28q3 5 25 19.5t39 19.5q14 4 32.5 -29t18.5 -55q-1 -25 -11 -38.5t-41 -37.5z" />
    <glyph glyph-name="semicolon" unicode="&#x37e;" horiz-adv-x="185" 
d="M105 358q-16 -5 -37 -19.5t-24 -20.5q-3 -4 -3 -9.5t4 -6.5q14 -3 25 -18q1 -2 4.5 -12.5t8 -17.5t11.5 -6q16 3 34 17.5t19 33.5q2 21 -12.5 42t-29.5 17zM99 -52q-29 -23 -51 -22q-9 2 -8 8q0 1 29.5 20t30.5 40q0 3 -6 3.5t-12.5 0t-11.5 1.5q-22 12 -31 42
q-8 20 -3 28q3 5 25 19.5t39 19.5q14 4 32.5 -29t18.5 -55q-1 -25 -11 -38.5t-41 -37.5z" />
    <glyph glyph-name="less" unicode="&#x3c;" horiz-adv-x="383" 
d="M319 414q11 7 21 1t10.5 -16.5t-9.5 -18.5l-239 -148l230 -152q11 -7 9.5 -19t-10.5 -16.5t-21 1.5l-249 165q-14 1 -18 15t9 23z" />
    <glyph glyph-name="equal" unicode="=" horiz-adv-x="384" 
d="M57 301q-21 0 -21 20t21 20h270q21 0 21 -20t-21 -20h-270zM54 161q-21 0 -21 20t21 20h270q21 0 21 -20t-21 -20h-270z" />
    <glyph glyph-name="greater" unicode="&#x3e;" horiz-adv-x="383" 
d="M40 386q-11 7 -9.5 19t10.5 16.5t21 -1.5l266 -168q9 -6 9 -17q2 -13 -9 -20l-257 -175q-11 -8 -21 -2t-10.5 16.5t9.5 19.5l233 159z" />
    <glyph glyph-name="question" unicode="?" horiz-adv-x="402" 
d="M158 629l-15 -1q-17 0 -33 -9t-34.5 -24.5t-22.5 -18.5q-14 -9 -23 6.5t1 24.5q9 32 54.5 48.5t93.5 16.5q76 0 134 -46t58 -120q0 -40 -20.5 -70t-49.5 -49t-58 -38.5t-49.5 -49.5t-20.5 -70q0 -13 3 -36t3 -35q0 -7 -20 -7q-12 0 -21 39.5t-6 49.5q-2 16 -2 22
q0 40 26.5 74.5t58 55.5t58 52t26.5 64q0 46 -44 83.5t-97 37.5zM177 110q2 1 7 1q16 0 28 -18.5t12 -39.5t-17 -38t-33 -20q-8 0 -13 8t-8.5 19.5t-5.5 13.5q-5 8 -17 14.5t-12 10.5q0 6 13 22q17 20 46 27z" />
    <glyph glyph-name="at" unicode="@" horiz-adv-x="551" 
d="M466 245q0 73 -53.5 118.5t-130.5 45.5q-186 0 -186 -191q0 -86 44.5 -138t127.5 -52q84 0 84 -21q0 -6 -10.5 -11.5t-33.5 -9t-55 -3.5q-91 0 -154.5 68.5t-63.5 163.5q0 98 72.5 167.5t172.5 69.5q92 0 164.5 -55.5t72.5 -136.5q0 -46 -9.5 -89t-38.5 -79.5t-73 -36.5
q-28 0 -44 34.5t-16 62.5q-52 -82 -106 -82q-47 0 -69 39.5t-22 93.5q0 70 43 113t121 43q28 0 62.5 -6.5t34.5 -12.5q0 -9 -14.5 -94.5t-14.5 -102.5q0 -15 7 -33.5t21 -18.5q32 0 49 50t18 104zM235 124q4 -1 12 -1q96 0 96 170q0 27 -70 27q-50 0 -68 -24.5t-18 -72.5
q0 -88 48 -99z" />
    <glyph glyph-name="A" unicode="A" horiz-adv-x="655" 
d="M311 643q8 39 32 39q7 0 14.5 -3t11.5 -7l4 -3q0 -25 102.5 -299.5t137.5 -352.5q1 -1 1 -5q0 -23 -44 -23q-32 0 -40 28l-103 299q-223 -24 -226 -35q-3 -10 -25.5 -68t-42 -114t-24.5 -87q-5 -27 -60 -27q-17 0 -17 27q49 89 159 333.5t120 297.5zM413 356
q-74 217 -85 217q-3 0 -8 -8q-8 -14 -54.5 -124.5t-47.5 -116.5q16 4 64.5 12t89.5 14z" />
    <glyph glyph-name="B" unicode="B" horiz-adv-x="514" 
d="M47 664q4 9 24 10q26 0 78 1.5t79 1.5q77 0 140 -41.5t63 -115.5q0 -12 -1.5 -23t-3 -19t-6.5 -17.5t-7 -15t-10 -14.5t-10 -11.5t-13 -11.5t-12.5 -10.5t-14.5 -11.5t-14 -11q14 -6 35 -20.5t46 -37t42.5 -55t17.5 -64.5q0 -95 -71 -149.5t-169 -54.5q-80 0 -175 -7
q-10 -1 -17.5 3.5t-6.5 9.5q15 122 18 275.5t-1.5 254t-10.5 134.5zM119 334v-221q0 -54 25 -71.5t82 -17.5q80 0 128 39t48 117q0 80 -60.5 122t-144.5 43q-5 0 -20 0.5t-22.5 0t-17 -1.5t-14 -3.5t-4.5 -6.5zM165 375q26 0 40.5 0.5t38 2.5t36.5 6.5t29.5 13.5t25 22
t14.5 32.5t6 44.5q0 67 -51 106t-119 39q-12 0 -21.5 -0.5t-16.5 -3.5t-12 -4.5t-8 -8t-5 -9t-2.5 -12.5t-0.5 -13.5v-17v-18.5v-170q0 -10 46 -10z" />
    <glyph glyph-name="C" unicode="C" horiz-adv-x="664" 
d="M34 333q0 146 106.5 245.5t253.5 99.5q38 0 106.5 -17t121.5 -43q18 -24 18 -44q0 -23 -33 -23h-9q-25 25 -41 38t-42.5 27.5t-61.5 21t-82 6.5q-74 0 -133.5 -47.5t-90 -118.5t-30.5 -145q0 -123 85 -211.5t209 -88.5q117 0 180 74q2 2 4 6t3 7t3.5 5t6.5 2
q6 0 12.5 -10.5t6.5 -18.5l-1 -1v-2q-14 -44 -73.5 -75.5t-143.5 -31.5q-158 0 -266.5 94.5t-108.5 250.5z" />
    <glyph glyph-name="D" unicode="D" horiz-adv-x="691" 
d="M54 642q-3 10 -1 16.5t4 10.5t7.5 5t9 1t8.5 -1h4q33 0 99 1.5t99 1.5q103 0 185 -32.5t135 -107t53 -182.5q0 -87 -34.5 -157t-92.5 -114t-131.5 -67t-155.5 -23q-25 0 -92 -2t-92 -2q-32 0 -23 10q15 15 21 307.5t-3 334.5zM243 29q156 0 243 74t87 228
q0 138 -92 224.5t-231 86.5q-3 0 -21.5 0.5t-26.5 0t-23.5 -2.5t-24 -6t-16.5 -12.5t-10 -20.5q-7 -43 -5 -278t7 -251q14 -43 113 -43z" />
    <glyph glyph-name="E" unicode="E" horiz-adv-x="508" 
d="M49 561q0 15 -2 32.5t-3.5 28.5t-1.5 22.5t3.5 17.5t12 10t23.5 4q96 -4 144 -4q43 0 114.5 3.5t93.5 4.5q33 -14 33 -41q0 -31 -33 -31q-62 31 -218 31q-70 0 -84.5 -7t-14.5 -51v-194q0 -19 14 -19q41 0 110 9t94 24q10 0 19.5 -7.5t9.5 -19.5q0 -19 -33 -33
q-13 8 -57 8q-29 0 -64 -3.5t-58.5 -7.5t-24.5 -4q-10 0 -10 -10v-189q0 -65 23 -83t90 -18q50 0 119 8.5t104 20.5q24 -1 24 -18q0 -18 -27 -50q-156 5 -359 5q-24 0 -34.5 2t-13.5 9.5t-1 15.5t5.5 28t3.5 40q0 76 -0.5 232.5t-0.5 233.5z" />
    <glyph glyph-name="F" unicode="F" horiz-adv-x="488" 
d="M49 561q0 20 -3.5 48t-3.5 35q0 17 9.5 24.5t34.5 7.5q92 -4 139 -4q43 0 116 3.5t94 4.5q29 -17 29 -45q0 -12 -6.5 -20t-16.5 -8q-1 0 -3 0.5t-3 0.5q-62 31 -220 31q-70 0 -84.5 -7t-14.5 -51v-194q0 -19 14 -19q43 0 102.5 7t83.5 22q25 -13 25 -27q0 -8 -6.5 -16
t-12.5 -12l-6 -5q-13 8 -57 8q-143 0 -143 -21v-179q0 -80 17 -135q-29 -28 -51 -28q-14 0 -28 13t-18 13q14 46 14 97q0 77 -0.5 228t-0.5 228z" />
    <glyph glyph-name="G" unicode="G" horiz-adv-x="670" 
d="M631 279l1 -238q0 -21 -12.5 -36.5t-28.5 -15.5q-26 0 -35 41q-82 -42 -174 -42q-145 0 -246.5 96t-101.5 241q0 143 107 248t251 105q86 0 166.5 -27t80.5 -69q0 -21 -37 -37q-8 6 -40.5 30.5t-42 29.5t-34 18t-46 16.5t-49.5 3.5q-118 0 -195.5 -96.5t-77.5 -216.5
q0 -122 84 -214.5t205 -92.5q36 0 79.5 14.5t66.5 37.5l6 5q6 6 6.5 7.5t5 8t5 11t3 14.5t2 20.5t-1 26.5t-2.5 35q-1 14 -15.5 34t-14.5 36q0 30 30 30q55 0 55 -24z" />
    <glyph glyph-name="H" unicode="H" horiz-adv-x="592" 
d="M104 320l3 -312q-19 -23 -40 -23t-30 23v-3q2 44 2 223q0 24 -2 426q13 25 35 25q9 0 17.5 -6.5t12.5 -12.5l5 -6q-3 -21 -3 -290q287 19 383 28q0 14 -1 76.5t-2 114.5t-2 71q16 26 38 26t35 -26q-2 -9 -2 -646q-17 -22 -38 -22q-23 0 -34 22q7 71 7 239q0 74 -1 102
q-31 -3 -183.5 -12.5t-199.5 -16.5z" />
    <glyph glyph-name="I" unicode="I" horiz-adv-x="185" 
d="M147 657l1 -657q-12 -14 -34 -14q-7 0 -16.5 3t-15.5 6t-6 5q-1 -5 -1 1q8 288 3 656q16 21 35 21q9 0 17.5 -5t12.5 -11z" />
    <glyph glyph-name="J" unicode="J" horiz-adv-x="198" 
d="M-8 -193q-17 0 -30.5 8t-13.5 23q0 17 13 27.5t30 10.5q8 0 23 -10.5t25 -10.5q57 0 57 119q0 14 -1 41t-1 39q0 23 0.5 232.5t0.5 216.5q0 105 -9 153q23 26 44 26q10 0 18 -6.5t11 -13.5l3 -6q-1 -5 -1 -17v-578q0 -44 -9 -86t-27.5 -81t-52.5 -63t-80 -24z" />
    <glyph glyph-name="K" unicode="K" horiz-adv-x="571" 
d="M297 514q17 15 58 59t62 72q24 32 59 32q26 0 26 -16q0 -8 -11 -16q2 2 -26 -23.5t-67 -61.5t-79.5 -74t-68.5 -67t-28 -34q0 -7 118 -150t179 -213q3 -5 3 -8q0 -10 -14.5 -19t-33.5 -9q-37 0 -60 36q-23 38 -131.5 173t-117.5 136q-8 -8 -22.5 -20t-16.5 -14v-74
q0 -197 3 -213q-20 -24 -41 -24q-19 0 -30 24q0 29 2 171t2 232q0 22 0.5 71.5t0 71.5t-2 51.5t-5.5 48.5q18 21 37 21q10 0 19 -5.5t13 -10.5l4 -5q-2 -10 -2 -300q13 0 171 158z" />
    <glyph glyph-name="L" unicode="L" horiz-adv-x="481" 
d="M54 617q0 17 -3 30q17 28 36 28q9 0 19 -3.5t16 -7.5l6 -4q-15 -128 -4 -559q1 -40 16.5 -52.5t55.5 -12.5q124 0 221 27q7 3 15 3q22 0 22 -18q0 -5 -4.5 -16t-19.5 -24.5t-37 -13.5q-27 0 -82 4.5t-63 4.5q-29 0 -79.5 -4t-78.5 -4q-47 0 -47 35q0 10 4.5 40.5
t5.5 50.5v3q1 399 1 493z" />
    <glyph glyph-name="M" unicode="M" horiz-adv-x="727" 
d="M618 629l14 38q28 8 45 8q14 0 14 -6q0 -17 -5.5 -58t-5.5 -62q0 -70 1 -245t1 -245v-41v-18q0 -17 -28 -17q-22 0 -35 7t-13 18q0 7 4 22.5t4 23.5q2 128 2 234q0 205 -10 205q-19 0 -116 -211t-113 -280q-5 -20 -18 -20q-14 0 -18 21q-10 49 -114.5 271t-123.5 222
q-6 0 -10 -166t-4 -259q0 -44 12 -71q-24 -14 -43 -14q-17 0 -28 14q24 42 24 555q0 29 -16 109v3q0 8 12 8q8 0 20.5 -2.5t21.5 -5.5l9 -3q7 -14 16 -28.5t10 -16.5q184 -353 243 -485q44 69 135 252.5t113 242.5z" />
    <glyph glyph-name="N" unicode="N" horiz-adv-x="656" 
d="M97 539q-11 0 -11 -63q0 -25 -1 -92t-1 -119t1 -112t4.5 -100t10.5 -53q-14 -14 -30 -14q-23 0 -33 14q16 316 -10 664q12 8 19 8t26 -6.5t22 -11.5q26 -39 226 -256t248 -258q3 0 5 8t3 25.5l2 35t1 46v48.5v53.5v50.5q0 219 -7 257q8 12 24 12q6 0 13.5 -3t12.5 -6
l5 -3v-14q0 -17 -5.5 -299.5t1.5 -311.5q0 -3 2 -14t2 -17t-4 -10.5t-10 -4.5q-16 0 -37 32q-7 12 -18 25.5t-18 21.5t-22 23t-20 21q-387 423 -401 423z" />
    <glyph glyph-name="O" unicode="O" horiz-adv-x="761" 
d="M726 333q0 -152 -101 -248.5t-253 -96.5q-140 0 -238.5 101.5t-98.5 241.5q0 142 99.5 244.5t241.5 102.5t246 -101.5t104 -243.5zM651 299q0 61 -21 122t-57.5 110.5t-92 80.5t-119.5 31q-117 0 -181.5 -81.5t-64.5 -201.5q0 -83 35 -159.5t103 -127t153 -50.5
q114 0 179.5 80t65.5 196z" />
    <glyph glyph-name="P" unicode="P" horiz-adv-x="487" 
d="M68 583q-1 20 -6 44.5t-5 29.5q0 11 10 15t38 4q25 0 71.5 1t71.5 1q83 0 146.5 -46t63.5 -126q0 -76 -55 -128.5t-131 -52.5q-28 0 -73 13t-45 33q0 12 14 12q9 0 36 -11.5t49 -11.5q56 0 91.5 40t35.5 97q0 63 -49 104.5t-113 41.5q-49 0 -63 -16t-14 -55v-507
q0 -46 6 -65q-22 -13 -47 -13q-22 0 -36 13q13 80 13 346q0 186 -9 237z" />
    <glyph glyph-name="Q" unicode="Q" horiz-adv-x="759" 
d="M263 6q-102 33 -166 125t-64 200q0 141 100 244t241 103q142 0 246 -101.5t104 -243.5q0 -152 -103 -248.5t-255 -96.5q23 -12 75 -48.5t95.5 -58t83.5 -21.5q18 0 39 7.5t35 15t16 7.5q3 0 6 -4t3 -7q0 -31 -47.5 -50t-84.5 -19q-52 0 -103 26t-84 57t-69.5 57t-62.5 26
q-4 0 -11 -1.5t-11 -1.5q-8 0 -8 9q0 16 25 24zM649 299q0 61 -21 122t-57.5 110.5t-92 80.5t-119.5 31q-117 0 -181.5 -81.5t-64.5 -201.5q0 -83 35 -159.5t103 -127t153 -50.5q114 0 179.5 80t65.5 196z" />
    <glyph glyph-name="R" unicode="R" horiz-adv-x="587" 
d="M133 585v-168q0 -372 9 -411v-2l1 -2q0 -16 -27 -16q-61 0 -61 20q0 4 1 6q19 69 19 268q0 218 -15 302q0 23 -6.5 48t-6.5 29q0 10 10.5 13.5t41.5 3.5q30 0 90 0.5t90 0.5q87 0 144.5 -46.5t57.5 -134.5q0 -57 -54 -104t-118 -66q36 -99 98 -191.5t138 -137.5
q9 -5 9 -10q0 -12 -20 -12q-31 0 -60.5 13t-51.5 30.5t-45.5 49t-37.5 54.5t-32.5 63t-25.5 57t-21 53q-9 25 -12 27q-1 1 -26 7.5t-48.5 18.5t-23.5 28q0 11 11 11q10 0 33 -12.5t27 -13.5q49 -9 51 -9q54 0 94 36t40 105q0 66 -53.5 108.5t-120.5 42.5q-26 0 -38 -1
t-29 -6t-24.5 -18t-7.5 -34z" />
    <glyph glyph-name="S" unicode="S" horiz-adv-x="489" 
d="M463 189q0 -88 -69 -144.5t-159 -56.5q-13 0 -28.5 3t-26.5 6t-30 10.5t-26 10.5t-29 13.5t-25 11.5q-13 8 -21 26t-8 35q0 22 13 22q5 0 10 -4q27 -32 81 -61t95 -29q60 0 106 34t46 91q0 44 -25 77t-62 51t-81 39.5t-81 41.5t-62 56.5t-25 85.5q0 73 58 121.5t133 48.5
q80 0 158 -26q27 -9 27 -40q0 -23 -18 -23q-13 0 -29 15q-46 43 -128 43q-51 0 -91 -31.5t-40 -80.5q0 -41 25 -72.5t62.5 -49.5t81 -39t81 -41.5t62.5 -57.5t25 -86z" />
    <glyph glyph-name="T" unicode="T" horiz-adv-x="570" 
d="M539 673q25 -17 25 -34q0 -15 -20 -24q-46 15 -146 15h-7q-21 0 -30 -1t-19 -5.5t-13.5 -15.5t-3.5 -30q0 -76 -0.5 -263t-0.5 -263q0 -28 4 -47q0 -6 -12 -11t-23 -5q-41 0 -41 14l4 74q3 74 3 130q0 63 -1.5 174t-1.5 178q0 50 -15 60.5t-68 10.5q-69 0 -143 -12
q-20 6 -20 20t20 34q54 -7 408 -7q70 0 101 8z" />
    <glyph glyph-name="U" unicode="U" horiz-adv-x="613" 
d="M40 604q0 16 -4 50q-1 11 13 15.5t30 4.5q8 0 14.5 -1t13 -5.5t5.5 -12.5q-5 -33 -5 -44v-321q0 -108 56 -178.5t164 -70.5q107 0 159.5 67.5t52.5 175.5q0 324 -10 369q-3 13 6.5 18.5t18.5 5.5q11 0 17.5 -7t5.5 -17q-5 -74 -5 -370q0 -129 -64 -212t-191 -83
q-80 0 -135.5 26t-85.5 74.5t-43 107t-13 134.5v274z" />
    <glyph glyph-name="V" unicode="V" horiz-adv-x="619" 
d="M417 312q29 71 69.5 190.5t42.5 159.5q5 12 28 12q26 0 26 -10q0 -2 -1 -3q-7 -15 -109.5 -287t-121.5 -325q-1 -4 -4.5 -18.5t-6.5 -22.5t-10.5 -16t-18.5 -8q-6 0 -16 25t-20.5 58t-12.5 38q-104 271 -187 472q-20 49 -34 71q-2 3 -2 7q0 9 11 14t20 5q53 0 58 -24
q11 -48 44.5 -144t62 -168.5t30.5 -72.5q2 -5 20 -48t31.5 -72t17.5 -29q5 0 9 11z" />
    <glyph glyph-name="W" unicode="W" horiz-adv-x="875" 
d="M407 519q0 19 13 30.5t29 11.5q13 0 21.5 -8t8.5 -23q0 -17 9 -54t17.5 -66t24.5 -79t18 -57l42 -128q3 -9 7 -9q2 0 44.5 108.5t85.5 236t43 167.5q0 25 38 25q30 0 30 -12q0 -4 -13 -30q-18 -41 -68 -173q-154 -400 -154 -453q0 -10 -9 -16t-19 -6q-12 0 -15 27
q-6 46 -128 412q-4 15 -9 15q-4 0 -10 -19q-25 -68 -70 -198.5t-52 -151.5q-2 -6 -7.5 -32t-14.5 -38.5t-26 -12.5q-7 0 -40.5 111t-83 285t-67.5 234q-1 3 -8.5 20t-7.5 24q0 6 10 10.5t20 4.5q54 0 54 -20q0 -21 8 -51l70 -251q7 -30 24 -81.5t31.5 -90.5t16.5 -39t4.5 3
t4 6t3 7.5t2.5 5.5q25 59 74 195.5t49 159.5z" />
    <glyph glyph-name="X" unicode="X" horiz-adv-x="643" 
d="M523 62q34 -45 46 -58q7 -7 -8 -11t-31 -4q-48 0 -55 15q-1 2 -3.5 8t-6 12t-7.5 14q-22 38 -66 102t-77 108l-33 45q-149 -197 -194 -273q-9 -17 -11 -21q-4 -10 -42 -10q-42 0 -41 8l2 2q20 16 35 31q21 22 125.5 155.5t104.5 142.5q0 5 -106.5 151t-132.5 176
q-9 10 16 17q11 3 22 3q55 0 57 -15q3 -23 80.5 -135.5t103.5 -141.5l80 104q102 131 115 176q2 11 36 11q31 0 29 -9l-1 -2q-34 -38 -74 -88.5t-96.5 -127.5t-68.5 -93q186 -270 202 -292z" />
    <glyph glyph-name="Y" unicode="Y" horiz-adv-x="540" 
d="M431 615q7 13 12.5 32t11.5 23t25 4q30 0 30 -9q0 -1 -1 -2q-25 -31 -57.5 -88.5t-77.5 -145t-53 -101.5q-16 -30 -16 -85q0 -147 9 -210q1 -4 4 -15t3 -17q0 -12 -44 -12q-51 0 -51 12q0 1 5 25t5 45v122q-1 77 -10 117.5t-47 107.5q-2 3 -22.5 45.5t-47.5 90.5t-51 81
q-3 4 -8.5 10.5t-9 10.5t-3.5 7q0 11 53 11h8h8.5h7.5t7 -1t6 -2t6 -2.5t4 -4t3.5 -6t1.5 -7.5q2 -15 19 -48q10 -18 36 -68.5t50.5 -95.5t47.5 -83q18 30 43 78t54.5 105.5t38.5 75.5z" />
    <glyph glyph-name="Z" unicode="Z" horiz-adv-x="641" 
d="M150 41l6 -4q23 -5 70 -5q201 0 262 28q35 11 82 40l4 2q14 0 14 -39q0 -29 -11 -49t-33 -20q-76 9 -189 9q-54 0 -147 -2.5t-145 -2.5q-36 0 -36 18q0 4 9 11q24 18 67 78q62 87 188 258t189 260q0 11 -84 11q-75 0 -125.5 -4.5t-97.5 -13t-75 -11.5q-17 -2 -26 6.5
t-10 16t-1 19.5q0 21 20 21q60 0 200 -5q58 0 163 4t140 4q8 0 13 -6t5 -14q0 -2 -28 -30q-63 -63 -242 -309t-182 -271z" />
    <glyph glyph-name="bracketleft" unicode="[" horiz-adv-x="278" 
d="M111 601v-745q0 -13 2 -19.5t9 -10t11.5 -4t19.5 -1.5q97 -7 97 -43q0 -5 -9 -5q-7 0 -20 1.5t-20 1.5q-13 0 -156 -11q14 88 14 187v3q0 25 1 74t1 71q0 95 -26 143q1 6 6 17.5t6 14.5q11 35 11 138q0 23 -0.5 47.5t-1 40t-0.5 16.5q0 97 -15 159q2 1 5 1q7 0 19.5 -2.5
t17.5 -2.5q26 -3 78 -3q13 0 38 2.5t37 2.5t12 -6q0 -25 -34 -33t-68.5 -12.5t-34.5 -21.5z" />
    <glyph glyph-name="backslash" unicode="\" horiz-adv-x="488" 
d="M461 1q0 -13 -20 -13q-10 0 -16 2.5t-9.5 7t-8.5 13.5t-49.5 84.5t-97.5 165t-107 182t-90 156.5t-36 69q0 10 17 10q15 0 21 -3.5t14 -16.5l372 -638q10 -13 10 -19z" />
    <glyph glyph-name="bracketright" unicode="]" horiz-adv-x="278" 
d="M222 548v-34q0 -1 -1 -24t-1 -50.5v-60t3 -62t8 -45.5q1 -3 6 -14.5t6 -17.5q-23 -45 -23 -122q0 -19 -0.5 -57.5t-0.5 -72t1 -62.5q1 -91 13 -164q-6 0 -12.5 1t-15 2.5t-13.5 2.5q-38 5 -115 5q-7 0 -20 -1.5t-20 -1.5q-9 0 -9 5q0 36 97 43q15 1 19.5 1.5t11.5 4t9 10
t2 19.5v745q0 17 -34.5 21.5t-68.5 12.5t-34 33q0 6 12 6t37 -2.5t38 -2.5q52 0 78 3q4 0 15.5 2t17.5 3q-6 -58 -6 -126z" />
    <glyph glyph-name="asciicircum" unicode="^" horiz-adv-x="514" 
d="M483 484q0 13 -195 179q-13 11 -23 11t-24 -11l-197 -175q0 -20 14 -20q11 0 27 13l152 106l147 -99q17 -12 26.5 -14.5t26.5 -1.5q46 0 46 12z" />
    <glyph glyph-name="underscore" unicode="_" horiz-adv-x="657" 
d="M0 -4q-21 0 -21 20t21 20h660q21 0 21 -20t-21 -20h-660z" />
    <glyph glyph-name="grave" unicode="`" horiz-adv-x="224" 
d="M50 598q6 0 38 -18t61 -36l29 -19q2 -1 5 -3t7.5 -6.5t3.5 -7.5t-3.5 -6.5t-4.5 -5.5l-3 -1q-112 44 -136 54q-1 0 -5 2l-6 3t-4 3.5t-2 5.5q0 6 7.5 20.5t12.5 14.5z" />
    <glyph glyph-name="a" unicode="a" horiz-adv-x="411" 
d="M161 409q-11 0 -40 -11.5t-41 -11.5q-22 0 -22 18q0 46 196 46q111 0 111 -143v-182q0 -80 9 -124v-2q0 -9 -32 -9q-26 0 -35 9t-13 38q-40 -29 -72.5 -38t-88.5 -9q-38 0 -68.5 38t-30.5 84q0 43 13 74t33.5 48.5t53.5 27.5t63.5 12.5t73.5 2.5q5 0 10 -4.5t5 -10.5
q0 -17 -11 -17q-7 0 -22.5 2.5t-22.5 2.5q-53 0 -88 -29.5t-35 -87.5q0 -44 31.5 -71.5t65.5 -27.5q94 0 94 130q0 5 -0.5 14t-1 34t-0.5 60q0 32 -3.5 52.5t-16 42t-41.5 32t-74 10.5z" />
    <glyph glyph-name="b" unicode="b" horiz-adv-x="486" 
d="M39 732q-1 10 9 16t22 6q19 -1 29 -5.5t9 -14.5q-4 -57 -4 -316q0 -7 5 -10q4 2 21.5 11t22 10.5t18.5 7.5t22.5 7.5t21.5 3.5t26 2q88 0 152 -64.5t64 -152.5q0 -99 -72.5 -171t-171.5 -72t-119 1q-22 1 -32.5 8.5t-15.5 32t-4 73.5q7 377 -3 627zM107 151q0 -54 10 -75
q22 -48 122 -48q69 0 107 55t38 127q0 73 -51.5 136.5t-123.5 63.5q-45 0 -73.5 -24t-28.5 -67v-168z" />
    <glyph glyph-name="c" unicode="c" horiz-adv-x="437" 
d="M101 232q0 -76 51 -133t125 -57q38 0 64.5 9t37.5 17.5t12 8.5q15 0 10 -13q-7 -33 -48 -53.5t-98 -20.5q-92 0 -156.5 62.5t-64.5 153.5q0 99 77.5 171.5t177.5 72.5q21 0 41 -3.5t38 -16.5t18 -34q0 -14 -11 -25t-25 -11q-15 0 -31 8q-3 15 -23 25.5t-47 10.5h-18
q-57 0 -93.5 -56t-36.5 -116z" />
    <glyph glyph-name="d" unicode="d" horiz-adv-x="483" 
d="M445 11q0 -2 0.5 -6t0.5 -5q0 -12 -30 -12q-34 0 -34 11q0 10 0.5 23t0.5 14q0 7 -5 7q-1 0 -9 -5.5t-21.5 -13.5t-29.5 -15.5t-36 -13t-37 -5.5q-89 0 -152.5 61t-63.5 150q0 104 69 176.5t172 72.5q45 0 104 -26q4 2 4 6v222q0 59 -7 84q0 19 40 19q29 0 29 -10v-97
q0 -57 2.5 -331t2.5 -306zM263 416q-78 0 -122.5 -53t-44.5 -132q0 -74 55.5 -128.5t129.5 -54.5q42 0 69.5 19t27.5 59v215q0 35 -38 55t-77 20z" />
    <glyph glyph-name="e" unicode="e" horiz-adv-x="464" 
d="M332 254q-156 -17 -190 -23q-24 -4 -31.5 -11t-7.5 -30q0 -64 48.5 -104.5t115.5 -40.5q34 0 61 8.5t40 19t23.5 19t14.5 8.5q6 0 10 -4t3 -10q-7 -34 -69 -65t-110 -31q-83 0 -144.5 65t-61.5 148q0 97 64.5 172t159.5 75q65 0 115.5 -40.5t50.5 -104.5q0 -10 -2.5 -18
t-8.5 -13t-11 -8.5t-16 -5.5l-16.5 -3t-19.5 -2t-18 -1zM349 318q0 40 -34.5 67t-75.5 27q-44 0 -86 -46.5t-41 -95.5q0 -11 31 -7q114 12 170 20q36 4 36 35z" />
    <glyph glyph-name="f" unicode="f" horiz-adv-x="237" 
d="M167 394v-22q0 -5 -0.5 -52.5t-0.5 -90.5t0.5 -94t3 -87t6.5 -47q1 -3 0 -5t-3.5 -3l-5 -2t-7 -1h-7h-7h-5.5h-14.5t-14 1t-12.5 3.5t-3 6.5q6 30 6 44q0 157 0.5 236.5t0.5 115.5q-39 -3 -59 -6q-3 0 -5 1t-3 3.5l-2 5t-1 5.5q-3 21 7 22q61 5 61 19q7 144 36 213
q12 31 34 53t50 22q19 0 40 -11.5t21 -27.5q0 -12 -11.5 -22t-23.5 -10q-13 0 -23.5 12.5t-15.5 12.5q-48 0 -41 -234q0 -9 6 -12t14.5 -1t18.5 4t18.5 3.5t14.5 -2.5t7 -15q3 -21 -7 -23l-67 -7q-6 0 -6 -8z" />
    <glyph glyph-name="g" unicode="g" horiz-adv-x="525" 
d="M401 420q22 0 50.5 11.5t36.5 11.5q16 0 16 -25q0 -16 -11 -29t-34 -13h-51q-3 -3 -3 -7q0 -1 5 -13q14 -29 14 -74q0 -53 -45 -100q-21 -22 -46.5 -33.5t-42 -13.5t-54.5 -4q-10 -1 -37 -21.5t-27 -29.5q0 -16 33 -23t79.5 -12t93 -14.5t79.5 -38t33 -74.5
q0 -40 -23.5 -71t-60.5 -48.5t-76 -26.5t-75 -9q-35 0 -68 4.5t-70 15.5t-59.5 36.5t-22.5 62.5q0 47 28 76t73 29q15 0 15 -9q0 -8 -12 -16q-40 -28 -40 -69q0 -49 58 -75t114 -26q53 0 101.5 27.5t48.5 76.5q0 68 -119 83q-4 1 -27 3.5t-37 4.5t-37.5 6.5t-39 11.5
t-31.5 16t-24 22.5t-8 30.5q0 14 12.5 23t28 11.5t28 9t12.5 16.5q0 4 -12 10q-43 21 -68 57.5t-25 82.5q0 70 51.5 118t122.5 48q29 0 79 -15t74 -15zM352 281q0 52 -29 96t-78 44q-47 0 -72.5 -39.5t-25.5 -88.5t30.5 -92t78.5 -43q45 0 70.5 38t25.5 85z" />
    <glyph glyph-name="h" unicode="h" horiz-adv-x="450" 
d="M39 728v5q0 22 30 22q15 0 27.5 -4t12.5 -10q0 -263 2 -347q68 56 135 56q77 0 120 -51t43 -129v-207q0 -43 10 -64q-1 -10 -36 -10q-43 0 -45 11q7 19 7 46v204q0 67 -30.5 111t-94.5 44q-37 0 -73.5 -23t-36.5 -58v-182q0 -53 1.5 -85t3 -43.5t1.5 -14.5q0 -10 -31 -10
q-44 0 -44 8q0 7 2.5 23t2.5 24v369v88q0 169 -7 227z" />
    <glyph glyph-name="i" unicode="i" horiz-adv-x="172" 
d="M59 1q3 13 3 35v357q0 27 -11 49q-2 3 1.5 5.5t9.5 3.5t11 1.5t9 0.5h8.5h9h8t7.5 -1t5.5 -2.5t4 -4t1.5 -5.5v-56v-2q-7 -333 4 -382q1 -7 -7.5 -9t-24.5 -2q-8 0 -14 0.5t-12.5 1.5t-10 3.5t-2.5 6.5zM95 624q14 4 25 -6t13 -26q3 -18 -16 -30.5t-36 -14.5
q-6 -1 -9.5 0.5t-5 3.5t-3.5 6l-3 6q-2 3 -7 4t-11 0.5t-7 -0.5q-9 4 -1 16q4 6 24.5 21t36.5 20z" />
    <glyph glyph-name="j" unicode="j" horiz-adv-x="195" 
d="M-8 -217q-17 0 -31 7t-14 23q0 12 9.5 22.5t20.5 10.5q7 0 20 -6.5t20 -6.5q19 -1 32.5 12t20 28.5t10 42.5t4 41t0.5 37v5v413q0 15 -1 26t15.5 14.5t33 -0.5t16.5 -10v-23q-1 -47 0 -176.5t1 -148.5v-30v-27t-0.5 -20.5t-1 -20.5t-1.5 -17.5t-2.5 -20t-4 -18
t-5.5 -22.5q-17 -58 -60.5 -96.5t-81.5 -38.5zM118 624q14 4 24.5 -6t13.5 -26q3 -18 -16.5 -30.5t-36.5 -14.5q-6 -1 -9.5 0.5t-5 3.5t-3.5 6l-3 6q-2 3 -6.5 4t-10.5 0.5t-7 -0.5q-9 4 -1 16q3 6 23.5 21t37.5 20z" />
    <glyph glyph-name="k" unicode="k" horiz-adv-x="463" 
d="M42 634q0 13 -2.5 50.5t-2.5 54.5q0 15 37 15q32 0 32 -13v-37q0 -5 -1 -171.5t-1 -186.5q0 -18 0.5 -50.5t0.5 -46.5q21 20 48 44q15 14 61 47.5t79.5 60t33.5 36.5v5q0 11 57 11q24 0 24 -11q0 -2 -46 -32.5t-102 -70t-74 -59.5q0 -4 47 -59.5t107 -121t90 -92.5
q3 -3 3 -5q0 -13 -47 -13q-42 0 -47 15q-5 13 -89 105q-10 12 -49 58.5t-63 70.5q-33 -23 -33 -146q0 -25 1 -55t1 -37q0 -4 -5.5 -7t-11.5 -3l-6 -1q-43 0 -43 12q0 4 1 13.5t1 16.5z" />
    <glyph glyph-name="l" unicode="l" horiz-adv-x="149" 
d="M106 80l5 -82v-1q0 -7 -37 -7q-35 0 -35 7q0 2 3 20.5t3 28.5l3 635q0 25 -13 55q-2 2 -2 6q0 12 31 12q43 0 43 -17q0 -106 -0.5 -339.5t-0.5 -317.5z" />
    <glyph glyph-name="m" unicode="m" horiz-adv-x="691" 
d="M49 320q0 46 -12 97v3q0 12 20 22t37 10q16 0 16 -9v-38q0 -12 8 -12q1 0 19 14.5t46 28.5t52 14q34 0 66 -19t49 -48q1 -1 2 -3t1.5 -3.5t2 -3t3.5 -2.5t4 -1q1 0 21 20t52.5 40t65.5 20q57 0 90 -35.5t42.5 -93t10.5 -115.5t0.5 -119.5t6.5 -87.5q0 -4 -11 -6.5
t-22 -2.5h-11q-33 0 -33 9q10 35 10 98q0 12 -1 47t-1 58q0 39 -4 69t-15 61t-34.5 48t-59.5 17q-24 0 -59.5 -24t-35.5 -47q0 -6 -0.5 -53.5t-0.5 -81.5q0 -166 10 -192q0 -1 0.5 -1t0.5 -1q0 -8 -37 -8q-39 0 -39 9q0 3 4 48t4 105q0 163 -19 195q-14 24 -40 38t-55 14
q-58 0 -75.5 -36.5t-17.5 -121.5q0 -233 6 -241l1 -2q0 -8 -35 -8q-10 0 -23.5 3t-13.5 6q0 4 2.5 23t2.5 34q0 34 -0.5 132t-0.5 133z" />
    <glyph glyph-name="n" unicode="n" horiz-adv-x="454" 
d="M52 316q0 61 -17 101q-1 2 -1 6q0 12 19 21t38 9q20 0 21 -11l5 -38q0 -5 4 -5q2 0 21.5 12.5t52 25.5t64.5 13q36 0 63.5 -10.5t44 -31.5t27 -43t15 -55.5t5.5 -56.5t1 -59q0 -4 -0.5 -32.5t-0.5 -67.5q0 -66 4 -90q0 -15 -31 -15q-33 0 -39 14q4 26 4 43v202
q0 67 -29.5 112.5t-94.5 45.5q-75 0 -94.5 -37t-19.5 -143q0 -199 6 -226q0 -11 -38 -11q-34 0 -34 10q0 4 2 16t2 21v280z" />
    <glyph glyph-name="o" unicode="o" horiz-adv-x="526" 
d="M491 216q0 -91 -65.5 -158.5t-155.5 -67.5q-99 0 -167 64t-68 162q0 96 65.5 165t161.5 69t162.5 -69t66.5 -165zM417 185q0 87 -46 160t-128 73q-68 0 -102 -49.5t-34 -120.5q0 -77 51 -151t125 -74q64 0 99 48t35 114z" />
    <glyph glyph-name="p" unicode="p" horiz-adv-x="491" 
d="M236 23q69 0 110 56t41 128q0 77 -51 140.5t-126 63.5q-29 0 -48.5 -8t-30 -19.5t-16 -36t-6.5 -45.5t-1 -61v-24.5v-28v-23.5q-2 -127 -1 -196t1 -107q0 -21 5 -50t5 -36q0 -25 -50 -25q-27 0 -27 8q0 3 2.5 16t2.5 23l-1 487q0 6 0.5 18t0.5 18q0 59 -9 98
q0 14 11.5 24.5t23.5 10.5q20 0 29.5 -6.5t9.5 -15t0.5 -15t5.5 -6.5q4 2 16.5 8.5t17 8.5t15.5 6.5t17.5 6.5t16.5 4.5t19 3.5t19 1q90 0 156.5 -65t66.5 -154q0 -99 -70.5 -168.5t-169.5 -69.5q-31 0 -72 22q-20 12 -17 40q1 17 11 17q5 0 12 -7q36 -42 81 -42z" />
    <glyph glyph-name="q" unicode="q" horiz-adv-x="497" 
d="M451 -229v-5t-1.5 -4t-5.5 -5t-11 -4q-51 0 -51 18q0 3 3 51t3 82q0 128 -8 129q-3 -2 -15 -8.5t-15.5 -8.5t-13.5 -7t-14.5 -6.5t-13.5 -5t-16 -4.5t-16 -2t-19 -1q-93 0 -157.5 64t-64.5 157q0 96 69 167.5t165 71.5q29 0 72 -14.5t59 -14.5q14 0 24 4.5t14 10.5
t8 10.5t7 4.5q10 0 10 -11v-3q-13 -74 -13 -124q0 -39 -1 -159.5t-1 -186.5q0 -113 3 -196zM387 117v164q0 62 -31.5 97t-93.5 35q-72 0 -114.5 -54t-42.5 -127q0 -77 57 -131t134 -54q38 0 64.5 17t26.5 53z" />
    <glyph glyph-name="r" unicode="r" horiz-adv-x="296" 
d="M117 135q0 -10 1.5 -44t3 -62.5t1.5 -26.5q0 -14 -45 -14q-31 0 -31 10q0 1 2.5 21t5 53t2.5 64q0 198 -22 280v4q0 13 19 23t38 10q22 0 22 -15l1 -48q0 -6 4 -6q2 0 16 16.5t38.5 33t52.5 16.5q22 0 40.5 -13t18.5 -34q0 -17 -12.5 -28.5t-31.5 -11.5q-9 30 -48 30
q-77 0 -77 -205q0 -16 0.5 -34t0.5 -19z" />
    <glyph glyph-name="s" unicode="s" horiz-adv-x="417" 
d="M382 139q0 -63 -60.5 -107.5t-125.5 -44.5h-25q-133 0 -133 56q0 14 7 24t17 10q1 0 19 -9l-7 4q80 -51 130 -51q44 0 80.5 28t36.5 72q0 32 -28.5 50t-68.5 26.5t-80.5 18.5t-69 36t-28.5 69q0 61 49 95t112 34q35 0 99 -15q2 -1 8.5 -2t10 -2t8.5 -3t7.5 -4.5t4.5 -6.5
t2 -10q0 -29 -22 -29q-6 0 -20.5 11t-40 22t-59.5 11q-39 0 -71.5 -19t-32.5 -55q0 -25 21 -41.5t52 -23.5t67.5 -17t67.5 -22t52 -39t21 -66z" />
    <glyph glyph-name="t" unicode="t" horiz-adv-x="324" 
d="M223 38q18 0 31.5 10.5t18.5 10.5q16 0 16 -14q0 -23 -31 -39t-67 -16q-26 0 -45 11t-29 26.5t-15.5 40t-7 43.5t-1.5 45q0 33 0.5 103.5t0.5 104.5q0 19 -5.5 27.5t-14 7.5t-17 -3t-15 0t-7.5 13t30 27q17 10 29 23.5t16.5 24t11.5 31.5t12 32q3 8 14 8q15 0 15 -10
q0 -15 -2 -42.5t-2 -44.5q0 -2 0.5 -3.5t2 -2.5t3.5 -1l85 9q6 1 9.5 -5t3.5 -12q3 -26 -11 -27q-1 0 -29 -2t-47 -5.5t-19 -9.5l-2 -191q0 -3 -0.5 -24t0 -31.5t2 -31t6 -32.5t12 -25.5t20 -19.5t28.5 -6z" />
    <glyph glyph-name="u" unicode="u" horiz-adv-x="454" 
d="M408 127q0 -57 9 -107v-3q0 -11 -12 -18.5t-27 -7.5q-18 0 -24.5 14.5t-7 29.5t-3.5 15h-2q-1 0 -9 -5.5t-21 -13.5t-29.5 -15.5t-37 -13t-38.5 -5.5q-79 0 -122 55.5t-43 136.5q0 220 -5 248q-3 17 35 17q15 0 27 -5.5t11 -14.5q-5 -58 -5 -90q0 -8 -0.5 -38.5t-0.5 -48
t2 -48.5t6.5 -50.5t14 -44t23 -38.5t34.5 -24t48 -10q33 0 73.5 22.5t40.5 52.5q0 29 -1 116t-1 115v41q0 7 -2 20.5t-2 25.5q0 8 12.5 13t27.5 5q28 0 28 -14q0 -7 -0.5 -17t-0.5 -14q0 -207 2 -281z" />
    <glyph glyph-name="v" unicode="v" horiz-adv-x="492" 
d="M388 426q4 15 11.5 21.5t27.5 6.5q25 0 25 -13q0 -6 -8 -14q-34 -37 -178 -409q-12 -32 -34 -32q-9 0 -14 12q-19 51 -93 238.5t-81 198.5q-1 2 -1 5q0 13 32 13q38 0 44 -19q19 -65 53.5 -151t59.5 -140l25 -54q4 0 20 40q2 5 19.5 42.5t33 73t33 87t25.5 94.5z" />
    <glyph glyph-name="w" unicode="w" horiz-adv-x="628" 
d="M208 -10q-8 0 -12 13q-28 104 -146 405q-15 33 -15 35q0 11 28 11q43 0 49 -21q9 -35 41.5 -125.5t44.5 -120.5q0 -1 9 -23.5t16.5 -38.5t11.5 -16q3 0 6 5q8 18 28 81t38.5 101t37.5 38q9 0 16.5 -8t12.5 -22.5t8.5 -27.5t8 -32t6.5 -27q7 -24 18 -58t17 -59
q15 36 33 89q2 6 27.5 72.5t39.5 110t16 69.5q1 13 28 13q15 0 18.5 -4t3.5 -17q-20 -36 -76.5 -204t-77.5 -218q-9 -21 -28 -21q-5 0 -10.5 13.5t-11 34t-5.5 21.5l-16 55q-16 54 -29 95t-16 41q-5 -1 -43 -102.5t-48 -133.5q-6 -24 -29 -24z" />
    <glyph glyph-name="x" unicode="x" horiz-adv-x="518" 
d="M371 139q61 -82 102 -130q3 -3 3 -6q0 -12 -35 -12q-53 0 -67 23q-27 45 -70 108t-51 67q-6 1 -65.5 -79t-69.5 -102q-8 -17 -51 -17q-28 0 -28 7q0 2 3 5q30 25 77 77.5t80 94.5t33 46l-2 4q-19 30 -71 98t-92 111q-3 3 -3 6q0 12 36 12q51 0 63 -22q15 -26 41 -64
t46.5 -64t23.5 -28q10 6 57 66t67 96q10 18 52 18q28 0 28 -9q0 -2 -3 -5q-45 -45 -107.5 -114t-72.5 -83q0 -3 76 -104z" />
    <glyph glyph-name="y" unicode="y" horiz-adv-x="543" 
d="M323 116q1 3 22 47t33.5 73t31 72t29 76t12.5 53q1 16 37 16q24 0 24 -9q0 -2 -1 -3q-29 -50 -30 -53l-84 -186q-7 -15 -30.5 -68.5t-42.5 -95.5t-49.5 -98t-58.5 -93.5t-62.5 -64.5t-67.5 -27q-20 0 -36 9.5t-16 28.5q0 10 4.5 14t9.5 4t14.5 -2t15.5 -2q45 0 80 26
t68 82.5t33 86.5q0 52 -161 422l-4 7q-3 7 -3 10q0 13 32 13q43 0 49 -21q14 -51 48.5 -134.5t61.5 -142.5l28 -58q6 0 13 18z" />
    <glyph glyph-name="z" unicode="z" horiz-adv-x="452" 
d="M297 394q0 13 -66 13q-87 0 -158 -15q-18 0 -18 19q0 13 6 24t12 11q53 -9 138 -9q65 0 117.5 5t77.5 5q4 0 8 -4.5t4 -9.5q0 -1 -9.5 -12.5t-21 -25t-13.5 -16.5l-45 -60q-171 -253 -171 -277q0 -11 85 -11q116 0 160 22q1 1 4 1q11 0 11 -25q0 -5 -8.5 -18t-13.5 -13
q-94 4 -127 4q-117 0 -225 -10q-10 3 -10 14q0 4 7 11q30 32 63.5 76.5t55.5 78t56.5 88.5t49.5 78q2 3 8.5 12t10.5 15.5t8 14.5t4 14z" />
    <glyph glyph-name="braceleft" unicode="{" horiz-adv-x="356" 
d="M23 331q-9 -6 -9 -10t9 -4q50 -2 77 -18t27 -61q0 -34 -2.5 -103t-2.5 -103q0 -40 9.5 -66.5t23.5 -40.5t40 -21t49 -8.5t60 -2.5h16q17 4 17 9q0 3 -4.5 6t-8.5 4l-4 2q-70 1 -104 23t-34 88v183q0 99 -73 115v3q72 17 72 98l1 172q0 66 33.5 87t104.5 23q15 5 15 10
q0 3 -3.5 6t-7.5 4l-4 1q-103 -1 -133 -12q-52 -20 -61 -97q-3 -22 -3 -50q0 -20 1.5 -60.5t1.5 -61.5q0 -67 -18.5 -89t-84.5 -26z" />
    <glyph glyph-name="bar" unicode="|" horiz-adv-x="135" 
d="M50 764h48v-1021h-48v1021z" />
    <glyph glyph-name="braceright" unicode="}" horiz-adv-x="356" 
d="M327 331q9 -6 9 -10t-9 -4q-50 -2 -77 -18t-27 -61q0 -34 2.5 -103t2.5 -103q0 -40 -9.5 -66.5t-23.5 -40.5t-40 -21t-49 -8.5t-60 -2.5h-16q-17 4 -17 9q0 3 4.5 6t8.5 4l4 2q70 1 104 23t34 88v183q0 99 73 115v3q-72 17 -72 98l-1 172q0 66 -33.5 87t-104.5 23
q-15 5 -15 10q0 3 3.5 6t7.5 4l4 1q103 -1 133 -12q52 -20 61 -97q3 -22 3 -50q0 -20 -1.5 -60.5t-1.5 -61.5q0 -67 18.5 -89t84.5 -26z" />
    <glyph glyph-name="asciitilde" unicode="~" horiz-adv-x="500" 
d="M76 372q0 10 21 28q54 50 107 50q36 0 98 -20.5t91 -20.5q31 0 64.5 17.5t35.5 17.5q13 0 13 -7q0 -10 -34 -36q-49 -37 -95 -37q-35 0 -95 19.5t-90 19.5q-22 0 -44.5 -10t-37 -20t-15.5 -10q-19 0 -19 9z" />
    <glyph glyph-name="nbspace" unicode="&#xa0;" horiz-adv-x="251" 
 />
    <glyph glyph-name="exclamdown" unicode="&#xa1;" horiz-adv-x="181" 
d="M97 142q0 22 2.5 64t2.5 64q0 17 -10 17q-21 0 -32.5 -105.5t-11.5 -167.5q0 -108 5 -184q1 -18 6 -26t20 -19q35 -26 52 -26q15 0 15 14q0 11 -2.5 24t-6.5 29.5t-6 24.5q-34 179 -34 291zM98 330q-17 5 -37.5 19.5t-24.5 20.5q-2 4 -2 9.5t4 6.5q14 3 25 18q0 1 4.5 15
t10 22.5t12.5 7.5q14 -2 31.5 -20.5t18.5 -39.5q0 -22 -14 -42.5t-28 -16.5z" />
    <glyph glyph-name="cent" unicode="&#xa2;" horiz-adv-x="454" 
d="M251 -102q0 -7 -7.5 -12.5t-14.5 -5.5q-6 0 -8.5 3t-2.5 6.5t0.5 9.5t0.5 8q0 13 -0.5 40t-0.5 41q0 6 -6 7q-79 18 -130 75t-51 137q0 64 32.5 117.5t88.5 87.5q8 5 59 28q5 2 5 7q1 8 1 74q0 29 22 29q5 0 7.5 -6.5t3 -16.5t0 -19.5t-1 -19.5t-0.5 -12q0 -12 1.5 -18.5
t6.5 -8.5t10 -2t15 1.5t18 1.5q31 0 56.5 -14t25.5 -43q0 -13 -12 -21.5t-25 -8.5q-14 0 -53.5 20.5t-68.5 20.5q-57 0 -90 -53.5t-33 -114.5q0 -77 51 -128t128 -51q34 0 65.5 16t50 32t19.5 16q11 0 11 -18q0 -36 -47.5 -67.5t-89.5 -39.5q-1 0 -6.5 -0.5t-10 -1
t-9.5 -1.5t-8 -3t-3 -5q0 -14 0.5 -43.5t0.5 -43.5z" />
    <glyph glyph-name="sterling" unicode="&#xa3;" horiz-adv-x="525" 
d="M63 293q-14 0 -20.5 10.5t-1 22t19.5 11.5l112 3l2 8q7 25 16.5 72t16.5 72.5t26.5 60.5t50.5 62q41 35 80 35q16 0 29 -7t13 -21q0 -19 -17.5 -30t-38.5 -11q-17 0 -37 11q-14 0 -25 -6.5t-18 -20t-11.5 -26.5t-7 -33.5t-3.5 -32t-2 -31t-1 -23.5q-1 -11 -5.5 -36.5
t-4.5 -39.5v-1l108 3q14 0 20.5 -10.5t1 -22t-19.5 -11.5l-119 -3v-7q-6 -61 -24 -109t-29 -63t-37 -48q12 3 49 1q23 -2 53 -12.5t54 -21t47 -17.5t38 -2t20 26q1 5 -6.5 18t4.5 27q1 1 2.5 3.5t6.5 7.5t11 7.5t14.5 1t17.5 -8.5q15 -32 11 -55.5t-23.5 -39.5t-40 -24.5
t-39.5 -10.5q-39 -7 -102 33t-101 40q-27 0 -40 -2q-50 -52 -68 -52h-1l-1 -1q-1 -1 -1 -2l-5 -5q0 4 3 8q0 1 1 1q-5 3 -5 9q0 4 4.5 15.5t6.5 13.5q51 38 69 74.5t34 122.5q1 6 7.5 31.5t6.5 38.5zM236 342q-2 4 -3 0h3z" />
    <glyph glyph-name="currency" unicode="&#xa4;" horiz-adv-x="526" 
d="M48 512q-11 11 -7 24.5t16.5 16.5t24.5 -7l51 -53q53 40 119 40q71 0 127 -46l58 59q11 11 24 7t16.5 -16t-6.5 -25l-59 -59q43 -57 43 -127q0 -63 -38 -117l47 -46q11 -11 6.5 -24.5t-16.5 -16.5t-24 7l-45 44q-54 -48 -126 -48q-77 0 -131 42l-44 -44q-11 -12 -24 -7.5
t-16.5 16.5t6.5 25l44 44q-43 53 -43 125q0 76 48 134zM389 298q0 78 -40.5 142.5t-113.5 64.5q-60 0 -90 -44t-30 -107q0 -69 45.5 -134.5t110.5 -65.5q56 0 87 42.5t31 101.5z" />
    <glyph glyph-name="yen" unicode="&#xa5;" horiz-adv-x="493" 
d="M379 226q9 0 36 4t38 4q21 0 21 -10q0 -18 -10.5 -29t-19.5 -13t-18 -2h-121q0 -86 9 -147q1 -4 4 -15t3 -17q0 -12 -44 -12q-51 0 -51 12q0 1 5 25t5 45v109h-94q-9 0 -33.5 -3.5t-33.5 -3.5q-14 0 -14 7q0 15 18 30.5t28 15.5h128q-2 50 -9 81h-85q-9 0 -33.5 -3.5
t-33.5 -3.5q-14 0 -14 7q0 15 18 30.5t28 15.5h105q-13 32 -32 65q-2 3 -22.5 45.5t-47.5 90.5t-51 81q-3 4 -8.5 10.5t-9 10.5t-3.5 7q0 11 53 11h8h8.5h7.5t7 -1t6 -2t6 -2.5t4 -4t3.5 -6t1.5 -7.5q2 -15 19 -48q10 -18 36 -68.5t50.5 -95.5t47.5 -83q18 30 43 78
t54.5 105.5t38.5 75.5q7 13 12.5 32t11.5 23t25 4q30 0 30 -9q0 -1 -1 -2q-14 -18 -31 -44.5t-39.5 -67.5t-34.5 -63.5t-39 -75t-31 -59.5h44q9 0 36 4t38 4q21 0 21 -10q0 -18 -10.5 -29t-19.5 -13t-18 -2h-114q-6 -18 -6 -64v-17h74z" />
    <glyph glyph-name="brokenbar" unicode="&#xa6;" horiz-adv-x="122" 
d="M80 333q0 -21 -20 -21t-20 21l-3 337q0 21 20 21t20 -21zM80 -168q0 -21 -20 -21t-20 21v320q0 21 20 21t20 -21v-320z" />
    <glyph glyph-name="section" unicode="&#xa7;" horiz-adv-x="766" 
d="M105 461q0 -2 -0.5 -98.5t-0.5 -133.5q0 -72 10.5 -108t30 -47t59.5 -11q41 0 156.5 1t160.5 1q77 0 97 10q29 15 35 81q3 38 3 219q0 59 -1 92t-5.5 62.5t-10 41.5t-19 21.5t-28.5 11t-43 1.5h-339q-64 0 -84.5 -25t-20.5 -119zM517 0h-278q-47 1 -75.5 4t-53 13.5
t-36.5 25.5t-20.5 44.5t-11 65.5t-2.5 93q0 54 -2 142q-6 73 0 123.5t10.5 80.5t31.5 46.5t62.5 21.5t103.5 5h274q48 0 77 -2.5t55 -9t37 -18t22 -31t11 -47t4 -65.5t0 -87v-66v-83t-2 -67t-4.5 -56t-8.5 -42t-12.5 -33.5t-19 -23t-26.5 -17.5t-35.5 -9.5t-44.5 -6.5
t-56 -1z" />
    <glyph glyph-name="dieresis" unicode="&#xa8;" horiz-adv-x="335" 
d="M95 613q14 4 27.5 -12.5t11.5 -33.5q-1 -15 -18 -26t-31 -13q-7 -1 -11.5 4.5t-7.5 13.5t-4 9q-8 12 -23 15q-3 0 -3 4t2 8q4 5 23 16t34 15zM258 613q14 4 27.5 -12.5t11.5 -33.5q-1 -15 -18 -26t-31 -13q-7 -1 -11.5 4.5t-7.5 13.5t-4 9q-8 12 -23 15q-4 0 -4 4t3 8
q3 5 22 16t35 15z" />
    <glyph glyph-name="copyright" unicode="&#xa9;" horiz-adv-x="456" 
d="M228 27v1q-80 0 -136.5 57t-56.5 137q0 79 57 135.5t137 56.5q79 0 135.5 -57t56.5 -137t-56.5 -136.5t-136.5 -56.5zM228 64v-1q64 0 110.5 46.5t46.5 110.5q0 65 -46 111.5t-110 46.5q-65 0 -111.5 -46t-46.5 -110q0 -65 46 -111.5t111 -46.5zM94 219q0 53 39 89.5
t93 36.5q37 0 84 -22q7 -10 7 -18q0 -6 -4.5 -13.5t-11.5 -7.5h-3q-12 12 -19.5 18t-23 11t-37.5 5q-38 0 -58.5 -29t-20.5 -70q0 -44 25.5 -71.5t68.5 -27.5q40 0 62 26q1 0 1 2q2 6 7 6q3 0 6.5 -7.5t3.5 -11.5l-1 -2q-5 -16 -27 -28t-53 -12q-58 0 -98 34.5t-40 91.5z
" />
    <glyph glyph-name="ordfeminine" unicode="&#xaa;" horiz-adv-x="326" 
d="M134 726q-9 0 -32 -7.5t-33 -7.5q-17 0 -17 12q0 31 157 31q89 0 89 -97v-124q0 -53 8 -84v-2q0 -6 -26 -6q-21 0 -28.5 6.5t-10.5 25.5q-32 -20 -58.5 -26t-70.5 -6q-31 0 -55.5 26t-24.5 57q0 30 10.5 51t27 32.5t43 18t51 8.5t59.5 2q12 0 12 -10q0 -11 -9 -11
q-6 0 -18 1.5t-18 1.5q-42 0 -70.5 -20t-28.5 -60q0 -30 25.5 -48.5t52.5 -18.5q75 0 75 89v7v11.5t-0.5 20.5t-0.5 34q0 22 -3 36t-13 28.5t-33 21.5t-60 7z" />
    <glyph glyph-name="guillemotleft" unicode="&#xab;" horiz-adv-x="378" 
d="M222 55l-4 -5q-7 0 -13 10q-10 15 -20 28t-17.5 22.5t-19 22t-17 18t-20 19t-19 17.5t-23 20.5t-23.5 21.5q-4 4 -4 7q0 2 4 6q91 68 153 162q9 13 16 13l4 -5q-1 -20 -40.5 -99.5t-39.5 -82.5q14 -23 48.5 -93.5t34.5 -81.5zM361 55l-4 -5q-7 0 -13 10q-10 15 -20 28
t-17.5 22.5t-19 22t-17 18t-20 19t-19 17.5t-23 20.5t-23.5 21.5q-4 4 -4 7q0 2 4 6q91 68 153 162q9 13 16 13l4 -5q-1 -20 -40.5 -99.5t-39.5 -82.5q14 -23 48.5 -93.5t34.5 -81.5z" />
    <glyph glyph-name="logicalnot" unicode="&#xac;" horiz-adv-x="526" 
d="M57 227q-14 0 -20 11t0 22t20 11h427q1 0 -1 -14.5t-4 -55t5 -113.5q1 -2 1 -6q0 -18 -12.5 -30.5t-29.5 -12.5t-29 12t-13 29h-1v147h-343z" />
    <glyph glyph-name="registered" unicode="&#xae;" horiz-adv-x="519" 
d="M260 304l-1 1q-93 0 -158.5 66.5t-65.5 159.5t66.5 158.5t159.5 65.5t158 -66.5t65 -159.5q0 -92 -66 -158.5t-158 -66.5zM260 342l1 -1q78 0 133 55.5t55 133.5t-54.5 134t-132.5 56t-134 -55t-56 -133t55 -134t133 -56zM188 632v-71q0 -154 4 -171q1 0 1 -3
q0 -10 -16 -10h-1q-29 0 -29 12q0 2 1 4l-1 -1q9 28 9 111q0 94 -7 127q0 13 -4 23q-2 8 -2 10q0 9 27 9q7 0 19.5 0.5t18.5 0.5h38q39 0 61.5 -20t22.5 -59q0 -25 -18 -43.5t-44 -28.5q40 -100 102 -135q6 -2 6 -7q0 -8 -13 -8q-31 0 -74 46q-34 33 -59 90q0 2 -2 4
q0 4 -2 8q-2 0 -6 1q-30 8 -30 22q0 8 8 8q4 0 18 -7q9 -3 10 -3h-1q5 -1 13 -1q23 0 38 13t15 40t-19.5 43.5t-46.5 16.5q-13 0 -19.5 -0.5t-12 -5.5t-5.5 -15z" />
    <glyph glyph-name="macron" unicode="&#xaf;" horiz-adv-x="308" 
d="M261 522h-214q-10 0 -10 11v23q0 11 10 11h214q10 0 10 -11v-23q0 -11 -10 -11z" />
    <glyph glyph-name="macron" unicode="&#x2c9;" horiz-adv-x="308" 
d="M261 522h-214q-10 0 -10 11v23q0 11 10 11h214q10 0 10 -11v-23q0 -11 -10 -11z" />
    <glyph glyph-name="degree" unicode="&#xb0;" horiz-adv-x="273" 
d="M136 549q-42 0 -71.5 29.5t-29.5 71.5t29.5 71.5t71.5 29.5t72 -29.5t30 -71.5t-30 -71.5t-72 -29.5zM70 648q0 -27 19 -46t46 -19t46 19t19 46t-19 46t-46 19t-46 -19t-19 -46z" />
    <glyph glyph-name="plusminus" unicode="&#xb1;" horiz-adv-x="509" 
d="M231 543q0 21 20 21t20 -21v-177h189q21 0 21 -20t-21 -20h-189v-170q0 -21 -20 -21t-20 21v170h-187q-21 0 -21 20t21 20h187v177zM44 53q-21 0 -21 20t21 20h419q21 0 21 -20t-21 -20h-419z" />
    <glyph glyph-name="twosuperior" unicode="&#xb2;" horiz-adv-x="259" 
d="M245 649q-1 -24 -20 -50t-36.5 -41.5t-50.5 -40.5q-68 -49 -68 -74q0 -5 46 -5q47 0 105 7q18 0 18 -16q0 -11 -8.5 -25.5t-12.5 -14.5l-24 3t-24 2q-21 4 -47 4q-22 0 -50 -2q-24 -2 -42 -2q-16 0 -16 23q0 29 16.5 55t31.5 38.5t48 36.5l10 7q24 17 36 27t24 28.5
t12 38.5v12q0 25 -18.5 44t-57.5 19q-27 0 -51 -22q-1 0 -4 -3q-9 -11 -19 -11q-15 0 -15 19q0 21 30.5 37t60.5 16q64 0 95 -31.5t31 -78.5z" />
    <glyph glyph-name="threesuperior" unicode="&#xb3;" horiz-adv-x="259" 
d="M27 461q6 8 17 8q8 0 8 -8q0 -15 18 -25.5t46 -10.5q31 0 53 25.5t22 56.5t-20 54.5t-51 23.5q-10 0 -17 -3q-17 13 -17 19q0 9 16 18q56 12 56 53q0 21 -14.5 34t-35.5 13q-16 0 -38 -20q-4 -4 -9 -4q-6 0 -12.5 4t-6.5 9q0 4 3 6v-1q14 20 38.5 33t46.5 13
q30 0 55 -20.5t25 -49.5q0 -19 -12 -40t-25 -31q31 -11 51 -38.5t20 -60.5q0 -48 -45 -88.5t-93 -40.5q-28 0 -60 13.5t-32 34.5q0 11 13 23z" />
    <glyph glyph-name="acute" unicode="&#xb4;" horiz-adv-x="224" 
d="M40 495l-10 11l15 19q121 74 128 74q4 0 12.5 -16t8.5 -21q0 -4 -18 -11z" />
    <glyph glyph-name="mu" unicode="&#xb5;" horiz-adv-x="449" 
d="M99 102v-1q0 -124 47 -217q10 -20 -5 -47.5t-37 -27.5q-10 0 -17 8t-10 16.5t-6.5 24t-5.5 20.5q-22 66 -22 157q0 21 -0.5 63t-0.5 63q27 -27 57 -51v-8zM408 127q0 -57 9 -107v-3q0 -11 -12 -18.5t-27 -7.5q-18 0 -24.5 14.5t-7 29.5t-3.5 15h-2q-1 0 -9 -5.5
t-21 -13.5t-29.5 -15.5t-37 -13t-38.5 -5.5q-79 0 -122 55.5t-43 136.5q0 220 -5 248q-3 17 35 17q15 0 27 -5.5t11 -14.5q-5 -58 -5 -90q0 -8 -0.5 -38.5t-0.5 -48t2 -48.5t6.5 -50.5t14 -44t23 -38.5t34.5 -24t48 -10q33 0 73.5 22.5t40.5 52.5q0 29 -1 116t-1 115v41
q0 7 -2 20.5t-2 25.5q0 8 12.5 13t27.5 5q28 0 28 -14q0 -7 -0.5 -17t-0.5 -14q0 -207 2 -281z" />
    <glyph glyph-name="mu" unicode="&#x3bc;" horiz-adv-x="449" 
d="M99 102v-1q0 -124 47 -217q10 -20 -5 -47.5t-37 -27.5q-10 0 -17 8t-10 16.5t-6.5 24t-5.5 20.5q-22 66 -22 157q0 21 -0.5 63t-0.5 63q27 -27 57 -51v-8zM408 127q0 -57 9 -107v-3q0 -11 -12 -18.5t-27 -7.5q-18 0 -24.5 14.5t-7 29.5t-3.5 15h-2q-1 0 -9 -5.5
t-21 -13.5t-29.5 -15.5t-37 -13t-38.5 -5.5q-79 0 -122 55.5t-43 136.5q0 220 -5 248q-3 17 35 17q15 0 27 -5.5t11 -14.5q-5 -58 -5 -90q0 -8 -0.5 -38.5t-0.5 -48t2 -48.5t6.5 -50.5t14 -44t23 -38.5t34.5 -24t48 -10q33 0 73.5 22.5t40.5 52.5q0 29 -1 116t-1 115v41
q0 7 -2 20.5t-2 25.5q0 8 12.5 13t27.5 5q28 0 28 -14q0 -7 -0.5 -17t-0.5 -14q0 -207 2 -281z" />
    <glyph glyph-name="paragraph" unicode="&#xb6;" horiz-adv-x="486" 
d="M278 371l-1 -598q0 -13 -28 -13q-35 0 -35 17v333q0 9 -19 19t-45.5 23t-53.5 32.5t-46 56.5t-19 86q0 51 23.5 91t59.5 63.5t83.5 38.5t90 20t85.5 5q39 0 51.5 -5t12.5 -19q0 -5 -3.5 -30.5t-3.5 -47.5v-666q0 -14 -30 -14q-28 0 -28 14l-1 661q1 3 1 8q0 34 -49 34
q-109 0 -147 -13q-82 -28 -82 -141q0 -33 37.5 -72.5t63.5 -39.5q18 0 18 26v123q0 9 11.5 14.5t26.5 5.5q27 0 27 -12z" />
    <glyph glyph-name="periodcentered" unicode="&#xb7;" horiz-adv-x="208" 
d="M116 293q-21 -6 -47.5 -25t-31.5 -27q-5 -6 -4.5 -13t5.5 -8t16.5 -9t15.5 -14q2 -3 6 -16.5t10.5 -22.5t15.5 -8q20 4 43.5 22.5t26.5 43.5q2 28 -17.5 55.5t-38.5 21.5z" />
    <glyph glyph-name="periodcentered" unicode="&#x2219;" horiz-adv-x="208" 
d="M116 293q-21 -6 -47.5 -25t-31.5 -27q-5 -6 -4.5 -13t5.5 -8t16.5 -9t15.5 -14q2 -3 6 -16.5t10.5 -22.5t15.5 -8q20 4 43.5 22.5t26.5 43.5q2 28 -17.5 55.5t-38.5 21.5z" />
    <glyph glyph-name="cedilla" unicode="&#xb8;" horiz-adv-x="235" 
d="M137 -39q0 -4 16 -10t32 -22t16 -44q0 -37 -27 -60.5t-64 -23.5q-28 0 -53 15t-25 41q0 12 8 22t20 10q10 0 17 -6.5t7 -16.5q0 -6 -6.5 -14t-6.5 -10q0 -9 23 -9t40.5 17.5t17.5 40.5q0 18 -14 29.5t-28.5 18t-14.5 10.5q0 17 9 51q2 7 13 7q27 0 27 -5q0 -7 -3.5 -21
t-3.5 -20z" />
    <glyph glyph-name="onesuperior" unicode="&#xb9;" horiz-adv-x="94" 
d="M74 453q0 -19 1 -26q2 -12 2 -18q0 -20 -31 -20q-29 0 -29 20q5 20 5 81v39v41v82q0 30 -8 67q-2 8 -2 10q1 21 54 30q7 0 8.5 -2t1.5 -8q0 -7 -2 -25q-3 -66 -3 -105q0 -46 2 -112q1 -19 1 -54z" />
    <glyph glyph-name="ordmasculine" unicode="&#xba;" horiz-adv-x="393" 
d="M372 584q0 -68 -48.5 -118t-115.5 -50q-74 0 -124.5 47.5t-50.5 120.5q0 71 49 122.5t120 51.5t120.5 -51.5t49.5 -122.5zM317 561q0 64 -34 118.5t-95 54.5q-50 0 -75.5 -37t-25.5 -90q0 -57 37.5 -112t92.5 -55q47 0 73.5 35.5t26.5 85.5z" />
    <glyph glyph-name="guillemotright" unicode="&#xbb;" horiz-adv-x="378" 
d="M259 230q0 3 -39.5 82.5t-40.5 99.5l4 5q7 0 16 -13q42 -65 144 -155q2 -2 4.5 -4t5 -5t3.5 -4q0 -3 -8.5 -11t-21.5 -19l-14 -10q-52 -47 -118 -136q-8 -10 -14 -10l-3 5q1 19 41.5 96t40.5 79zM127 230q0 4 -39 83t-40 99l4 5q8 -1 16 -13q13 -19 26.5 -36t33 -37.5
t28.5 -29.5t36.5 -34.5t32.5 -30.5q0 -2 -5 -7q-86 -69 -158 -169q-8 -10 -14 -10l-3 5q1 18 41.5 94.5t40.5 80.5z" />
    <glyph glyph-name="onequarter" unicode="&#xbc;" horiz-adv-x="620" 
d="M118 299q0 -22 2 -33q0 -5 1 -12.5t1 -10.5q0 -20 -34 -20q-33 0 -33 20q6 25 6 89v116v103q0 41 -10 86l-2 11q1 13 23.5 22t40.5 12q8 0 8 -8q0 -2 -0.5 -11.5t-0.5 -16.5q-5 -70 -5 -137q0 -96 2 -186q0 -5 0.5 -13t0.5 -11zM79 -12q-20 0 -20 13q2 7 7 16.5t13 21.5
t10 16l67 114l193 331q84 146 92 158q9 13 14 16.5t20 3.5q18 0 18 -10q0 -5 -172.5 -302.5t-207.5 -354.5q-6 -10 -9 -13.5t-9 -6.5t-16 -3zM595 165q15 0 15 -32q0 -28 -13 -28q-40 3 -56 6q0 -59 9 -105q0 -13 -35 -13q-42 0 -42 12q6 30 11 108q-23 0 -63 -2
q-17 0 -51 -0.5t-51 -0.5q-8 0 -14 5t-6 12q0 3 4 9l2 2q143 194 201 299q11 19 28 19t17 -12q0 -4 -2 -8v-4q-8 -26 -8 -70v-201q8 0 12 1q36 3 42 3zM490 351q-4 0 -126 -196h126v196z" />
    <glyph glyph-name="onehalf" unicode="&#xbd;" horiz-adv-x="725" 
d="M138 299q0 -22 2 -33q0 -5 1 -12.5t1 -10.5q0 -20 -34 -20q-33 0 -33 20q6 25 6 89v116v103q0 41 -10 86l-2 11q1 13 23.5 22t40.5 12q8 0 8 -8q0 -2 -0.5 -11.5t-0.5 -16.5q-5 -70 -5 -137q0 -96 2 -186q0 -5 0.5 -13t0.5 -11zM107 -12q-20 0 -20 13q2 7 7 16.5t13 21.5
t10 16l67 114l193 331q84 146 92 158q9 13 14 16.5t20 3.5q18 0 18 -10q0 -5 -172.5 -302.5t-207.5 -354.5q-6 -10 -9 -13.5t-9 -6.5t-16 -3zM713 318q-1 -23 -11.5 -45t-34 -45.5t-39.5 -36.5t-47 -37t-45.5 -35.5t-29.5 -29.5t-15 -32q0 -10 63 -10q70 0 132 9h4
q16 0 16 -17q0 -13 -9.5 -29.5t-13.5 -16.5t-59 6q-55 5 -61 5q-38 0 -68 -3q-30 -2 -48 -2q-17 0 -17 24q0 28 9.5 51.5t29.5 44t36 33.5t45 33q29 21 39.5 29t30 26.5t27 36.5t8.5 39v15q0 33 -24.5 58.5t-75.5 25.5q-25 0 -37.5 -6t-28.5 -22q-2 -1 -5.5 -5t-6.5 -6
q-7 -7 -15 -7q-15 0 -15 20q0 8 4 15q45 48 107 48q79 0 117 -38.5t38 -95.5z" />
    <glyph glyph-name="threequarters" unicode="&#xbe;" horiz-adv-x="638" 
d="M36 307q9 9 18 9q6 0 6 -6q0 -21 24.5 -36t60.5 -15q40 0 69.5 34t29.5 75q0 40 -27.5 71.5t-66.5 31.5q-10 0 -21 -4q-18 13 -18 20q0 9 16 18q36 8 55 23.5t19 47.5q0 27 -19.5 45.5t-46.5 18.5t-51 -27q-4 -4 -9 -4q-6 0 -12.5 4t-6.5 8t2 6q17 24 47 39.5t57 15.5
q37 0 67.5 -24t30.5 -61q0 -47 -52 -89q0 -1 -2 -1q41 -11 69 -46.5t28 -77.5q0 -59 -56 -109t-115 -50q-43 0 -74 17q-38 21 -38 39q0 12 16 27zM204 -12q-20 0 -20 13q2 7 7 16.5t13 21.5t10 16l67 114l193 331q84 146 92 158q9 13 14 16.5t20 3.5q18 0 18 -10
q0 -5 -172.5 -302.5t-207.5 -354.5q-6 -10 -9 -13.5t-9 -6.5t-16 -3zM690 165q15 0 15 -32q0 -28 -13 -28q-40 3 -56 6q0 -59 9 -105q0 -13 -35 -13q-42 0 -42 12q6 30 11 108q-23 0 -63 -2q-17 0 -51 -0.5t-51 -0.5q-8 0 -14 5t-6 12q0 3 4 9l2 2q143 194 201 299
q11 19 28 19t17 -12q0 -4 -2 -8v-4q-8 -26 -8 -70v-201q8 0 12 1q36 3 42 3zM585 351q-4 0 -126 -196h126v196z" />
    <glyph glyph-name="questiondown" unicode="&#xbf;" horiz-adv-x="389" 
d="M230 -192l15 1q18 0 34 8.5t36.5 25t22.5 17.5q14 9 23.5 -6.5t-0.5 -24.5q-9 -31 -56.5 -47.5t-96.5 -16.5q-79 0 -138.5 45.5t-59.5 118.5q0 40 21 69.5t51 49t60 38.5t51 48.5t21 69.5q0 13 -3 35.5t-3 34.5q0 7 21 7q12 0 21 -39t7 -49q2 -16 2 -22q0 -33 -18 -61
t-43.5 -48t-51.5 -39t-44 -43.5t-18 -51.5q0 -46 45.5 -83t100.5 -37zM210 322q-2 -1 -7 -1q-17 0 -29 18t-12 39t17.5 38t33.5 20q8 0 13.5 -8t9 -19.5t5.5 -13.5q3 -5 8.5 -9t10 -6t8 -4.5t3.5 -4.5l-1 -1l-1 -2.5t-2.5 -5.5t-4 -6.5t-5.5 -7t-8 -7.5t-10.5 -7.5t-13 -6.5
t-15.5 -5z" />
    <glyph glyph-name="Agrave" unicode="&#xc0;" horiz-adv-x="610" 
d="M311 643q8 39 32 39q7 0 14.5 -3t11.5 -7l4 -3q0 -25 102.5 -299.5t137.5 -352.5q1 -1 1 -5q0 -23 -44 -23q-32 0 -40 28l-103 299q-223 -24 -226 -35q-3 -10 -25.5 -68t-42 -114t-24.5 -87q-5 -27 -60 -27q-17 0 -17 27q49 89 159 333.5t120 297.5zM413 356
q-74 217 -85 217q-3 0 -8 -8q-8 -14 -54.5 -124.5t-47.5 -116.5q16 4 64.5 12t89.5 14zM274 803q6 0 38 -18.5t61 -36.5l29 -18q2 -1 5 -3t7.5 -6.5t3.5 -7.5t-3.5 -6.5t-4.5 -4.5l-3 -2q-112 44 -136 54q-17 8 -17 14t7.5 20.5t12.5 14.5z" />
    <glyph glyph-name="Aacute" unicode="&#xc1;" horiz-adv-x="613" 
d="M311 643q8 39 32 39q7 0 14.5 -3t11.5 -7l4 -3q0 -25 102.5 -299.5t137.5 -352.5q1 -1 1 -5q0 -23 -44 -23q-32 0 -40 28l-103 299q-223 -24 -226 -35q-3 -10 -25.5 -68t-42 -114t-24.5 -87q-5 -27 -60 -27q-17 0 -17 27q49 89 159 333.5t120 297.5zM413 356
q-74 217 -85 217q-3 0 -8 -8q-8 -14 -54.5 -124.5t-47.5 -116.5q16 4 64.5 12t89.5 14zM271 695l-10 11l15 19q121 74 128 74q4 0 12.5 -16t8.5 -21q0 -4 -18 -11z" />
    <glyph glyph-name="Acircumflex" unicode="&#xc2;" horiz-adv-x="610" 
d="M311 643q8 39 32 39q7 0 14.5 -3t11.5 -7l4 -3q0 -25 102.5 -299.5t137.5 -352.5q1 -1 1 -5q0 -23 -44 -23q-32 0 -40 28l-103 299q-223 -24 -226 -35q-3 -10 -25.5 -68t-42 -114t-24.5 -87q-5 -27 -60 -27q-17 0 -17 27q49 89 159 333.5t120 297.5zM413 356
q-74 217 -85 217q-3 0 -8 -8q-8 -14 -54.5 -124.5t-47.5 -116.5q16 4 64.5 12t89.5 14zM341 722q-13 0 -40 -10.5t-47 -21.5l-21 -10l-12 11l6 9q94 74 114 74q8 0 36.5 -18.5t52.5 -37.5l25 -18l6 -9l-13 -11q-80 42 -107 42z" />
    <glyph glyph-name="Atilde" unicode="&#xc3;" horiz-adv-x="610" 
d="M311 643q8 39 32 39q7 0 14.5 -3t11.5 -7l4 -3q0 -25 102.5 -299.5t137.5 -352.5q1 -1 1 -5q0 -23 -44 -23q-32 0 -40 28l-103 299q-223 -24 -226 -35q-3 -10 -25.5 -68t-42 -114t-24.5 -87q-5 -27 -60 -27q-17 0 -17 27q49 89 159 333.5t120 297.5zM413 356
q-74 217 -85 217q-3 0 -8 -8q-8 -14 -54.5 -124.5t-47.5 -116.5q16 4 64.5 12t89.5 14zM238 719q0 20 26.5 45.5t46.5 25.5q23 0 57.5 -18.5t49.5 -18.5q21 0 38 16t19 16q7 0 7 -7q0 -18 -27 -42t-46 -24q-24 0 -56.5 17.5t-48.5 17.5q-13 0 -26 -9t-20.5 -18t-8.5 -9
q-11 0 -11 8z" />
    <glyph glyph-name="Adieresis" unicode="&#xc4;" horiz-adv-x="608" 
d="M311 643q8 39 32 39q7 0 14.5 -3t11.5 -7l4 -3q0 -25 102.5 -299.5t137.5 -352.5q1 -1 1 -5q0 -23 -44 -23q-32 0 -40 28l-103 299q-223 -24 -226 -35q-3 -10 -25.5 -68t-42 -114t-24.5 -87q-5 -27 -60 -27q-17 0 -17 27q49 89 159 333.5t120 297.5zM413 356
q-74 217 -85 217q-3 0 -8 -8q-8 -14 -54.5 -124.5t-47.5 -116.5q16 4 64.5 12t89.5 14zM270 801q14 4 27.5 -12.5t11.5 -33.5q-1 -15 -18 -26t-31 -13q-7 -1 -11.5 4.5t-7.5 13.5t-4 9q-8 12 -23 15q-3 0 -3 4t2 8q4 5 23 16t34 15zM433 801q14 4 27.5 -12.5t11.5 -33.5
q-1 -15 -18 -26t-31 -13q-7 -1 -11.5 4.5t-7.5 13.5t-4 9q-8 12 -23 15q-4 0 -4 4t3 8q3 5 22 16t35 15z" />
    <glyph glyph-name="Aring" unicode="&#xc5;" horiz-adv-x="608" 
d="M311 643q8 39 32 39q7 0 14.5 -3t11.5 -7l4 -3q0 -25 102.5 -299.5t137.5 -352.5q1 -1 1 -5q0 -23 -44 -23q-32 0 -40 28l-103 299q-223 -24 -226 -35q-3 -10 -25.5 -68t-42 -114t-24.5 -87q-5 -27 -60 -27q-17 0 -17 27q49 89 159 333.5t120 297.5zM413 356
q-74 217 -85 217q-3 0 -8 -8q-8 -14 -54.5 -124.5t-47.5 -116.5q16 4 64.5 12t89.5 14zM424 780q0 -33 -24 -57.5t-57 -24.5q-34 0 -58 24t-24 58q0 33 24.5 57t57.5 24t57 -24t24 -57zM391 780q0 20 -14.5 34t-33.5 14q-20 0 -34.5 -14.5t-14.5 -33.5q0 -20 14.5 -34.5
t34.5 -14.5q19 0 33.5 14.5t14.5 34.5z" />
    <glyph glyph-name="AE" unicode="&#xc6;" horiz-adv-x="967" 
d="M24 12q76 84 263 312t238 303q-1 6 -1 16q0 17 8 24.5t30 8.5q22 0 57.5 -1.5t52 -2.5t35.5 0q43 0 114.5 3.5t93.5 4.5q33 -14 33 -41q0 -31 -33 -31q-62 31 -218 31q-71 0 -83 -7q-11 -5 -14 -20q-2 -50 -2 -232q2 -12 14 -12q41 0 110 9t94 24q10 0 19.5 -7.5
t9.5 -19.5q0 -19 -33 -33q-13 8 -57 8q-29 0 -64 -3.5t-58.5 -7.5t-24.5 -4q-7 0 -10 -5q1 -49 0.5 -140t0.5 -114q3 -5 7 -15q20 -26 105 -26q50 0 119 8.5t104 20.5q24 -1 24 -18q0 -18 -27 -50q-147 19 -378 -6q-29 -4 -30 22q-1 2 -1 7t1 9q0 23 2.5 98.5t4 133
t0.5 57.5q-232 -24 -239 -35q-8 -11 -51 -68.5t-83 -113.5t-56 -87q-14 -27 -70 -27q-11 0 -11 9t4 18zM531 356v3v10v184q-2 20 -5 20t-11 -8q-13 -14 -100.5 -124.5t-90.5 -116.5q17 4 69 12t95 14z" />
    <glyph glyph-name="Ccedilla" unicode="&#xc7;" horiz-adv-x="653" 
d="M34 333q0 146 106.5 245.5t253.5 99.5q38 0 106.5 -17t121.5 -43q18 -24 18 -44q0 -23 -33 -23h-9q-25 25 -41 38t-42.5 27.5t-61.5 21t-82 6.5q-74 0 -133.5 -47.5t-90 -118.5t-30.5 -145q0 -123 85 -211.5t209 -88.5q117 0 180 74q2 2 4 6t3 7t3.5 5t6.5 2
q6 0 12.5 -10.5t6.5 -18.5l-1 -1v-2q-14 -44 -73.5 -75.5t-143.5 -31.5q-158 0 -266.5 94.5t-108.5 250.5zM405 -39q0 -4 16 -10t32 -22t16 -44q0 -37 -27 -60.5t-64 -23.5q-28 0 -53 15t-25 41q0 12 8 22t20 10q10 0 17 -6.5t7 -16.5q0 -6 -6.5 -14t-6.5 -10q0 -9 23 -9
t40.5 17.5t17.5 40.5q0 18 -14 29.5t-28.5 18t-14.5 10.5q0 17 9 51q2 7 13 7q27 0 27 -5q0 -7 -3.5 -21t-3.5 -20z" />
    <glyph glyph-name="Egrave" unicode="&#xc8;" horiz-adv-x="490" 
d="M49 561q0 15 -2 32.5t-3.5 28.5t-1.5 22.5t3.5 17.5t12 10t23.5 4q96 -4 144 -4q43 0 114.5 3.5t93.5 4.5q33 -14 33 -41q0 -31 -33 -31q-62 31 -218 31q-70 0 -84.5 -7t-14.5 -51v-194q0 -19 14 -19q41 0 110 9t94 24q10 0 19.5 -7.5t9.5 -19.5q0 -19 -33 -33
q-13 8 -57 8q-29 0 -64 -3.5t-58.5 -7.5t-24.5 -4q-10 0 -10 -10v-189q0 -65 23 -83t90 -18q50 0 119 8.5t104 20.5q24 -1 24 -18q0 -18 -27 -50q-156 5 -359 5q-24 0 -34.5 2t-13.5 9.5t-1 15.5t5.5 28t3.5 40q0 76 -0.5 232.5t-0.5 233.5zM218 810q6 0 38 -18t61 -36
l29 -19q2 -1 5 -3t7.5 -6.5t3.5 -7.5t-3.5 -6.5t-4.5 -5.5l-3 -1q-112 44 -136 54q-1 0 -5 2l-6 3t-4 3.5t-2 5.5q0 6 7.5 20.5t12.5 14.5z" />
    <glyph glyph-name="Eacute" unicode="&#xc9;" horiz-adv-x="495" 
d="M49 561q0 15 -2 32.5t-3.5 28.5t-1.5 22.5t3.5 17.5t12 10t23.5 4q96 -4 144 -4q43 0 114.5 3.5t93.5 4.5q33 -14 33 -41q0 -31 -33 -31q-62 31 -218 31q-70 0 -84.5 -7t-14.5 -51v-194q0 -19 14 -19q41 0 110 9t94 24q10 0 19.5 -7.5t9.5 -19.5q0 -19 -33 -33
q-13 8 -57 8q-29 0 -64 -3.5t-58.5 -7.5t-24.5 -4q-10 0 -10 -10v-189q0 -65 23 -83t90 -18q50 0 119 8.5t104 20.5q24 -1 24 -18q0 -18 -27 -50q-156 5 -359 5q-24 0 -34.5 2t-13.5 9.5t-1 15.5t5.5 28t3.5 40q0 76 -0.5 232.5t-0.5 233.5zM222 713l-10 11l15 19
q121 74 128 74q4 0 12.5 -16t8.5 -21q0 -4 -18 -11z" />
    <glyph glyph-name="Ecircumflex" unicode="&#xca;" horiz-adv-x="503" 
d="M49 561q0 15 -2 32.5t-3.5 28.5t-1.5 22.5t3.5 17.5t12 10t23.5 4q96 -4 144 -4q43 0 114.5 3.5t93.5 4.5q33 -14 33 -41q0 -31 -33 -31q-62 31 -218 31q-70 0 -84.5 -7t-14.5 -51v-194q0 -19 14 -19q41 0 110 9t94 24q10 0 19.5 -7.5t9.5 -19.5q0 -19 -33 -33
q-13 8 -57 8q-29 0 -64 -3.5t-58.5 -7.5t-24.5 -4q-10 0 -10 -10v-189q0 -65 23 -83t90 -18q50 0 119 8.5t104 20.5q24 -1 24 -18q0 -18 -27 -50q-156 5 -359 5q-24 0 -34.5 2t-13.5 9.5t-1 15.5t5.5 28t3.5 40q0 76 -0.5 232.5t-0.5 233.5zM269 735q-13 0 -40 -10.5
t-47 -20.5l-21 -11l-12 11l6 9q94 74 114 74q8 0 36.5 -18.5t52.5 -36.5l25 -19l6 -9l-13 -11q-80 42 -107 42z" />
    <glyph glyph-name="Edieresis" unicode="&#xcb;" horiz-adv-x="502" 
d="M49 561q0 15 -2 32.5t-3.5 28.5t-1.5 22.5t3.5 17.5t12 10t23.5 4q96 -4 144 -4q43 0 114.5 3.5t93.5 4.5q33 -14 33 -41q0 -31 -33 -31q-62 31 -218 31q-70 0 -84.5 -7t-14.5 -51v-194q0 -19 14 -19q41 0 110 9t94 24q10 0 19.5 -7.5t9.5 -19.5q0 -19 -33 -33
q-13 8 -57 8q-29 0 -64 -3.5t-58.5 -7.5t-24.5 -4q-10 0 -10 -10v-189q0 -65 23 -83t90 -18q50 0 119 8.5t104 20.5q24 -1 24 -18q0 -18 -27 -50q-156 5 -359 5q-24 0 -34.5 2t-13.5 9.5t-1 15.5t5.5 28t3.5 40q0 76 -0.5 232.5t-0.5 233.5zM206 798q14 4 27.5 -12.5
t11.5 -33.5q-1 -15 -18 -26t-31 -13q-7 -1 -11.5 4.5t-7.5 13.5t-4 9q-8 12 -23 15q-3 0 -3 4t2 8q4 5 23 16t34 15zM369 798q14 4 27.5 -12.5t11.5 -33.5q-1 -15 -18 -26t-31 -13q-7 -1 -11.5 4.5t-7.5 13.5t-4 9q-8 12 -23 15q-4 0 -4 4t3 8q3 5 22 16t35 15z" />
    <glyph glyph-name="Igrave" unicode="&#xcc;" horiz-adv-x="154" 
d="M107 657l1 -657q-12 -14 -34 -14q-7 0 -16.5 3t-15.5 6t-6 5q-1 -5 -1 1q8 288 3 656q16 21 35 21q9 0 17.5 -5t12.5 -11zM5 796q6 0 38 -18t61 -36l29 -19q2 -1 5 -3t7.5 -6.5t3.5 -7.5t-3.5 -6.5t-5.5 -5.5l-2 -1q-112 44 -136 54q-1 0 -5 2l-6 3t-4 3.5t-2 5.5
q0 6 7.5 20.5t12.5 14.5z" />
    <glyph glyph-name="Iacute" unicode="&#xcd;" horiz-adv-x="145" 
d="M107 657l1 -657q-12 -14 -34 -14q-7 0 -16.5 3t-15.5 6t-6 5q-1 -5 -1 1q8 288 3 656q16 21 35 21q9 0 17.5 -5t12.5 -11zM2 694l-10 11l15 19q121 74 128 74q4 0 12.5 -16t8.5 -21q0 -4 -18 -11z" />
    <glyph glyph-name="Icircumflex" unicode="&#xce;" horiz-adv-x="160" 
d="M107 657l1 -657q-12 -14 -34 -14q-7 0 -16.5 3t-15.5 6t-6 5q-1 -5 -1 1q8 288 3 656q16 21 35 21q9 0 17.5 -5t12.5 -11zM74 723q-13 0 -40 -10.5t-48 -20.5l-20 -11l-12 11l6 9q94 74 114 74q8 0 36.5 -18.5t53.5 -36.5l24 -19l6 -9l-13 -11q-80 42 -107 42z" />
    <glyph glyph-name="Idieresis" unicode="&#xcf;" horiz-adv-x="164" 
d="M107 657l1 -657q-12 -14 -34 -14q-7 0 -16.5 3t-15.5 6t-6 5q-1 -5 -1 1q8 288 3 656q16 21 35 21q9 0 17.5 -5t12.5 -11zM2 777q14 4 27.5 -12.5t11.5 -33.5q-1 -15 -18 -26t-31 -13q-7 -1 -11.5 4.5t-7.5 13.5t-4 9q-8 12 -23 15q-3 0 -3 4t2 8q4 5 23 16t34 15z
M165 777q14 4 27.5 -12.5t11.5 -33.5q-1 -15 -18 -26t-31 -13q-7 -1 -11.5 4.5t-7.5 13.5t-4 9q-8 12 -23 15q-4 0 -4 4t3 8q3 5 22 16t35 15z" />
    <glyph glyph-name="Eth" unicode="&#xd0;" horiz-adv-x="762" 
d="M124 642q-3 10 -1 16.5t4 10.5t7.5 5t9 1t8.5 -1h4q33 0 99 1.5t99 1.5q103 0 185 -32.5t135 -107t53 -182.5q0 -87 -34.5 -157t-92.5 -114t-131.5 -67t-155.5 -23q-25 0 -92 -2t-92 -2q-32 0 -23 10q15 15 21 323l-63 1q-22 0 -22 22t22 22l64 -1q4 237 -4 275zM313 29
q156 0 243 74t87 228q0 138 -92 224.5t-231 86.5q-3 0 -21.5 0.5t-26.5 0t-23.5 -2.5t-24 -6t-16.5 -12.5t-10 -20.5q-6 -29 -6 -234l180 -2q11 0 17 -6.5t6 -15.5t-6 -15.5t-17 -6.5l-179 2q2 -237 7 -251q14 -43 113 -43z" />
    <glyph glyph-name="Ntilde" unicode="&#xd1;" horiz-adv-x="650" 
d="M97 539q-11 0 -11 -63q0 -25 -1 -92t-1 -119t1 -112t4.5 -100t10.5 -53q-14 -14 -30 -14q-23 0 -33 14q16 316 -10 664q12 8 19 8t26 -6.5t22 -11.5q26 -39 226 -256t248 -258q3 0 5 8t3 25.5l2 35t1 46v48.5v53.5v50.5q0 219 -7 257q8 12 24 12q6 0 13.5 -3t12.5 -6
l5 -3v-14q0 -17 -5.5 -299.5t1.5 -311.5q0 -3 2 -14t2 -17t-4 -10.5t-10 -4.5q-16 0 -37 32q-7 12 -18 25.5t-18 21.5t-22 23t-20 21q-387 423 -401 423zM214 717q0 20 26.5 45.5t46.5 25.5q23 0 57.5 -18.5t49.5 -18.5q21 0 38 16t19 16q7 0 7 -7q0 -18 -27 -42t-46 -24
q-24 0 -56.5 17.5t-48.5 17.5q-13 0 -26 -9t-20.5 -18t-8.5 -9q-11 0 -11 8z" />
    <glyph glyph-name="Ograve" unicode="&#xd2;" horiz-adv-x="721" 
d="M726 333q0 -152 -101 -248.5t-253 -96.5q-140 0 -238.5 101.5t-98.5 241.5q0 142 99.5 244.5t241.5 102.5t246 -101.5t104 -243.5zM651 299q0 61 -21 122t-57.5 110.5t-92 80.5t-119.5 31q-117 0 -181.5 -81.5t-64.5 -201.5q0 -83 35 -159.5t103 -127t153 -50.5
q114 0 179.5 80t65.5 196zM320 782q6 0 38 -18t61 -36l29 -19q2 -1 5 -3t7.5 -6.5t3.5 -7.5t-3.5 -6.5t-4.5 -5.5l-3 -1q-112 44 -136 54q-1 0 -5 2l-6 3t-4 3.5t-2 5.5q0 6 7.5 20.5t12.5 14.5z" />
    <glyph glyph-name="Oacute" unicode="&#xd3;" horiz-adv-x="721" 
d="M726 333q0 -152 -101 -248.5t-253 -96.5q-140 0 -238.5 101.5t-98.5 241.5q0 142 99.5 244.5t241.5 102.5t246 -101.5t104 -243.5zM651 299q0 61 -21 122t-57.5 110.5t-92 80.5t-119.5 31q-117 0 -181.5 -81.5t-64.5 -201.5q0 -83 35 -159.5t103 -127t153 -50.5
q114 0 179.5 80t65.5 196zM322 685l-10 11l15 19q121 74 128 74q4 0 12.5 -16t8.5 -21q0 -4 -18 -11z" />
    <glyph glyph-name="Ocircumflex" unicode="&#xd4;" horiz-adv-x="733" 
d="M726 333q0 -152 -101 -248.5t-253 -96.5q-140 0 -238.5 101.5t-98.5 241.5q0 142 99.5 244.5t241.5 102.5t246 -101.5t104 -243.5zM651 299q0 61 -21 122t-57.5 110.5t-92 80.5t-119.5 31q-117 0 -181.5 -81.5t-64.5 -201.5q0 -83 35 -159.5t103 -127t153 -50.5
q114 0 179.5 80t65.5 196zM384 731q-13 0 -40 -10.5t-48 -20.5l-20 -11l-12 11l6 9q94 74 114 74q8 0 36.5 -18.5t53.5 -36.5l24 -19l6 -9l-13 -11q-80 42 -107 42z" />
    <glyph glyph-name="Otilde" unicode="&#xd5;" horiz-adv-x="721" 
d="M726 333q0 -152 -101 -248.5t-253 -96.5q-140 0 -238.5 101.5t-98.5 241.5q0 142 99.5 244.5t241.5 102.5t246 -101.5t104 -243.5zM651 299q0 61 -21 122t-57.5 110.5t-92 80.5t-119.5 31q-117 0 -181.5 -81.5t-64.5 -201.5q0 -83 35 -159.5t103 -127t153 -50.5
q114 0 179.5 80t65.5 196zM263 705q0 20 26.5 45.5t46.5 25.5q23 0 57.5 -18.5t49.5 -18.5q21 0 38 16t19 16q7 0 7 -7q0 -18 -27 -42t-46 -24q-24 0 -56.5 17.5t-48.5 17.5q-13 0 -26 -9t-20.5 -18t-8.5 -9q-11 0 -11 8z" />
    <glyph glyph-name="Odieresis" unicode="&#xd6;" horiz-adv-x="731" 
d="M726 333q0 -152 -101 -248.5t-253 -96.5q-140 0 -238.5 101.5t-98.5 241.5q0 142 99.5 244.5t241.5 102.5t246 -101.5t104 -243.5zM651 299q0 61 -21 122t-57.5 110.5t-92 80.5t-119.5 31q-117 0 -181.5 -81.5t-64.5 -201.5q0 -83 35 -159.5t103 -127t153 -50.5
q114 0 179.5 80t65.5 196zM295 787q14 4 27.5 -12.5t11.5 -33.5q-1 -15 -18 -26t-31 -13q-7 -1 -11.5 4.5t-7.5 13.5t-4 9q-8 12 -23 15q-3 0 -3 4t2 8q4 5 23 16t34 15zM458 787q14 4 27.5 -12.5t11.5 -33.5q-1 -15 -18 -26t-31 -13q-7 -1 -11.5 4.5t-7.5 13.5t-4 9
q-8 12 -23 15q-4 0 -4 4t3 8q3 5 22 16t35 15z" />
    <glyph glyph-name="multiply" unicode="&#xd7;" horiz-adv-x="447" 
d="M48 341q-9 9 -5.5 20.5t13.5 13.5t20 -6l146 -147l145 147q9 9 20 6t13.5 -13.5t-5.5 -20.5l-146 -146l140 -140q9 -9 5.5 -20.5t-13.5 -13.5t-20 6l-140 140l-143 -145q-9 -9 -20 -6t-13.5 13.5t5.5 20.5l144 144z" />
    <glyph glyph-name="Oslash" unicode="&#xd8;" horiz-adv-x="761" 
d="M179 -14q-7 -11 -19 -9.5t-16.5 10.5t1.5 21l29 45q-65 48 -102 121t-37 157q0 142 99.5 244.5t241.5 102.5q93 0 174 -47l33 50q7 11 19 9.5t16.5 -10.5t-1.5 -21l-33 -50q65 -48 103.5 -121t38.5 -155q0 -152 -101 -248.5t-253 -96.5q-86 0 -164 43zM651 299
q0 70 -26.5 138.5t-74.5 119.5l-309 -475q72 -59 165 -59q114 0 179.5 80t65.5 196zM115 360q0 -69 25.5 -135.5t70.5 -114.5l309 475q-71 58 -159 58q-117 0 -181.5 -81.5t-64.5 -201.5z" />
    <glyph glyph-name="Ugrave" unicode="&#xd9;" horiz-adv-x="746" 
d="M35 604q0 16 -4 50q-1 11 13 15.5t30 4.5q8 0 14.5 -1t13 -5.5t5.5 -12.5q-5 -33 -5 -44v-321q0 -108 56 -178.5t164 -70.5q107 0 159.5 67.5t52.5 175.5q0 324 -10 369q-3 13 6.5 18.5t18.5 5.5q11 0 17.5 -7t5.5 -17q-5 -74 -5 -370q0 -129 -64 -212t-191 -83
q-80 0 -135.5 26t-85.5 74.5t-43 107t-13 134.5v274zM267 753q6 0 38 -18.5t61 -36.5l29 -18q2 -1 5 -3t7.5 -6.5t3.5 -7.5t-3.5 -6.5t-5.5 -4.5l-2 -2q-112 44 -136 54q-17 8 -17 14t7.5 20.5t12.5 14.5z" />
    <glyph glyph-name="Uacute" unicode="&#xda;" horiz-adv-x="746" 
d="M35 604q0 16 -4 50q-1 11 13 15.5t30 4.5q8 0 14.5 -1t13 -5.5t5.5 -12.5q-5 -33 -5 -44v-321q0 -108 56 -178.5t164 -70.5q107 0 159.5 67.5t52.5 175.5q0 324 -10 369q-3 13 6.5 18.5t18.5 5.5q11 0 17.5 -7t5.5 -17q-5 -74 -5 -370q0 -129 -64 -212t-191 -83
q-80 0 -135.5 26t-85.5 74.5t-43 107t-13 134.5v274zM252 648l-10 11l15 19q121 74 128 74q4 0 12.5 -16t8.5 -21q0 -4 -18 -11z" />
    <glyph glyph-name="Ucircumflex" unicode="&#xdb;" horiz-adv-x="746" 
d="M35 604q0 16 -4 50q-1 11 13 15.5t30 4.5q8 0 14.5 -1t13 -5.5t5.5 -12.5q-5 -33 -5 -44v-321q0 -108 56 -178.5t164 -70.5q107 0 159.5 67.5t52.5 175.5q0 324 -10 369q-3 13 6.5 18.5t18.5 5.5q11 0 17.5 -7t5.5 -17q-5 -74 -5 -370q0 -129 -64 -212t-191 -83
q-80 0 -135.5 26t-85.5 74.5t-43 107t-13 134.5v274zM326 699q-13 0 -40 -10.5t-48 -20.5l-20 -11l-12 11l6 9q94 74 114 74q8 0 36.5 -18.5t53.5 -36.5l24 -19l6 -9l-13 -11q-80 42 -107 42z" />
    <glyph glyph-name="Udieresis" unicode="&#xdc;" horiz-adv-x="613" 
d="M40 604q0 16 -4 50q-1 11 13 15.5t30 4.5q8 0 14.5 -1t13 -5.5t5.5 -12.5q-5 -33 -5 -44v-321q0 -108 56 -178.5t164 -70.5q107 0 159.5 67.5t52.5 175.5q0 324 -10 369q-3 13 6.5 18.5t18.5 5.5q11 0 17.5 -7t5.5 -17q-5 -74 -5 -370q0 -129 -64 -212t-191 -83
q-80 0 -135.5 26t-85.5 74.5t-43 107t-13 134.5v274zM247 771q14 4 27.5 -12.5t11.5 -33.5q-1 -15 -18 -26t-31 -13q-7 -1 -11.5 4.5t-7.5 13.5t-4 9q-8 12 -23 15q-3 0 -3 4t2 8q4 5 23 16t34 15zM410 771q14 4 27.5 -12.5t11.5 -33.5q-1 -15 -18 -26t-31 -13
q-7 -1 -11.5 4.5t-7.5 13.5t-4 9q-8 12 -23 15q-4 0 -4 4t3 8q3 5 22 16t35 15z" />
    <glyph glyph-name="Yacute" unicode="&#xdd;" horiz-adv-x="502" 
d="M431 615q7 13 12.5 32t11.5 23t25 4q30 0 30 -9q0 -1 -1 -2q-25 -31 -57.5 -88.5t-77.5 -145t-53 -101.5q-16 -30 -16 -85q0 -147 9 -210q1 -4 4 -15t3 -17q0 -12 -44 -12q-51 0 -51 12q0 1 5 25t5 45v122q-1 77 -10 117.5t-47 107.5q-2 3 -22.5 45.5t-47.5 90.5t-51 81
q-3 4 -8.5 10.5t-9 10.5t-3.5 7q0 11 53 11h8h8.5h7.5t7 -1t6 -2t6 -2.5t4 -4t3.5 -6t1.5 -7.5q2 -15 19 -48q10 -18 36 -68.5t50.5 -95.5t47.5 -83q18 30 43 78t54.5 105.5t38.5 75.5zM267 686l-10 11l15 19q121 74 128 74q4 0 12.5 -16t8.5 -21q0 -4 -18 -11z" />
    <glyph glyph-name="Thorn" unicode="&#xde;" horiz-adv-x="487" 
d="M140 657v-131q18 0 53 1t55 1q83 0 146.5 -46t63.5 -126q0 -76 -55 -128.5t-131 -52.5q-28 0 -73 13t-45 33q0 12 14 12q9 0 36 -11.5t49 -11.5q56 0 91.5 40t35.5 97q0 63 -49 104.5t-113 41.5q-49 0 -63 -16t-14 -55l-1 2l1 -424q-12 -14 -34 -14q-7 0 -16.5 3t-15.5 6
t-6 5q-1 -5 -1 1q8 288 3 656q16 21 35 21q9 0 17.5 -5t12.5 -11z" />
    <glyph glyph-name="germandbls" unicode="&#xdf;" horiz-adv-x="544" 
d="M509 126q0 -64 -45 -101t-108 -37q-28 0 -66 6.5t-41 19.5q-5 19 -5 33q0 18 12 18q10 0 50 -22t60 -22q80 0 80 90q0 32 -21 56t-51.5 41.5t-61 36t-51.5 50.5t-21 75q0 27 27 49.5t59 37t59 45t27 71.5q0 55 -39.5 79.5t-93.5 24.5q-31 0 -52 -8t-32.5 -20.5t-18 -36
t-8 -45t-1.5 -56.5q0 -342 6 -510q2 -11 -40 -11q-31 0 -31 10q0 169 1 245.5t1 111.5q-39 -3 -59 -6q-12 0 -12 26q0 10 34.5 14t34.5 16q1 52 8 97.5t24.5 101t55.5 88.5t94 33q96 0 149.5 -40t53.5 -105q0 -36 -27.5 -67.5t-60.5 -50.5t-60.5 -43.5t-27.5 -48.5
q0 -29 20.5 -50t49.5 -35.5t58 -31.5t49.5 -50t20.5 -79z" />
    <glyph glyph-name="agrave" unicode="&#xe0;" horiz-adv-x="387" 
d="M161 409q-11 0 -40 -11.5t-41 -11.5q-22 0 -22 18q0 46 196 46q111 0 111 -143v-182q0 -80 9 -124v-2q0 -9 -32 -9q-26 0 -35 9t-13 38q-40 -29 -72.5 -38t-88.5 -9q-38 0 -68.5 38t-30.5 84q0 43 13 74t33.5 48.5t53.5 27.5t63.5 12.5t73.5 2.5q5 0 10 -4.5t5 -10.5
q0 -17 -11 -17q-7 0 -22.5 2.5t-22.5 2.5q-53 0 -88 -29.5t-35 -87.5q0 -44 31.5 -71.5t65.5 -27.5q94 0 94 130q0 5 -0.5 14t-1 34t-0.5 60q0 32 -3.5 52.5t-16 42t-41.5 32t-74 10.5zM160 583q6 0 38 -18.5t61 -36.5l29 -18q2 -1 5 -3t7.5 -6.5t3.5 -7.5t-3.5 -6.5
t-4.5 -4.5l-3 -2q-112 44 -136 54q-17 8 -17 14t7.5 20.5t12.5 14.5z" />
    <glyph glyph-name="aacute" unicode="&#xe1;" horiz-adv-x="392" 
d="M161 409q-11 0 -40 -11.5t-41 -11.5q-22 0 -22 18q0 46 196 46q111 0 111 -143v-182q0 -80 9 -124v-2q0 -9 -32 -9q-26 0 -35 9t-13 38q-40 -29 -72.5 -38t-88.5 -9q-38 0 -68.5 38t-30.5 84q0 43 13 74t33.5 48.5t53.5 27.5t63.5 12.5t73.5 2.5q5 0 10 -4.5t5 -10.5
q0 -17 -11 -17q-7 0 -22.5 2.5t-22.5 2.5q-53 0 -88 -29.5t-35 -87.5q0 -44 31.5 -71.5t65.5 -27.5q94 0 94 130q0 5 -0.5 14t-1 34t-0.5 60q0 32 -3.5 52.5t-16 42t-41.5 32t-74 10.5zM142 486l-10 11l15 19q121 74 128 74q4 0 12.5 -16t8.5 -21q0 -4 -18 -11z" />
    <glyph glyph-name="acircumflex" unicode="&#xe2;" horiz-adv-x="390" 
d="M161 409q-11 0 -40 -11.5t-41 -11.5q-22 0 -22 18q0 46 196 46q111 0 111 -143v-182q0 -80 9 -124v-2q0 -9 -32 -9q-26 0 -35 9t-13 38q-40 -29 -72.5 -38t-88.5 -9q-38 0 -68.5 38t-30.5 84q0 43 13 74t33.5 48.5t53.5 27.5t63.5 12.5t73.5 2.5q5 0 10 -4.5t5 -10.5
q0 -17 -11 -17q-7 0 -22.5 2.5t-22.5 2.5q-53 0 -88 -29.5t-35 -87.5q0 -44 31.5 -71.5t65.5 -27.5q94 0 94 130q0 5 -0.5 14t-1 34t-0.5 60q0 32 -3.5 52.5t-16 42t-41.5 32t-74 10.5zM221 523q-13 0 -40 -10.5t-47 -20.5l-21 -11l-12 11l6 9q94 74 114 74q8 0 36.5 -18.5
t52.5 -36.5l25 -19l6 -9l-13 -11q-80 42 -107 42z" />
    <glyph glyph-name="atilde" unicode="&#xe3;" horiz-adv-x="390" 
d="M161 409q-11 0 -40 -11.5t-41 -11.5q-22 0 -22 18q0 46 196 46q111 0 111 -143v-182q0 -80 9 -124v-2q0 -9 -32 -9q-26 0 -35 9t-13 38q-40 -29 -72.5 -38t-88.5 -9q-38 0 -68.5 38t-30.5 84q0 43 13 74t33.5 48.5t53.5 27.5t63.5 12.5t73.5 2.5q5 0 10 -4.5t5 -10.5
q0 -17 -11 -17q-7 0 -22.5 2.5t-22.5 2.5q-53 0 -88 -29.5t-35 -87.5q0 -44 31.5 -71.5t65.5 -27.5q94 0 94 130q0 5 -0.5 14t-1 34t-0.5 60q0 32 -3.5 52.5t-16 42t-41.5 32t-74 10.5zM82 509q0 20 26.5 45.5t46.5 25.5q23 0 57.5 -18.5t49.5 -18.5q21 0 38 16t19 16
q7 0 7 -7q0 -18 -27 -42t-46 -24q-24 0 -56.5 17.5t-48.5 17.5q-13 0 -26 -9t-20.5 -18t-8.5 -9q-11 0 -11 8z" />
    <glyph glyph-name="adieresis" unicode="&#xe4;" horiz-adv-x="397" 
d="M161 409q-11 0 -40 -11.5t-41 -11.5q-22 0 -22 18q0 46 196 46q111 0 111 -143v-182q0 -80 9 -124v-2q0 -9 -32 -9q-26 0 -35 9t-13 38q-40 -29 -72.5 -38t-88.5 -9q-38 0 -68.5 38t-30.5 84q0 43 13 74t33.5 48.5t53.5 27.5t63.5 12.5t73.5 2.5q5 0 10 -4.5t5 -10.5
q0 -17 -11 -17q-7 0 -22.5 2.5t-22.5 2.5q-53 0 -88 -29.5t-35 -87.5q0 -44 31.5 -71.5t65.5 -27.5q94 0 94 130q0 5 -0.5 14t-1 34t-0.5 60q0 32 -3.5 52.5t-16 42t-41.5 32t-74 10.5zM137 584q14 4 27.5 -12.5t11.5 -33.5q-1 -15 -18 -26t-31 -13q-7 -1 -11.5 4.5
t-7.5 13.5t-4 9q-8 12 -23 15q-3 0 -3 4t2 8q4 5 23 16t34 15zM300 584q14 4 27.5 -12.5t11.5 -33.5q-1 -15 -18 -26t-31 -13q-7 -1 -11.5 4.5t-7.5 13.5t-4 9q-8 12 -23 15q-4 0 -4 4t3 8q3 5 22 16t35 15z" />
    <glyph glyph-name="aring" unicode="&#xe5;" horiz-adv-x="387" 
d="M161 409q-11 0 -40 -11.5t-41 -11.5q-22 0 -22 18q0 46 196 46q111 0 111 -143v-182q0 -80 9 -124v-2q0 -9 -32 -9q-26 0 -35 9t-13 38q-40 -29 -72.5 -38t-88.5 -9q-38 0 -68.5 38t-30.5 84q0 43 13 74t33.5 48.5t53.5 27.5t63.5 12.5t73.5 2.5q5 0 10 -4.5t5 -10.5
q0 -17 -11 -17q-7 0 -22.5 2.5t-22.5 2.5q-53 0 -88 -29.5t-35 -87.5q0 -44 31.5 -71.5t65.5 -27.5q94 0 94 130q0 5 -0.5 14t-1 34t-0.5 60q0 32 -3.5 52.5t-16 42t-41.5 32t-74 10.5zM287 566q0 -33 -24 -57.5t-57 -24.5q-34 0 -58 24t-24 58q0 33 24.5 57t57.5 24t57 -24
t24 -57zM254 566q0 20 -14 34t-34 14t-34.5 -14.5t-14.5 -33.5q0 -20 14.5 -34.5t34.5 -14.5q19 0 33.5 14.5t14.5 34.5z" />
    <glyph glyph-name="ae" unicode="&#xe6;" horiz-adv-x="706" 
d="M595 255q-156 -17 -190 -23q-24 -4 -31.5 -11t-7.5 -30q0 -147 169 -147q43 0 75.5 12t48.5 23.5t20 11.5q6 0 10 -4t3 -10q-7 -32 -68.5 -59t-120.5 -27q-76 0 -136 55q4 -30 7 -45q1 -4 -2 -6t-10.5 -3.5t-19.5 -1.5q-26 0 -35 9t-13 38q-40 -29 -72.5 -38t-88.5 -9
q-38 0 -68.5 38t-30.5 84q0 43 12 74t31 48.5t50.5 27t61 12.5t72.5 3q5 0 10 -4.5t5 -10.5q0 -17 -11 -17q-7 0 -22 2.5t-23 2.5q-51 0 -82 -29t-31 -88q0 -44 31.5 -71.5t65.5 -27.5q94 0 94 136q0 3 -0.5 14.5t-1 34t-0.5 53.5q0 32 -3.5 52.5t-16 42t-41.5 32t-74 10.5
q-11 0 -40 -11.5t-41 -11.5q-22 0 -22 18q0 46 196 46q82 0 103 -79q67 80 164 80q65 0 115.5 -40.5t50.5 -104.5q0 -10 -2.5 -18t-8.5 -13t-11 -8.5t-16 -5.5l-16.5 -3t-19.5 -2t-18 -1zM612 319q0 40 -34.5 67t-75.5 27q-44 0 -85.5 -45.5t-41.5 -94.5q0 -10 19 -10
q27 0 55 3t73 10t54 8q36 4 36 35z" />
    <glyph glyph-name="ccedilla" unicode="&#xe7;" horiz-adv-x="427" 
d="M101 232q0 -76 51 -133t125 -57q38 0 64.5 9t37.5 17.5t12 8.5q15 0 10 -13q-7 -33 -48 -53.5t-98 -20.5q-92 0 -156.5 62.5t-64.5 153.5q0 99 77.5 171.5t177.5 72.5q21 0 41 -3.5t38 -16.5t18 -34q0 -14 -11 -25t-25 -11q-15 0 -31 8q-3 15 -23 25.5t-47 10.5h-18
q-57 0 -93.5 -56t-36.5 -116zM251 -39q0 -4 16 -10t32 -22t16 -44q0 -37 -27 -60.5t-64 -23.5q-28 0 -53 15t-25 41q0 12 8 22t20 10q10 0 17 -6.5t7 -16.5q0 -6 -6.5 -14t-6.5 -10q0 -9 23 -9t40.5 17.5t17.5 40.5q0 18 -14 29.5t-28.5 18t-14.5 10.5q0 17 9 51q2 7 13 7
q27 0 27 -5q0 -7 -3.5 -21t-3.5 -20z" />
    <glyph glyph-name="egrave" unicode="&#xe8;" horiz-adv-x="439" 
d="M332 254q-156 -17 -190 -23q-24 -4 -31.5 -11t-7.5 -30q0 -64 48.5 -104.5t115.5 -40.5q34 0 61 8.5t40 19t23.5 19t14.5 8.5q6 0 10 -4t3 -10q-7 -34 -69 -65t-110 -31q-83 0 -144.5 65t-61.5 148q0 97 64.5 172t159.5 75q65 0 115.5 -40.5t50.5 -104.5q0 -10 -2.5 -18
t-8.5 -13t-11 -8.5t-16 -5.5l-16.5 -3t-19.5 -2t-18 -1zM349 318q0 40 -34.5 67t-75.5 27q-44 0 -86 -46.5t-41 -95.5q0 -11 31 -7q114 12 170 20q36 4 36 35zM195 589q6 0 38 -18.5t61 -36.5l29 -18q2 -1 5 -3t7.5 -6.5t3.5 -7.5t-3.5 -6.5t-5.5 -4.5l-2 -2
q-112 44 -136 54q-17 8 -17 14t7.5 20.5t12.5 14.5z" />
    <glyph glyph-name="eacute" unicode="&#xe9;" horiz-adv-x="439" 
d="M332 254q-156 -17 -190 -23q-24 -4 -31.5 -11t-7.5 -30q0 -64 48.5 -104.5t115.5 -40.5q34 0 61 8.5t40 19t23.5 19t14.5 8.5q6 0 10 -4t3 -10q-7 -34 -69 -65t-110 -31q-83 0 -144.5 65t-61.5 148q0 97 64.5 172t159.5 75q65 0 115.5 -40.5t50.5 -104.5q0 -10 -2.5 -18
t-8.5 -13t-11 -8.5t-16 -5.5l-16.5 -3t-19.5 -2t-18 -1zM349 318q0 40 -34.5 67t-75.5 27q-44 0 -86 -46.5t-41 -95.5q0 -11 31 -7q114 12 170 20q36 4 36 35zM181 483l-10 11l15 19q121 74 128 74q4 0 12.5 -16t8.5 -21q0 -4 -18 -11z" />
    <glyph glyph-name="ecircumflex" unicode="&#xea;" horiz-adv-x="439" 
d="M332 254q-156 -17 -190 -23q-24 -4 -31.5 -11t-7.5 -30q0 -64 48.5 -104.5t115.5 -40.5q34 0 61 8.5t40 19t23.5 19t14.5 8.5q6 0 10 -4t3 -10q-7 -34 -69 -65t-110 -31q-83 0 -144.5 65t-61.5 148q0 97 64.5 172t159.5 75q65 0 115.5 -40.5t50.5 -104.5q0 -10 -2.5 -18
t-8.5 -13t-11 -8.5t-16 -5.5l-16.5 -3t-19.5 -2t-18 -1zM349 318q0 40 -34.5 67t-75.5 27q-44 0 -86 -46.5t-41 -95.5q0 -11 31 -7q114 12 170 20q36 4 36 35zM249 522q-13 0 -40 -10.5t-47 -21.5l-21 -10l-12 11l6 9q94 74 114 74q8 0 36.5 -18.5t52.5 -37.5l25 -18l6 -9
l-13 -11q-80 42 -107 42z" />
    <glyph glyph-name="edieresis" unicode="&#xeb;" horiz-adv-x="439" 
d="M332 254q-156 -17 -190 -23q-24 -4 -31.5 -11t-7.5 -30q0 -64 48.5 -104.5t115.5 -40.5q34 0 61 8.5t40 19t23.5 19t14.5 8.5q6 0 10 -4t3 -10q-7 -34 -69 -65t-110 -31q-83 0 -144.5 65t-61.5 148q0 97 64.5 172t159.5 75q65 0 115.5 -40.5t50.5 -104.5q0 -10 -2.5 -18
t-8.5 -13t-11 -8.5t-16 -5.5l-16.5 -3t-19.5 -2t-18 -1zM349 318q0 40 -34.5 67t-75.5 27q-44 0 -86 -46.5t-41 -95.5q0 -11 31 -7q114 12 170 20q36 4 36 35zM176 580q14 4 27.5 -12.5t11.5 -33.5q-1 -15 -18 -26t-31 -13q-7 -1 -11.5 4.5t-7.5 13.5t-4 9q-8 12 -23 15
q-3 0 -3 4t2 8q4 5 23 16t34 15zM339 580q14 4 27.5 -12.5t11.5 -33.5q-1 -15 -18 -26t-31 -13q-7 -1 -11.5 4.5t-7.5 13.5t-4 9q-8 12 -23 15q-4 0 -4 4t3 8q3 5 22 16t35 15z" />
    <glyph glyph-name="igrave" unicode="&#xec;" horiz-adv-x="172" 
d="M59 1q3 13 3 35v357q0 27 -11 49q-2 3 1.5 5.5t9.5 3.5t11 1.5t9 0.5h8.5h9h8t7.5 -1t5.5 -2.5t4 -4t1.5 -5.5v-56v-2q-7 -333 4 -382q1 -7 -7.5 -9t-24.5 -2q-8 0 -14 0.5t-12.5 1.5t-10 3.5t-2.5 6.5zM30 588q6 0 38 -18t61 -36l29 -19q2 -1 5 -3t7.5 -6.5t3.5 -7.5
t-3.5 -6.5t-4.5 -5.5l-3 -1q-112 44 -136 54q-1 0 -5 2l-6 3t-4 3.5t-2 5.5q0 6 7.5 20.5t12.5 14.5z" />
    <glyph glyph-name="iacute" unicode="&#xed;" horiz-adv-x="172" 
d="M59 1q3 13 3 35v357q0 27 -11 49q-2 3 1.5 5.5t9.5 3.5t11 1.5t9 0.5h8.5h9h8t7.5 -1t5.5 -2.5t4 -4t1.5 -5.5v-56v-2q-7 -333 4 -382q1 -7 -7.5 -9t-24.5 -2q-8 0 -14 0.5t-12.5 1.5t-10 3.5t-2.5 6.5zM40 495l-10 11l15 19q121 74 128 74q4 0 12.5 -16t8.5 -21
q0 -4 -18 -11z" />
    <glyph glyph-name="icircumflex" unicode="&#xee;" horiz-adv-x="172" 
d="M59 1q3 13 3 35v357q0 27 -11 49q-2 3 1.5 5.5t9.5 3.5t11 1.5t9 0.5h8.5h9h8t7.5 -1t5.5 -2.5t4 -4t1.5 -5.5v-56v-2q-7 -333 4 -382q1 -7 -7.5 -9t-24.5 -2q-8 0 -14 0.5t-12.5 1.5t-10 3.5t-2.5 6.5zM95 542q-13 0 -40 -10.5t-47 -21.5l-21 -10l-12 11l6 9
q94 74 114 74q8 0 36.5 -18.5t52.5 -37.5l25 -18l6 -9l-13 -11q-80 42 -107 42z" />
    <glyph glyph-name="idieresis" unicode="&#xef;" horiz-adv-x="172" 
d="M59 1q3 13 3 35v357q0 27 -11 49q-2 3 1.5 5.5t9.5 3.5t11 1.5t9 0.5h8.5h9h8t7.5 -1t5.5 -2.5t4 -4t1.5 -5.5v-56v-2q-7 -333 4 -382q1 -7 -7.5 -9t-24.5 -2q-8 0 -14 0.5t-12.5 1.5t-10 3.5t-2.5 6.5zM21 613q14 4 27.5 -12.5t11.5 -33.5q-1 -15 -18 -26t-31 -13
q-7 -1 -11.5 4.5t-7.5 13.5t-4 9q-8 12 -23 15q-3 0 -3 4t2 8q4 5 23 16t34 15zM184 613q14 4 27.5 -12.5t11.5 -33.5q-1 -15 -18 -26t-31 -13q-7 -1 -11.5 4.5t-7.5 13.5t-4 9q-8 12 -23 15q-4 0 -4 4t3 8q3 5 22 16t35 15z" />
    <glyph glyph-name="eth" unicode="&#xf0;" horiz-adv-x="491" 
d="M161 484q-13 -7 -23 0t-10 19t13 19l112 59q-72 79 -145 103q-2 1 -8 2.5t-10.5 3.5t-9.5 4.5t-7.5 6t-2.5 7.5q0 8 14 8q15 0 59 -14q90 -33 157 -96l102 54q13 7 23 0t10 -19t-13 -19l-91 -48q125 -143 125 -367q0 -91 -55.5 -155.5t-153.5 -64.5q-92 0 -153 63
t-61 147q0 80 62.5 147t148.5 67q34 0 107 -21l5 3q-15 76 -75 154zM108 193q-9 -61 15.5 -116t87.5 -62q46 -5 84.5 22t59 66t25.5 79q5 25 1.5 58t-12 62t-32 50.5t-57.5 25.5q-68 7 -115.5 -55t-56.5 -130z" />
    <glyph glyph-name="ntilde" unicode="&#xf1;" horiz-adv-x="453" 
d="M52 316q0 61 -17 101q-1 2 -1 6q0 12 19 21t38 9q20 0 21 -11l5 -38q0 -5 4 -5q2 0 21.5 12.5t52 25.5t64.5 13q36 0 63.5 -10.5t44 -31.5t27 -43t15 -55.5t5.5 -56.5t1 -59q0 -4 -0.5 -32.5t-0.5 -67.5q0 -66 4 -90q0 -15 -31 -15q-33 0 -39 14q4 26 4 43v202
q0 67 -29.5 112.5t-94.5 45.5q-75 0 -94.5 -37t-19.5 -143q0 -199 6 -226q0 -11 -38 -11q-34 0 -34 10q0 4 2 16t2 21v280zM118 495q0 20 26.5 45.5t46.5 25.5q23 0 57.5 -18.5t49.5 -18.5q21 0 38 16t19 16q7 0 7 -7q0 -18 -27 -42t-46 -24q-24 0 -56.5 17.5t-48.5 17.5
q-13 0 -26 -9t-20.5 -18t-8.5 -9q-11 0 -11 8z" />
    <glyph glyph-name="ograve" unicode="&#xf2;" horiz-adv-x="497" 
d="M491 216q0 -91 -65.5 -158.5t-155.5 -67.5q-99 0 -167 64t-68 162q0 96 65.5 165t161.5 69t162.5 -69t66.5 -165zM417 185q0 87 -46 160t-128 73q-68 0 -102 -49.5t-34 -120.5q0 -77 51 -151t125 -74q64 0 99 48t35 114zM215 583q6 0 38 -18.5t61 -36.5l29 -18q2 -1 5 -3
t7.5 -6.5t3.5 -7.5t-3.5 -6.5t-5.5 -4.5l-2 -2q-112 44 -136 54q-17 8 -17 14t7.5 20.5t12.5 14.5z" />
    <glyph glyph-name="oacute" unicode="&#xf3;" horiz-adv-x="498" 
d="M491 216q0 -91 -65.5 -158.5t-155.5 -67.5q-99 0 -167 64t-68 162q0 96 65.5 165t161.5 69t162.5 -69t66.5 -165zM417 185q0 87 -46 160t-128 73q-68 0 -102 -49.5t-34 -120.5q0 -77 51 -151t125 -74q64 0 99 48t35 114zM211 480l-10 11l15 19q121 74 128 74
q4 0 12.5 -16t8.5 -21q0 -4 -18 -11z" />
    <glyph glyph-name="ocircumflex" unicode="&#xf4;" horiz-adv-x="493" 
d="M491 216q0 -91 -65.5 -158.5t-155.5 -67.5q-99 0 -167 64t-68 162q0 96 65.5 165t161.5 69t162.5 -69t66.5 -165zM417 185q0 87 -46 160t-128 73q-68 0 -102 -49.5t-34 -120.5q0 -77 51 -151t125 -74q64 0 99 48t35 114zM270 516q-13 0 -40 -10.5t-48 -21.5l-20 -10
l-12 11l6 9q94 74 114 74q8 0 36.5 -18.5t53.5 -37.5l24 -18l6 -9l-13 -11q-80 42 -107 42z" />
    <glyph glyph-name="otilde" unicode="&#xf5;" horiz-adv-x="500" 
d="M491 216q0 -91 -65.5 -158.5t-155.5 -67.5q-99 0 -167 64t-68 162q0 96 65.5 165t161.5 69t162.5 -69t66.5 -165zM417 185q0 87 -46 160t-128 73q-68 0 -102 -49.5t-34 -120.5q0 -77 51 -151t125 -74q64 0 99 48t35 114zM133 496q0 20 26.5 45.5t46.5 25.5
q23 0 57.5 -18.5t49.5 -18.5q21 0 38 16t19 16q7 0 7 -7q0 -18 -27 -42t-46 -24q-24 0 -56.5 17.5t-48.5 17.5q-13 0 -26 -9t-20.5 -18t-8.5 -9q-11 0 -11 8z" />
    <glyph glyph-name="odieresis" unicode="&#xf6;" horiz-adv-x="500" 
d="M491 216q0 -91 -65.5 -158.5t-155.5 -67.5q-99 0 -167 64t-68 162q0 96 65.5 165t161.5 69t162.5 -69t66.5 -165zM417 185q0 87 -46 160t-128 73q-68 0 -102 -49.5t-34 -120.5q0 -77 51 -151t125 -74q64 0 99 48t35 114zM182 571q14 4 27.5 -12.5t11.5 -33.5
q-1 -15 -18 -26t-31 -13q-7 -1 -11.5 4.5t-7.5 13.5t-4 9q-8 12 -23 15q-3 0 -3 4t2 8q4 5 23 16t34 15zM345 571q14 4 27.5 -12.5t11.5 -33.5q-1 -15 -18 -26t-31 -13q-7 -1 -11.5 4.5t-7.5 13.5t-4 9q-8 12 -23 15q-4 0 -4 4t3 8q3 5 22 16t35 15z" />
    <glyph glyph-name="divide" unicode="&#xf7;" horiz-adv-x="467" 
d="M49 278h369q11 0 11 -18q0 -20 -11 -20h-369q-12 0 -12 19t12 19zM234 397q17 0 29.5 -12.5t12.5 -28.5q0 -17 -12.5 -29t-29.5 -12q-16 0 -28.5 12.5t-12.5 28.5t12.5 28.5t28.5 12.5zM234 193q16 0 28.5 -12.5t12.5 -28.5t-12.5 -28.5t-28.5 -12.5t-28.5 12.5
t-12.5 28.5t12.5 28.5t28.5 12.5z" />
    <glyph glyph-name="oslash" unicode="&#xf8;" horiz-adv-x="524" 
d="M402 402q41 -33 64.5 -83t23.5 -103q0 -90 -65.5 -158t-155.5 -68q-69 0 -116 27q-38 -57 -43 -58t-9.5 -1.5t-7 0.5t-4.5 3t-3 3.5t-1.5 4.5t-0.5 4v3v3q0 2 8 14.5t18 28t11 16.5q-40 32 -63.5 79.5t-23.5 98.5q0 97 65.5 165.5t161.5 68.5q59 0 110 -27q1 2 6 9.5
t10 15.5t10.5 16.5t10.5 13.5t7 5l2 -1q1 -1 5.5 -1.5t8 -1t6.5 -5t3 -12.5q0 -2 -8 -14.5t-18.5 -28t-11.5 -17.5zM368 348l-184 -282q43 -43 98 -43q64 0 99 48.5t35 114.5q0 96 -48 162zM159 96l183 281q-44 41 -100 41q-67 0 -101.5 -49.5t-34.5 -119.5q0 -78 53 -153z
" />
    <glyph glyph-name="ugrave" unicode="&#xf9;" horiz-adv-x="442" 
d="M408 127q0 -57 9 -107v-3q0 -11 -12 -18.5t-27 -7.5q-18 0 -24.5 14.5t-7 29.5t-3.5 15h-2q-1 0 -9 -5.5t-21 -13.5t-29.5 -15.5t-37 -13t-38.5 -5.5q-79 0 -122 55.5t-43 136.5q0 220 -5 248q-3 17 35 17q15 0 27 -5.5t11 -14.5q-5 -58 -5 -90q0 -8 -0.5 -38.5t-0.5 -48
t2 -48.5t6.5 -50.5t14 -44t23 -38.5t34.5 -24t48 -10q33 0 73.5 22.5t40.5 52.5q0 29 -1 116t-1 115v41q0 7 -2 20.5t-2 25.5q0 8 12.5 13t27.5 5q28 0 28 -14q0 -7 -0.5 -17t-0.5 -14q0 -207 2 -281zM181 578q6 0 38 -18t61 -36l29 -19q2 -1 5 -3t7.5 -6.5t3.5 -7.5
t-3.5 -6.5t-5.5 -5.5l-2 -1q-112 44 -136 54q-1 0 -5 2l-6 3t-4 3.5t-2 5.5q0 6 7.5 20.5t12.5 14.5z" />
    <glyph glyph-name="uacute" unicode="&#xfa;" horiz-adv-x="444" 
d="M408 127q0 -57 9 -107v-3q0 -11 -12 -18.5t-27 -7.5q-18 0 -24.5 14.5t-7 29.5t-3.5 15h-2q-1 0 -9 -5.5t-21 -13.5t-29.5 -15.5t-37 -13t-38.5 -5.5q-79 0 -122 55.5t-43 136.5q0 220 -5 248q-3 17 35 17q15 0 27 -5.5t11 -14.5q-5 -58 -5 -90q0 -8 -0.5 -38.5t-0.5 -48
t2 -48.5t6.5 -50.5t14 -44t23 -38.5t34.5 -24t48 -10q33 0 73.5 22.5t40.5 52.5q0 29 -1 116t-1 115v41q0 7 -2 20.5t-2 25.5q0 8 12.5 13t27.5 5q28 0 28 -14q0 -7 -0.5 -17t-0.5 -14q0 -207 2 -281zM184 477l-10 11l15 19q121 74 128 74q4 0 12.5 -16t8.5 -21
q0 -4 -18 -11z" />
    <glyph glyph-name="ucircumflex" unicode="&#xfb;" horiz-adv-x="441" 
d="M408 127q0 -57 9 -107v-3q0 -11 -12 -18.5t-27 -7.5q-18 0 -24.5 14.5t-7 29.5t-3.5 15h-2q-1 0 -9 -5.5t-21 -13.5t-29.5 -15.5t-37 -13t-38.5 -5.5q-79 0 -122 55.5t-43 136.5q0 220 -5 248q-3 17 35 17q15 0 27 -5.5t11 -14.5q-5 -58 -5 -90q0 -8 -0.5 -38.5t-0.5 -48
t2 -48.5t6.5 -50.5t14 -44t23 -38.5t34.5 -24t48 -10q33 0 73.5 22.5t40.5 52.5q0 29 -1 116t-1 115v41q0 7 -2 20.5t-2 25.5q0 8 12.5 13t27.5 5q28 0 28 -14q0 -7 -0.5 -17t-0.5 -14q0 -207 2 -281zM237 526q-13 0 -40 -10.5t-47 -21.5l-21 -10l-12 11l6 9q94 74 114 74
q8 0 36.5 -18.5t52.5 -37.5l25 -18l6 -9l-13 -11q-80 42 -107 42z" />
    <glyph glyph-name="udieresis" unicode="&#xfc;" horiz-adv-x="442" 
d="M408 127q0 -57 9 -107v-3q0 -11 -12 -18.5t-27 -7.5q-18 0 -24.5 14.5t-7 29.5t-3.5 15h-2q-1 0 -9 -5.5t-21 -13.5t-29.5 -15.5t-37 -13t-38.5 -5.5q-79 0 -122 55.5t-43 136.5q0 220 -5 248q-3 17 35 17q15 0 27 -5.5t11 -14.5q-5 -58 -5 -90q0 -8 -0.5 -38.5t-0.5 -48
t2 -48.5t6.5 -50.5t14 -44t23 -38.5t34.5 -24t48 -10q33 0 73.5 22.5t40.5 52.5q0 29 -1 116t-1 115v41q0 7 -2 20.5t-2 25.5q0 8 12.5 13t27.5 5q28 0 28 -14q0 -7 -0.5 -17t-0.5 -14q0 -207 2 -281zM164 571q14 4 27.5 -12.5t11.5 -33.5q-1 -15 -18 -26t-31 -13
q-7 -1 -11.5 4.5t-7.5 13.5t-4 9q-8 12 -23 15q-3 0 -3 4t2 8q4 5 23 16t34 15zM327 571q14 4 27.5 -12.5t11.5 -33.5q-1 -15 -18 -26t-31 -13q-7 -1 -11.5 4.5t-7.5 13.5t-4 9q-8 12 -23 15q-4 0 -4 4t3 8q3 5 22 16t35 15z" />
    <glyph glyph-name="yacute" unicode="&#xfd;" horiz-adv-x="543" 
d="M323 116q1 3 22 47t33.5 73t31 72t29 76t12.5 53q1 16 37 16q24 0 24 -9q0 -2 -1 -3q-29 -50 -30 -53l-84 -186q-7 -15 -30.5 -68.5t-42.5 -95.5t-49.5 -98t-58.5 -93.5t-62.5 -64.5t-67.5 -27q-20 0 -36 9.5t-16 28.5q0 10 4.5 14t9.5 4t14.5 -2t15.5 -2q45 0 80 26
t68 82.5t33 86.5q0 52 -161 422l-4 7q-3 7 -3 10q0 13 32 13q43 0 49 -21q14 -51 48.5 -134.5t61.5 -142.5l28 -58q6 0 13 18zM223 495l-10 11l15 19q121 74 128 74q4 0 12.5 -16t8.5 -21q0 -4 -18 -11z" />
    <glyph glyph-name="thorn" unicode="&#xfe;" horiz-adv-x="491" 
d="M236 23q69 0 110 56t41 128q0 77 -51 140.5t-126 63.5q-29 0 -48.5 -8t-30 -19.5t-16 -36t-6.5 -45.5t-1 -61v-379q0 -21 5 -50t5 -36q0 -25 -50 -25q-27 0 -27 8q0 3 2.5 16t2.5 23l-4 883q0 39 -7 55q-2 2 -2 6q0 12 31 12q43 0 43 -17q0 -46 -0.5 -153.5t-0.5 -163.5
q2 -1 5.5 -4.5t5.5 -4.5q4 2 16.5 8.5t17 8.5t15.5 6.5t17.5 6.5t16.5 4.5t19 3.5t19 1q90 0 156.5 -65t66.5 -154q0 -99 -70.5 -168.5t-169.5 -69.5q-59 0 -82 12q-20 12 -17 40q1 17 11 17q5 0 12 -7q10 -11 35.5 -21.5t55.5 -10.5z" />
    <glyph glyph-name="ydieresis" unicode="&#xff;" horiz-adv-x="466" 
d="M252 116q1 3 22 47t33.5 73t31 72t29 76t12.5 53q1 16 37 16q24 0 24 -9q0 -2 -1 -3q-29 -50 -30 -53l-84 -186q-7 -15 -30.5 -68.5t-42.5 -95.5t-49.5 -98t-58.5 -93.5t-62.5 -64.5t-67.5 -27q-20 0 -36 9.5t-16 28.5q0 10 4.5 14t9.5 4t14.5 -2t15.5 -2q45 0 80 26
t68 82.5t33 86.5q0 52 -161 422l-3 7q-4 7 -4 10q0 13 32 13q43 0 49 -21q14 -51 48.5 -134.5t62.5 -142.5l27 -58q6 0 13 18zM178 601q14 4 27.5 -12.5t11.5 -33.5q-1 -15 -18 -26t-31 -13q-7 -1 -11.5 4.5t-7.5 13.5t-4 9q-8 12 -23 15q-3 0 -3 4t2 8q4 5 23 16t34 15z
M341 601q14 4 27.5 -12.5t11.5 -33.5q-1 -15 -18 -26t-31 -13q-7 -1 -11.5 4.5t-7.5 13.5t-4 9q-8 12 -23 15q-4 0 -4 4t3 8q3 5 22 16t35 15z" />
    <glyph glyph-name="Amacron" unicode="&#x100;" horiz-adv-x="701" 
d="M311 643q8 39 32 39q7 0 14.5 -3t11.5 -7l4 -3q0 -25 102.5 -299.5t137.5 -352.5q1 -1 1 -5q0 -23 -44 -23q-32 0 -40 28l-103 299q-223 -24 -226 -35q-3 -10 -25.5 -68t-42 -114t-24.5 -87q-5 -27 -60 -27q-17 0 -17 27q49 89 159 333.5t120 297.5zM413 356
q-74 217 -85 217q-3 0 -8 -8q-8 -14 -54.5 -124.5t-47.5 -116.5q16 4 64.5 12t89.5 14zM448 710h-214q-10 0 -10 11v23q0 11 10 11h214q10 0 10 -11v-23q0 -11 -10 -11z" />
    <glyph glyph-name="amacron" unicode="&#x101;" horiz-adv-x="388" 
d="M161 409q-11 0 -40 -11.5t-41 -11.5q-22 0 -22 18q0 46 196 46q111 0 111 -143v-182q0 -80 9 -124v-2q0 -9 -32 -9q-26 0 -35 9t-13 38q-40 -29 -72.5 -38t-88.5 -9q-38 0 -68.5 38t-30.5 84q0 43 13 74t33.5 48.5t53.5 27.5t63.5 12.5t73.5 2.5q5 0 10 -4.5t5 -10.5
q0 -17 -11 -17q-7 0 -22.5 2.5t-22.5 2.5q-53 0 -88 -29.5t-35 -87.5q0 -44 31.5 -71.5t65.5 -27.5q94 0 94 130q0 5 -0.5 14t-1 34t-0.5 60q0 32 -3.5 52.5t-16 42t-41.5 32t-74 10.5zM310 522h-214q-10 0 -10 11v23q0 11 10 11h214q10 0 10 -11v-23q0 -11 -10 -11z" />
    <glyph glyph-name="Abreve" unicode="&#x102;" horiz-adv-x="701" 
d="M311 643q8 39 32 39q7 0 14.5 -3t11.5 -7l4 -3q0 -25 102.5 -299.5t137.5 -352.5q1 -1 1 -5q0 -23 -44 -23q-32 0 -40 28l-103 299q-223 -24 -226 -35q-3 -10 -25.5 -68t-42 -114t-24.5 -87q-5 -27 -60 -27q-17 0 -17 27q49 89 159 333.5t120 297.5zM413 356
q-74 217 -85 217q-3 0 -8 -8q-8 -14 -54.5 -124.5t-47.5 -116.5q16 4 64.5 12t89.5 14zM455 789q0 -34 -40 -59t-76 -25t-76.5 25t-40.5 59q0 7 14 7q9 0 19.5 -7.5t19.5 -16t26 -16t38 -7.5q25 0 45 11.5t33 23.5t20 12q18 0 18 -7z" />
    <glyph glyph-name="abreve" unicode="&#x103;" horiz-adv-x="385" 
d="M161 409q-11 0 -40 -11.5t-41 -11.5q-22 0 -22 18q0 46 196 46q111 0 111 -143v-182q0 -80 9 -124v-2q0 -9 -32 -9q-26 0 -35 9t-13 38q-40 -29 -72.5 -38t-88.5 -9q-38 0 -68.5 38t-30.5 84q0 43 13 74t33.5 48.5t53.5 27.5t63.5 12.5t73.5 2.5q5 0 10 -4.5t5 -10.5
q0 -17 -11 -17q-7 0 -22.5 2.5t-22.5 2.5q-53 0 -88 -29.5t-35 -87.5q0 -44 31.5 -71.5t65.5 -27.5q94 0 94 130q0 5 -0.5 14t-1 34t-0.5 60q0 32 -3.5 52.5t-16 42t-41.5 32t-74 10.5zM317 585q0 -34 -40 -59t-76 -25t-76.5 25t-40.5 59q0 7 14 7q9 0 19.5 -7.5t19.5 -16
t26 -16t38 -7.5q25 0 45 11.5t33 23.5t20 12q18 0 18 -7z" />
    <glyph glyph-name="Aogonek" unicode="&#x104;" horiz-adv-x="623" 
d="M251 643q8 39 32 39q7 0 14.5 -3t11.5 -7l4 -3q0 -25 102.5 -299.5t137.5 -352.5q1 -1 1 -5q0 -23 -44 -23q-32 0 -40 28l-103 299q-223 -24 -226 -35q-3 -10 -25.5 -68t-42 -114t-24.5 -87q-5 -27 -60 -27q-17 0 -17 27q49 89 159 333.5t120 297.5zM353 356
q-74 217 -85 217q-3 0 -8 -8q-8 -14 -54.5 -124.5t-47.5 -116.5q16 4 64.5 12t89.5 14zM548 5q-62 -39 -62 -90q0 -85 89 -85q28 0 52 10l4 -9q-39 -23 -89 -23q-45 0 -72 25.5t-27 69.5q0 61 83 102h22z" />
    <glyph glyph-name="aogonek" unicode="&#x105;" horiz-adv-x="395" 
d="M161 409q-11 0 -40 -11.5t-41 -11.5q-22 0 -22 18q0 46 196 46q111 0 111 -143v-182q0 -80 9 -124v-2q0 -9 -32 -9q-26 0 -35 9t-13 38q-40 -29 -72.5 -38t-88.5 -9q-38 0 -68.5 38t-30.5 84q0 43 13 74t33.5 48.5t53.5 27.5t63.5 12.5t73.5 2.5q5 0 10 -4.5t5 -10.5
q0 -17 -11 -17q-7 0 -22.5 2.5t-22.5 2.5q-53 0 -88 -29.5t-35 -87.5q0 -44 31.5 -71.5t65.5 -27.5q94 0 94 130q0 5 -0.5 14t-1 34t-0.5 60q0 32 -3.5 52.5t-16 42t-41.5 32t-74 10.5zM357 0q-62 -39 -62 -90q0 -85 89 -85q28 0 52 10l4 -9q-39 -23 -89 -23q-45 0 -72 25.5
t-27 69.5q0 60 83 102h22z" />
    <glyph glyph-name="Cacute" unicode="&#x106;" horiz-adv-x="636" 
d="M34 333q0 146 106.5 245.5t253.5 99.5q38 0 106.5 -17t121.5 -43q18 -24 18 -44q0 -23 -33 -23h-9q-25 25 -41 38t-42.5 27.5t-61.5 21t-82 6.5q-74 0 -133.5 -47.5t-90 -118.5t-30.5 -145q0 -123 85 -211.5t209 -88.5q117 0 180 74q2 2 4 6t3 7t3.5 5t6.5 2
q6 0 12.5 -10.5t6.5 -18.5l-1 -1v-2q-14 -44 -73.5 -75.5t-143.5 -31.5q-158 0 -266.5 94.5t-108.5 250.5zM310 687l-10 11l15 19q121 74 128 74q4 0 12.5 -16t8.5 -21q0 -4 -18 -11z" />
    <glyph glyph-name="cacute" unicode="&#x107;" horiz-adv-x="412" 
d="M101 232q0 -76 51 -133t125 -57q38 0 64.5 9t37.5 17.5t12 8.5q15 0 10 -13q-7 -33 -48 -53.5t-98 -20.5q-92 0 -156.5 62.5t-64.5 153.5q0 99 77.5 171.5t177.5 72.5q21 0 41 -3.5t38 -16.5t18 -34q0 -14 -11 -25t-25 -11q-15 0 -31 8q-3 15 -23 25.5t-47 10.5h-18
q-57 0 -93.5 -56t-36.5 -116zM191 495l-10 11l15 19q121 74 128 74q4 0 12.5 -16t8.5 -21q0 -4 -18 -11z" />
    <glyph glyph-name="Ccircumflex" unicode="&#x108;" horiz-adv-x="636" 
d="M34 333q0 146 106.5 245.5t253.5 99.5q38 0 106.5 -17t121.5 -43q18 -24 18 -44q0 -23 -33 -23h-9q-25 25 -41 38t-42.5 27.5t-61.5 21t-82 6.5q-74 0 -133.5 -47.5t-90 -118.5t-30.5 -145q0 -123 85 -211.5t209 -88.5q117 0 180 74q2 2 4 6t3 7t3.5 5t6.5 2
q6 0 12.5 -10.5t6.5 -18.5l-1 -1v-2q-14 -44 -73.5 -75.5t-143.5 -31.5q-158 0 -266.5 94.5t-108.5 250.5zM394 733q-13 0 -40 -10.5t-48 -20.5l-20 -11l-12 11l6 9q94 74 114 74q8 0 36.5 -18.5t53.5 -36.5l24 -19l6 -9l-13 -11q-80 42 -107 42z" />
    <glyph glyph-name="ccircumflex" unicode="&#x109;" horiz-adv-x="412" 
d="M101 232q0 -76 51 -133t125 -57q38 0 64.5 9t37.5 17.5t12 8.5q15 0 10 -13q-7 -33 -48 -53.5t-98 -20.5q-92 0 -156.5 62.5t-64.5 153.5q0 99 77.5 171.5t177.5 72.5q21 0 41 -3.5t38 -16.5t18 -34q0 -14 -11 -25t-25 -11q-15 0 -31 8q-3 15 -23 25.5t-47 10.5h-18
q-57 0 -93.5 -56t-36.5 -116zM269 542q-13 0 -40 -10.5t-47 -21.5l-21 -10l-12 11l6 9q94 74 114 74q8 0 36.5 -18.5t52.5 -37.5l25 -18l6 -9l-13 -11q-80 42 -107 42z" />
    <glyph glyph-name="Cdotaccent" unicode="&#x10a;" horiz-adv-x="636" 
d="M34 333q0 146 106.5 245.5t253.5 99.5q38 0 106.5 -17t121.5 -43q18 -24 18 -44q0 -23 -33 -23h-9q-25 25 -41 38t-42.5 27.5t-61.5 21t-82 6.5q-74 0 -133.5 -47.5t-90 -118.5t-30.5 -145q0 -123 85 -211.5t209 -88.5q117 0 180 74q2 2 4 6t3 7t3.5 5t6.5 2
q6 0 12.5 -10.5t6.5 -18.5l-1 -1v-2q-14 -44 -73.5 -75.5t-143.5 -31.5q-158 0 -266.5 94.5t-108.5 250.5zM395 701q-26 0 -44.5 19t-18.5 45t18.5 44.5t44.5 18.5t45 -18.5t19 -44.5t-19 -45t-45 -19z" />
    <glyph glyph-name="cdotaccent" unicode="&#x10b;" horiz-adv-x="412" 
d="M101 232q0 -76 51 -133t125 -57q38 0 64.5 9t37.5 17.5t12 8.5q15 0 10 -13q-7 -33 -48 -53.5t-98 -20.5q-92 0 -156.5 62.5t-64.5 153.5q0 99 77.5 171.5t177.5 72.5q21 0 41 -3.5t38 -16.5t18 -34q0 -14 -11 -25t-25 -11q-15 0 -31 8q-3 15 -23 25.5t-47 10.5h-18
q-57 0 -93.5 -56t-36.5 -116zM272 485q-26 0 -44.5 19t-18.5 45t18.5 44.5t44.5 18.5t45 -18.5t19 -44.5t-19 -45t-45 -19z" />
    <glyph glyph-name="Ccaron" unicode="&#x10c;" horiz-adv-x="636" 
d="M34 333q0 146 106.5 245.5t253.5 99.5q38 0 106.5 -17t121.5 -43q18 -24 18 -44q0 -23 -33 -23h-9q-25 25 -41 38t-42.5 27.5t-61.5 21t-82 6.5q-74 0 -133.5 -47.5t-90 -118.5t-30.5 -145q0 -123 85 -211.5t209 -88.5q117 0 180 74q2 2 4 6t3 7t3.5 5t6.5 2
q6 0 12.5 -10.5t6.5 -18.5l-1 -1v-2q-14 -44 -73.5 -75.5t-143.5 -31.5q-158 0 -266.5 94.5t-108.5 250.5zM388 757q12 0 39 10.5t47 20.5l21 11l13 -11l-6 -9q-96 -74 -114 -74q-9 0 -37.5 18.5t-52.5 36.5l-24 19l-6 9l12 11q78 -42 108 -42z" />
    <glyph glyph-name="ccaron" unicode="&#x10d;" horiz-adv-x="412" 
d="M101 232q0 -76 51 -133t125 -57q38 0 64.5 9t37.5 17.5t12 8.5q15 0 10 -13q-7 -33 -48 -53.5t-98 -20.5q-92 0 -156.5 62.5t-64.5 153.5q0 99 77.5 171.5t177.5 72.5q21 0 41 -3.5t38 -16.5t18 -34q0 -14 -11 -25t-25 -11q-15 0 -31 8q-3 15 -23 25.5t-47 10.5h-18
q-57 0 -93.5 -56t-36.5 -116zM261 552q12 0 38.5 10.5t47.5 21.5l21 10l13 -11l-6 -9q-96 -74 -114 -74q-9 0 -37.5 18.5t-52.5 37.5l-24 18l-6 9l12 11q78 -42 108 -42z" />
    <glyph glyph-name="Dcaron" unicode="&#x10e;" horiz-adv-x="670" 
d="M54 642q-3 10 -1 16.5t4 10.5t7.5 5t9 1t8.5 -1h4q33 0 99 1.5t99 1.5q103 0 185 -32.5t135 -107t53 -182.5q0 -87 -34.5 -157t-92.5 -114t-131.5 -67t-155.5 -23q-25 0 -92 -2t-92 -2q-32 0 -23 10q15 15 21 307.5t-3 334.5zM243 29q156 0 243 74t87 228
q0 138 -92 224.5t-231 86.5q-3 0 -21.5 0.5t-26.5 0t-23.5 -2.5t-24 -6t-16.5 -12.5t-10 -20.5q-7 -43 -5 -278t7 -251q14 -43 113 -43zM309 749q12 0 38.5 10.5t47.5 20.5l21 11l13 -11l-6 -9q-96 -74 -114 -74q-9 0 -37.5 18.5t-52.5 36.5l-24 19l-6 9l12 11
q78 -42 108 -42z" />
    <glyph glyph-name="dcaron" unicode="&#x10f;" horiz-adv-x="509" 
d="M451 11q0 -2 0.5 -6t0.5 -5q0 -12 -30 -12q-34 0 -34 11q0 10 0.5 23t0.5 14q0 7 -5 7q-1 0 -9 -5.5t-21.5 -13.5t-29.5 -15.5t-36 -13t-37 -5.5q-89 0 -152.5 61t-63.5 150q0 104 69 176.5t172 72.5q46 0 104 -26q4 2 4 6v222q0 59 -7 84q0 19 40 19q29 0 29 -10v-97
q0 -57 2.5 -331t2.5 -306zM269 416q-78 0 -122.5 -53t-44.5 -132q0 -74 55.5 -128.5t129.5 -54.5q42 0 69.5 19t27.5 59v215q0 35 -38 55t-77 20zM515 665q17 2 33.5 -7.5t17.5 -34.5q0 -24 -17 -41.5t-34 -23.5l-17 -5q-1 0 -3 -1t-5 -3.5t-4 -4.5t1.5 -4.5t10.5 -3.5
q26 -4 49 8t37.5 33t22.5 38t12 30q6 21 -14.5 51.5t-48.5 34.5q-56 7 -56 -32q0 -36 15 -34z" />
    <glyph glyph-name="Dcroat" unicode="&#x110;" horiz-adv-x="762" 
d="M124 642q-3 10 -1 16.5t4 10.5t7.5 5t9 1t8.5 -1h4q33 0 99 1.5t99 1.5q103 0 185 -32.5t135 -107t53 -182.5q0 -87 -34.5 -157t-92.5 -114t-131.5 -67t-155.5 -23q-25 0 -92 -2t-92 -2q-32 0 -23 10q15 15 21 323l-63 1q-22 0 -22 22t22 22l64 -1q4 237 -4 275zM313 29
q156 0 243 74t87 228q0 138 -92 224.5t-231 86.5q-3 0 -21.5 0.5t-26.5 0t-23.5 -2.5t-24 -6t-16.5 -12.5t-10 -20.5q-6 -29 -6 -234l180 -2q11 0 17 -6.5t6 -15.5t-6 -15.5t-17 -6.5l-179 2q2 -237 7 -251q14 -43 113 -43zM124 642q-3 10 -1 16.5t4 10.5t7.5 5t9 1t8.5 -1
h4q33 0 99 1.5t99 1.5q103 0 185 -32.5t135 -107t53 -182.5q0 -87 -34.5 -157t-92.5 -114t-131.5 -67t-155.5 -23q-25 0 -92 -2t-92 -2q-32 0 -23 10q15 15 21 307.5t-3 334.5zM313 29q156 0 243 74t87 228q0 138 -92 224.5t-231 86.5q-3 0 -21.5 0.5t-26.5 0t-23.5 -2.5
t-24 -6t-16.5 -12.5t-10 -20.5q-7 -43 -5 -278t7 -251q14 -43 113 -43z" />
    <glyph glyph-name="dcroat" unicode="&#x111;" horiz-adv-x="483" 
d="M278 526q-14 0 -20 11t0 22t20 11l214 -3q14 0 20 -11t0 -22t-20 -11zM445 11q0 -2 0.5 -6t0.5 -5q0 -12 -30 -12q-34 0 -34 11q0 10 0.5 23t0.5 14q0 7 -5 7q-1 0 -9 -5.5t-21.5 -13.5t-29.5 -15.5t-36 -13t-37 -5.5q-89 0 -152.5 61t-63.5 150q0 104 69 176.5t172 72.5
q45 0 104 -26q4 2 4 6v222q0 59 -7 84q0 19 40 19q29 0 29 -10v-97q0 -57 2.5 -331t2.5 -306zM263 416q-78 0 -122.5 -53t-44.5 -132q0 -74 55.5 -128.5t129.5 -54.5q42 0 69.5 19t27.5 59v215q0 35 -38 55t-77 20z" />
    <glyph glyph-name="Emacron" unicode="&#x112;" horiz-adv-x="497" 
d="M49 561q0 15 -2 32.5t-3.5 28.5t-1.5 22.5t3.5 17.5t12 10t23.5 4q96 -4 144 -4q43 0 114.5 3.5t93.5 4.5q33 -14 33 -41q0 -31 -33 -31q-62 31 -218 31q-70 0 -84.5 -7t-14.5 -51v-194q0 -19 14 -19q41 0 110 9t94 24q10 0 19.5 -7.5t9.5 -19.5q0 -19 -33 -33
q-13 8 -57 8q-29 0 -64 -3.5t-58.5 -7.5t-24.5 -4q-10 0 -10 -10v-189q0 -65 23 -83t90 -18q50 0 119 8.5t104 20.5q24 -1 24 -18q0 -18 -27 -50q-156 5 -359 5q-24 0 -34.5 2t-13.5 9.5t-1 15.5t5.5 28t3.5 40q0 76 -0.5 232.5t-0.5 233.5zM385 734h-214q-10 0 -10 11v23
q0 11 10 11h214q10 0 10 -11v-23q0 -11 -10 -11z" />
    <glyph glyph-name="emacron" unicode="&#x113;" horiz-adv-x="439" 
d="M332 254q-156 -17 -190 -23q-24 -4 -31.5 -11t-7.5 -30q0 -64 48.5 -104.5t115.5 -40.5q34 0 61 8.5t40 19t23.5 19t14.5 8.5q6 0 10 -4t3 -10q-7 -34 -69 -65t-110 -31q-83 0 -144.5 65t-61.5 148q0 97 64.5 172t159.5 75q65 0 115.5 -40.5t50.5 -104.5q0 -10 -2.5 -18
t-8.5 -13t-11 -8.5t-16 -5.5l-16.5 -3t-19.5 -2t-18 -1zM349 318q0 40 -34.5 67t-75.5 27q-44 0 -86 -46.5t-41 -95.5q0 -11 31 -7q114 12 170 20q36 4 36 35zM348 522h-214q-10 0 -10 11v23q0 11 10 11h214q10 0 10 -11v-23q0 -11 -10 -11z" />
    <glyph glyph-name="Ebreve" unicode="&#x114;" horiz-adv-x="493" 
d="M49 561q0 15 -2 32.5t-3.5 28.5t-1.5 22.5t3.5 17.5t12 10t23.5 4q96 -4 144 -4q43 0 114.5 3.5t93.5 4.5q33 -14 33 -41q0 -31 -33 -31q-62 31 -218 31q-70 0 -84.5 -7t-14.5 -51v-194q0 -19 14 -19q41 0 110 9t94 24q10 0 19.5 -7.5t9.5 -19.5q0 -19 -33 -33
q-13 8 -57 8q-29 0 -64 -3.5t-58.5 -7.5t-24.5 -4q-10 0 -10 -10v-189q0 -65 23 -83t90 -18q50 0 119 8.5t104 20.5q24 -1 24 -18q0 -18 -27 -50q-156 5 -359 5q-24 0 -34.5 2t-13.5 9.5t-1 15.5t5.5 28t3.5 40q0 76 -0.5 232.5t-0.5 233.5zM394 801q0 -34 -40 -59t-76 -25
t-76.5 25t-40.5 59q0 7 14 7q9 0 19.5 -7.5t19.5 -16t26 -16t38 -7.5q25 0 45 11.5t33 23.5t20 12q18 0 18 -7z" />
    <glyph glyph-name="ebreve" unicode="&#x115;" horiz-adv-x="439" 
d="M332 254q-156 -17 -190 -23q-24 -4 -31.5 -11t-7.5 -30q0 -64 48.5 -104.5t115.5 -40.5q34 0 61 8.5t40 19t23.5 19t14.5 8.5q6 0 10 -4t3 -10q-7 -34 -69 -65t-110 -31q-83 0 -144.5 65t-61.5 148q0 97 64.5 172t159.5 75q65 0 115.5 -40.5t50.5 -104.5q0 -10 -2.5 -18
t-8.5 -13t-11 -8.5t-16 -5.5l-16.5 -3t-19.5 -2t-18 -1zM349 318q0 40 -34.5 67t-75.5 27q-44 0 -86 -46.5t-41 -95.5q0 -11 31 -7q114 12 170 20q36 4 36 35zM361 585q0 -34 -40 -59t-76 -25t-76.5 25t-40.5 59q0 7 14 7q9 0 19.5 -7.5t19.5 -16t26 -16t38 -7.5
q25 0 45 11.5t33 23.5t20 12q18 0 18 -7z" />
    <glyph glyph-name="Edotaccent" unicode="&#x116;" horiz-adv-x="493" 
d="M49 561q0 15 -2 32.5t-3.5 28.5t-1.5 22.5t3.5 17.5t12 10t23.5 4q96 -4 144 -4q43 0 114.5 3.5t93.5 4.5q33 -14 33 -41q0 -31 -33 -31q-62 31 -218 31q-70 0 -84.5 -7t-14.5 -51v-194q0 -19 14 -19q41 0 110 9t94 24q10 0 19.5 -7.5t9.5 -19.5q0 -19 -33 -33
q-13 8 -57 8q-29 0 -64 -3.5t-58.5 -7.5t-24.5 -4q-10 0 -10 -10v-189q0 -65 23 -83t90 -18q50 0 119 8.5t104 20.5q24 -1 24 -18q0 -18 -27 -50q-156 5 -359 5q-24 0 -34.5 2t-13.5 9.5t-1 15.5t5.5 28t3.5 40q0 76 -0.5 232.5t-0.5 233.5zM282 708q-26 0 -44.5 19
t-18.5 45t18.5 44.5t44.5 18.5t45 -18.5t19 -44.5t-19 -45t-45 -19z" />
    <glyph glyph-name="edotaccent" unicode="&#x117;" horiz-adv-x="439" 
d="M332 254q-156 -17 -190 -23q-24 -4 -31.5 -11t-7.5 -30q0 -64 48.5 -104.5t115.5 -40.5q34 0 61 8.5t40 19t23.5 19t14.5 8.5q6 0 10 -4t3 -10q-7 -34 -69 -65t-110 -31q-83 0 -144.5 65t-61.5 148q0 97 64.5 172t159.5 75q65 0 115.5 -40.5t50.5 -104.5q0 -10 -2.5 -18
t-8.5 -13t-11 -8.5t-16 -5.5l-16.5 -3t-19.5 -2t-18 -1zM349 318q0 40 -34.5 67t-75.5 27q-44 0 -86 -46.5t-41 -95.5q0 -11 31 -7q114 12 170 20q36 4 36 35zM237 485q-26 0 -44.5 19t-18.5 45t18.5 44.5t44.5 18.5t45 -18.5t19 -44.5t-19 -45t-45 -19z" />
    <glyph glyph-name="Eogonek" unicode="&#x118;" horiz-adv-x="493" 
d="M49 561q0 15 -2 32.5t-3.5 28.5t-1.5 22.5t3.5 17.5t12 10t23.5 4q96 -4 144 -4q43 0 114.5 3.5t93.5 4.5q33 -14 33 -41q0 -31 -33 -31q-62 31 -218 31q-70 0 -84.5 -7t-14.5 -51v-194q0 -19 14 -19q41 0 110 9t94 24q10 0 19.5 -7.5t9.5 -19.5q0 -19 -33 -33
q-13 8 -57 8q-29 0 -64 -3.5t-58.5 -7.5t-24.5 -4q-10 0 -10 -10v-189q0 -65 23 -83t90 -18q50 0 119 8.5t104 20.5q24 -1 24 -18q0 -18 -27 -50q-156 5 -359 5q-24 0 -34.5 2t-13.5 9.5t-1 15.5t5.5 28t3.5 40q0 76 -0.5 232.5t-0.5 233.5zM457 8q-62 -39 -62 -90
q0 -85 89 -85q28 0 52 10l4 -9q-39 -23 -89 -23q-45 0 -72 25.5t-27 69.5q0 60 83 102h22z" />
    <glyph glyph-name="eogonek" unicode="&#x119;" horiz-adv-x="439" 
d="M332 254q-156 -17 -190 -23q-24 -4 -31.5 -11t-7.5 -30q0 -64 48.5 -104.5t115.5 -40.5q34 0 61 8.5t40 19t23.5 19t14.5 8.5q6 0 10 -4t3 -10q-7 -34 -69 -65t-110 -31q-83 0 -144.5 65t-61.5 148q0 97 64.5 172t159.5 75q65 0 115.5 -40.5t50.5 -104.5q0 -10 -2.5 -18
t-8.5 -13t-11 -8.5t-16 -5.5l-16.5 -3t-19.5 -2t-18 -1zM349 318q0 40 -34.5 67t-75.5 27q-44 0 -86 -46.5t-41 -95.5q0 -11 31 -7q114 12 170 20q36 4 36 35zM301 8q-62 -39 -62 -90q0 -85 89 -85q28 0 52 10l4 -9q-39 -23 -89 -23q-45 0 -72 25.5t-27 69.5q0 60 83 102h22
z" />
    <glyph glyph-name="Ecaron" unicode="&#x11a;" horiz-adv-x="489" 
d="M49 561q0 15 -2 32.5t-3.5 28.5t-1.5 22.5t3.5 17.5t12 10t23.5 4q96 -4 144 -4q43 0 114.5 3.5t93.5 4.5q33 -14 33 -41q0 -31 -33 -31q-62 31 -218 31q-70 0 -84.5 -7t-14.5 -51v-194q0 -19 14 -19q41 0 110 9t94 24q10 0 19.5 -7.5t9.5 -19.5q0 -19 -33 -33
q-13 8 -57 8q-29 0 -64 -3.5t-58.5 -7.5t-24.5 -4q-10 0 -10 -10v-189q0 -65 23 -83t90 -18q50 0 119 8.5t104 20.5q24 -1 24 -18q0 -18 -27 -50q-156 5 -359 5q-24 0 -34.5 2t-13.5 9.5t-1 15.5t5.5 28t3.5 40q0 76 -0.5 232.5t-0.5 233.5zM280 733q12 0 39 10.5t47 20.5
l21 11l13 -11l-6 -9q-96 -74 -114 -74q-9 0 -37.5 18.5t-52.5 36.5l-24 19l-6 9l12 11q78 -42 108 -42z" />
    <glyph glyph-name="ecaron" unicode="&#x11b;" horiz-adv-x="439" 
d="M332 254q-156 -17 -190 -23q-24 -4 -31.5 -11t-7.5 -30q0 -64 48.5 -104.5t115.5 -40.5q34 0 61 8.5t40 19t23.5 19t14.5 8.5q6 0 10 -4t3 -10q-7 -34 -69 -65t-110 -31q-83 0 -144.5 65t-61.5 148q0 97 64.5 172t159.5 75q65 0 115.5 -40.5t50.5 -104.5q0 -10 -2.5 -18
t-8.5 -13t-11 -8.5t-16 -5.5l-16.5 -3t-19.5 -2t-18 -1zM349 318q0 40 -34.5 67t-75.5 27q-44 0 -86 -46.5t-41 -95.5q0 -11 31 -7q114 12 170 20q36 4 36 35zM261 557q12 0 38.5 10.5t47.5 20.5l21 11l13 -11l-6 -9q-96 -74 -114 -74q-9 0 -37.5 18.5t-52.5 36.5l-24 19
l-6 9l12 11q78 -42 108 -42z" />
    <glyph glyph-name="Gcircumflex" unicode="&#x11c;" horiz-adv-x="650" 
d="M631 279l1 -238q0 -21 -12.5 -36.5t-28.5 -15.5q-26 0 -35 41q-82 -42 -174 -42q-145 0 -246.5 96t-101.5 241q0 143 107 248t251 105q86 0 166.5 -27t80.5 -69q0 -21 -37 -37q-8 6 -40.5 30.5t-42 29.5t-34 18t-46 16.5t-49.5 3.5q-118 0 -195.5 -96.5t-77.5 -216.5
q0 -122 84 -214.5t205 -92.5q36 0 79.5 14.5t66.5 37.5l6 5q6 6 6.5 7.5t5 8t5 11t3 14.5t2 20.5t-1 26.5t-2.5 35q-1 14 -15.5 34t-14.5 36q0 30 30 30q55 0 55 -24zM388 731q-13 0 -40 -10.5t-48 -20.5l-20 -11l-12 11l6 9q94 74 114 74q8 0 36.5 -18.5t53.5 -36.5l24 -19
l6 -9l-13 -11q-80 42 -107 42z" />
    <glyph glyph-name="gcircumflex" unicode="&#x11d;" horiz-adv-x="491" 
d="M401 420q22 0 50.5 11.5t36.5 11.5q16 0 16 -25q0 -16 -11 -29t-34 -13h-51q-3 -3 -3 -7q0 -1 5 -13q14 -29 14 -74q0 -53 -45 -100q-21 -22 -46.5 -33.5t-42 -13.5t-54.5 -4q-10 -1 -37 -21.5t-27 -29.5q0 -16 33 -23t79.5 -12t93 -14.5t79.5 -38t33 -74.5
q0 -40 -23.5 -71t-60.5 -48.5t-76 -26.5t-75 -9q-35 0 -68 4.5t-70 15.5t-59.5 36.5t-22.5 62.5q0 47 28 76t73 29q15 0 15 -9q0 -8 -12 -16q-40 -28 -40 -69q0 -49 58 -75t114 -26q53 0 101.5 27.5t48.5 76.5q0 68 -119 83q-4 1 -27 3.5t-37 4.5t-37.5 6.5t-39 11.5
t-31.5 16t-24 22.5t-8 30.5q0 14 12.5 23t28 11.5t28 9t12.5 16.5q0 4 -12 10q-43 21 -68 57.5t-25 82.5q0 70 51.5 118t122.5 48q29 0 79 -15t74 -15zM352 281q0 52 -29 96t-78 44q-47 0 -72.5 -39.5t-25.5 -88.5t30.5 -92t78.5 -43q45 0 70.5 38t25.5 85zM228 542
q-13 0 -40 -10.5t-48 -21.5l-20 -10l-12 11l6 9q94 74 114 74q8 0 36.5 -18.5t53.5 -37.5l24 -18l6 -9l-13 -11q-80 42 -107 42z" />
    <glyph glyph-name="Gbreve" unicode="&#x11e;" horiz-adv-x="658" 
d="M631 279l1 -238q0 -21 -12.5 -36.5t-28.5 -15.5q-26 0 -35 41q-82 -42 -174 -42q-145 0 -246.5 96t-101.5 241q0 143 107 248t251 105q86 0 166.5 -27t80.5 -69q0 -21 -37 -37q-8 6 -40.5 30.5t-42 29.5t-34 18t-46 16.5t-49.5 3.5q-118 0 -195.5 -96.5t-77.5 -216.5
q0 -122 84 -214.5t205 -92.5q36 0 79.5 14.5t66.5 37.5l6 5q6 6 6.5 7.5t5 8t5 11t3 14.5t2 20.5t-1 26.5t-2.5 35q-1 14 -15.5 34t-14.5 36q0 30 30 30q55 0 55 -24zM495 794q0 -34 -40 -59t-76 -25t-76.5 25t-40.5 59q0 7 14 7q11 0 24 -11.5t32.5 -23.5t46.5 -12
q25 0 45 12t33 23.5t20 11.5q18 0 18 -7z" />
    <glyph glyph-name="gbreve" unicode="&#x11f;" horiz-adv-x="491" 
d="M401 420q22 0 50.5 11.5t36.5 11.5q16 0 16 -25q0 -16 -11 -29t-34 -13h-51q-3 -3 -3 -7q0 -1 5 -13q14 -29 14 -74q0 -53 -45 -100q-21 -22 -46.5 -33.5t-42 -13.5t-54.5 -4q-10 -1 -37 -21.5t-27 -29.5q0 -16 33 -23t79.5 -12t93 -14.5t79.5 -38t33 -74.5
q0 -40 -23.5 -71t-60.5 -48.5t-76 -26.5t-75 -9q-35 0 -68 4.5t-70 15.5t-59.5 36.5t-22.5 62.5q0 47 28 76t73 29q15 0 15 -9q0 -8 -12 -16q-40 -28 -40 -69q0 -49 58 -75t114 -26q53 0 101.5 27.5t48.5 76.5q0 68 -119 83q-4 1 -27 3.5t-37 4.5t-37.5 6.5t-39 11.5
t-31.5 16t-24 22.5t-8 30.5q0 14 12.5 23t28 11.5t28 9t12.5 16.5q0 4 -12 10q-43 21 -68 57.5t-25 82.5q0 70 51.5 118t122.5 48q29 0 79 -15t74 -15zM352 281q0 52 -29 96t-78 44q-47 0 -72.5 -39.5t-25.5 -88.5t30.5 -92t78.5 -43q45 0 70.5 38t25.5 85zM337 585
q0 -34 -40 -59t-76 -25t-76.5 25t-40.5 59q0 7 14 7q9 0 19.5 -7.5t19.5 -16t26 -16t38 -7.5q25 0 45 11.5t33 23.5t20 12q18 0 18 -7z" />
    <glyph glyph-name="Gdotaccent" unicode="&#x120;" horiz-adv-x="709" 
d="M631 279l1 -238q0 -21 -12.5 -36.5t-28.5 -15.5q-26 0 -35 41q-82 -42 -174 -42q-145 0 -246.5 96t-101.5 241q0 143 107 248t251 105q86 0 166.5 -27t80.5 -69q0 -21 -37 -37q-8 6 -40.5 30.5t-42 29.5t-34 18t-46 16.5t-49.5 3.5q-118 0 -195.5 -96.5t-77.5 -216.5
q0 -122 84 -214.5t205 -92.5q36 0 79.5 14.5t66.5 37.5l6 5q6 6 6.5 7.5t5 8t5 11t3 14.5t2 20.5t-1 26.5t-2.5 35q-1 14 -15.5 34t-14.5 36q0 30 30 30q55 0 55 -24zM405 726q-26 0 -44.5 19t-18.5 45t18.5 44.5t44.5 18.5t45 -18.5t19 -44.5t-19 -45t-45 -19z" />
    <glyph glyph-name="gdotaccent" unicode="&#x121;" horiz-adv-x="491" 
d="M401 420q22 0 50.5 11.5t36.5 11.5q16 0 16 -25q0 -16 -11 -29t-34 -13h-51q-3 -3 -3 -7q0 -1 5 -13q14 -29 14 -74q0 -53 -45 -100q-21 -22 -46.5 -33.5t-42 -13.5t-54.5 -4q-10 -1 -37 -21.5t-27 -29.5q0 -16 33 -23t79.5 -12t93 -14.5t79.5 -38t33 -74.5
q0 -40 -23.5 -71t-60.5 -48.5t-76 -26.5t-75 -9q-35 0 -68 4.5t-70 15.5t-59.5 36.5t-22.5 62.5q0 47 28 76t73 29q15 0 15 -9q0 -8 -12 -16q-40 -28 -40 -69q0 -49 58 -75t114 -26q53 0 101.5 27.5t48.5 76.5q0 68 -119 83q-4 1 -27 3.5t-37 4.5t-37.5 6.5t-39 11.5
t-31.5 16t-24 22.5t-8 30.5q0 14 12.5 23t28 11.5t28 9t12.5 16.5q0 4 -12 10q-43 21 -68 57.5t-25 82.5q0 70 51.5 118t122.5 48q29 0 79 -15t74 -15zM352 281q0 52 -29 96t-78 44q-47 0 -72.5 -39.5t-25.5 -88.5t30.5 -92t78.5 -43q45 0 70.5 38t25.5 85zM239 485
q-26 0 -44.5 19t-18.5 45t18.5 44.5t44.5 18.5t45 -18.5t19 -44.5t-19 -45t-45 -19z" />
    <glyph glyph-name="Gcommaaccent" unicode="&#x122;" horiz-adv-x="662" 
d="M631 279l1 -238q0 -21 -12.5 -36.5t-28.5 -15.5q-26 0 -35 41q-82 -42 -174 -42q-145 0 -246.5 96t-101.5 241q0 143 107 248t251 105q86 0 166.5 -27t80.5 -69q0 -21 -37 -37q-8 6 -40.5 30.5t-42 29.5t-34 18t-46 16.5t-49.5 3.5q-118 0 -195.5 -96.5t-77.5 -216.5
q0 -122 84 -214.5t205 -92.5q36 0 79.5 14.5t66.5 37.5l6 5q6 6 6.5 7.5t5 8t5 11t3 14.5t2 20.5t-1 26.5t-2.5 35q-1 14 -15.5 34t-14.5 36q0 30 30 30q55 0 55 -24zM356 -114q17 2 33.5 -7.5t17.5 -34.5q0 -24 -17 -41.5t-34 -22.5l-17 -6q-1 0 -3 -1t-5 -3.5t-4 -4.5
t1.5 -4.5t10.5 -3.5q26 -4 49 8t37.5 33t22.5 38t12 30q6 21 -14.5 51.5t-48.5 34.5q-56 7 -56 -32q0 -36 15 -34z" />
    <glyph glyph-name="gcommaaccent" unicode="&#x123;" horiz-adv-x="491" 
d="M401 420q22 0 50.5 11.5t36.5 11.5q16 0 16 -25q0 -16 -11 -29t-34 -13h-51q-3 -3 -3 -7q0 -1 5 -13q14 -29 14 -74q0 -53 -45 -100q-21 -22 -46.5 -33.5t-42 -13.5t-54.5 -4q-10 -1 -37 -21.5t-27 -29.5q0 -16 33 -23t79.5 -12t93 -14.5t79.5 -38t33 -74.5
q0 -40 -23.5 -71t-60.5 -48.5t-76 -26.5t-75 -9q-35 0 -68 4.5t-70 15.5t-59.5 36.5t-22.5 62.5q0 47 28 76t73 29q15 0 15 -9q0 -8 -12 -16q-40 -28 -40 -69q0 -49 58 -75t114 -26q53 0 101.5 27.5t48.5 76.5q0 68 -119 83q-4 1 -27 3.5t-37 4.5t-37.5 6.5t-39 11.5
t-31.5 16t-24 22.5t-8 30.5q0 14 12.5 23t28 11.5t28 9t12.5 16.5q0 4 -12 10q-43 21 -68 57.5t-25 82.5q0 70 51.5 118t122.5 48q29 0 79 -15t74 -15zM352 281q0 52 -29 96t-78 44q-47 0 -72.5 -39.5t-25.5 -88.5t30.5 -92t78.5 -43q45 0 70.5 38t25.5 85zM274 565
q-16 -2 -32 7t-17 34q0 23 16.5 40t32.5 22l17 5q1 0 2.5 1t5 3.5t4.5 4.5t-1.5 4.5t-10.5 3.5q-33 5 -61 -18t-39.5 -46t-16.5 -42q-6 -20 14 -49.5t47 -33.5q54 -7 54 31q0 16 -4.5 25t-10.5 8z" />
    <glyph glyph-name="Hcircumflex" unicode="&#x124;" horiz-adv-x="606" 
d="M104 320l3 -312q-19 -23 -40 -23t-30 23v-3q2 44 2 223q0 24 -2 426q13 25 35 25q9 0 17.5 -6.5t12.5 -12.5l5 -6q-3 -21 -3 -290q287 19 383 28q0 14 -1 76.5t-2 114.5t-2 71q16 26 38 26t35 -26q-2 -9 -2 -646q-17 -22 -38 -22q-23 0 -34 22q7 71 7 239q0 74 -1 102
q-31 -3 -183.5 -12.5t-199.5 -16.5zM305 722q-13 0 -40 -10.5t-47 -21.5l-21 -10l-12 11l6 9q94 74 114 74q8 0 36.5 -18.5t52.5 -37.5l25 -18l6 -9l-13 -11q-80 42 -107 42z" />
    <glyph glyph-name="hcircumflex" unicode="&#x125;" horiz-adv-x="434" 
d="M39 728v5q0 22 30 22q15 0 27.5 -4t12.5 -10q0 -263 2 -347q68 56 135 56q77 0 120 -51t43 -129v-207q0 -43 10 -64q-1 -10 -36 -10q-43 0 -45 11q7 19 7 46v204q0 67 -30.5 111t-94.5 44q-37 0 -73.5 -23t-36.5 -58v-182q0 -53 1.5 -85t3 -43.5t1.5 -14.5q0 -10 -31 -10
q-44 0 -44 8q0 7 2.5 23t2.5 24v369v88q0 169 -7 227zM71 792q-13 0 -40 -10.5t-47 -21.5l-21 -10l-12 11l6 9q94 74 114 74q8 0 36.5 -18.5t52.5 -37.5l25 -18l6 -9l-13 -11q-80 42 -107 42z" />
    <glyph glyph-name="Hbar" unicode="&#x126;" horiz-adv-x="714" 
d="M64 511q-14 0 -20 11t0 22t20 11l608 3q14 0 20 -11t0 -22t-20 -11zM174 320l3 -312q-19 -23 -40 -23t-30 23v-3q2 44 2 223q0 24 -2 426q13 25 35 25q9 0 17.5 -6.5t12.5 -12.5l5 -6q-3 -21 -3 -290q287 19 383 28q0 14 -1 76.5t-2 114.5t-2 71q16 26 38 26t35 -26
q-2 -9 -2 -646q-17 -22 -38 -22q-23 0 -34 22q7 71 7 239q0 74 -1 102q-31 -3 -183.5 -12.5t-199.5 -16.5z" />
    <glyph glyph-name="hbar" unicode="&#x127;" horiz-adv-x="477" 
d="M34 545h224q14 0 20 -11t0 -22t-20 -11h-224q-14 0 -20 11t0 22t20 11zM79 728v5q0 22 30 22q15 0 27.5 -4t12.5 -10q0 -263 2 -347q68 56 135 56q77 0 120 -51t43 -129v-207q0 -43 10 -64q-1 -10 -36 -10q-43 0 -45 11q7 19 7 46v204q0 67 -30.5 111t-94.5 44
q-37 0 -73.5 -23t-36.5 -58v-182q0 -53 1.5 -85t3 -43.5t1.5 -14.5q0 -10 -31 -10q-44 0 -44 8q0 7 2.5 23t2.5 24v369v88q0 169 -7 227z" />
    <glyph glyph-name="Itilde" unicode="&#x128;" horiz-adv-x="136" 
d="M107 657l1 -657q-12 -14 -34 -14q-7 0 -16.5 3t-15.5 6t-6 5q-1 -5 -1 1q8 288 3 656q16 21 35 21q9 0 17.5 -5t12.5 -11zM-44 700q0 20 26.5 45.5t46.5 25.5q23 0 57.5 -18.5t49.5 -18.5q21 0 38 16t19 16q7 0 7 -7q0 -18 -27 -42t-46 -24q-24 0 -56.5 17.5t-48.5 17.5
q-13 0 -26 -9t-20.5 -18t-8.5 -9q-11 0 -11 8z" />
    <glyph glyph-name="itilde" unicode="&#x129;" horiz-adv-x="128" 
d="M39 1q3 13 3 35v357q0 27 -11 49q-2 3 1.5 5.5t9.5 3.5t11 1.5t9 0.5h8.5h9h8t7.5 -1t5.5 -2.5t4 -4t1.5 -5.5v-56v-2q-7 -333 4 -382q1 -7 -7.5 -9t-24.5 -2q-8 0 -14 0.5t-12.5 1.5t-10 3.5t-2.5 6.5zM-53 515q0 20 26.5 45.5t46.5 25.5q23 0 57.5 -18.5t49.5 -18.5
q21 0 38 16t19 16q7 0 7 -7q0 -18 -27 -42t-46 -24q-24 0 -56.5 17.5t-48.5 17.5q-13 0 -26 -9t-20.5 -18t-8.5 -9q-11 0 -11 8z" />
    <glyph glyph-name="Imacron" unicode="&#x12a;" horiz-adv-x="144" 
d="M107 657l1 -657q-12 -14 -34 -14q-7 0 -16.5 3t-15.5 6t-6 5q-1 -5 -1 1q8 288 3 656q16 21 35 21q9 0 17.5 -5t12.5 -11zM174 704h-214q-10 0 -10 11v23q0 11 10 11h214q10 0 10 -11v-23q0 -11 -10 -11z" />
    <glyph glyph-name="imacron" unicode="&#x12b;" horiz-adv-x="150" 
d="M59 1q3 13 3 35v357q0 27 -11 49q-2 3 1.5 5.5t9.5 3.5t11 1.5t9 0.5h8.5h9h8t7.5 -1t5.5 -2.5t4 -4t1.5 -5.5v-56v-2q-7 -333 4 -382q1 -7 -7.5 -9t-24.5 -2q-8 0 -14 0.5t-12.5 1.5t-10 3.5t-2.5 6.5zM184 521h-180q-9 0 -9 12v24q0 11 9 11h180q8 0 8 -11v-24
q0 -12 -8 -12z" />
    <glyph glyph-name="Ibreve" unicode="&#x12c;" horiz-adv-x="164" 
d="M107 657l1 -657q-12 -14 -34 -14q-7 0 -16.5 3t-15.5 6t-6 5q-1 -5 -1 1q8 288 3 656q16 21 35 21q9 0 17.5 -5t12.5 -11zM184 783q0 -34 -40 -59t-76 -25t-76.5 25t-40.5 59q0 7 14 7q9 0 19.5 -7.5t19.5 -16t26 -16t38 -7.5q25 0 45 11.5t33 23.5t20 12q18 0 18 -7z
" />
    <glyph glyph-name="ibreve" unicode="&#x12d;" horiz-adv-x="147" 
d="M59 1q3 13 3 35v357q0 27 -11 49q-2 3 1.5 5.5t9.5 3.5t11 1.5t9 0.5h8.5h9h8t7.5 -1t5.5 -2.5t4 -4t1.5 -5.5v-56v-2q-7 -333 4 -382q1 -7 -7.5 -9t-24.5 -2q-8 0 -14 0.5t-12.5 1.5t-10 3.5t-2.5 6.5zM204 604q0 -39 -38 -67.5t-72 -28.5t-72.5 28.5t-38.5 67.5
q0 8 14 8q10 0 22.5 -13.5t31 -27t43.5 -13.5q23 0 42.5 13.5t31.5 27t19 13.5q17 0 17 -8z" />
    <glyph glyph-name="Iogonek" unicode="&#x12e;" horiz-adv-x="144" 
d="M107 657l1 -657q-12 -14 -34 -14q-7 0 -16.5 3t-15.5 6t-6 5q-1 -5 -1 1q8 288 3 656q16 21 35 21q9 0 17.5 -5t12.5 -11zM109 10q-62 -39 -62 -90q0 -85 89 -85q28 0 52 10l4 -9q-39 -23 -89 -23q-45 0 -72 25.5t-27 69.5q0 60 83 102h22z" />
    <glyph glyph-name="iogonek" unicode="&#x12f;" horiz-adv-x="144" 
d="M59 1q3 13 3 35v357q0 27 -11 49q-2 3 1.5 5.5t9.5 3.5t11 1.5t9 0.5h8.5h9h8t7.5 -1t5.5 -2.5t4 -4t1.5 -5.5v-56v-2q-7 -333 4 -382q1 -7 -7.5 -9t-24.5 -2q-8 0 -14 0.5t-12.5 1.5t-10 3.5t-2.5 6.5zM95 624q14 4 25 -6t13 -26q3 -18 -16 -30.5t-36 -14.5
q-6 -1 -9.5 0.5t-5 3.5t-3.5 6l-3 6q-2 3 -7 4t-11 0.5t-7 -0.5q-9 4 -1 16q4 6 24.5 21t36.5 20zM128 4q-62 -39 -62 -90q0 -85 89 -85q28 0 52 10l4 -9q-39 -23 -89 -23q-45 0 -72 25.5t-27 69.5q0 60 83 102h22z" />
    <glyph glyph-name="Idotaccent" unicode="&#x130;" horiz-adv-x="149" 
d="M107 657l1 -657q-12 -14 -34 -14q-7 0 -16.5 3t-15.5 6t-6 5q-1 -5 -1 1q8 288 3 656q16 21 35 21q9 0 17.5 -5t12.5 -11zM81 697q-26 0 -44.5 19t-18.5 45t18.5 44.5t44.5 18.5t45 -18.5t19 -44.5t-19 -45t-45 -19z" />
    <glyph glyph-name="dotlessi" unicode="&#x131;" horiz-adv-x="172" 
d="M59 1q3 13 3 35v357q0 27 -11 49q-2 3 1.5 5.5t9.5 3.5t11 1.5t9 0.5h8.5h9h8t7.5 -1t5.5 -2.5t4 -4t1.5 -5.5v-56v-2q-7 -333 4 -382q1 -7 -7.5 -9t-24.5 -2q-8 0 -14 0.5t-12.5 1.5t-10 3.5t-2.5 6.5z" />
    <glyph glyph-name="IJ" unicode="&#x132;" horiz-adv-x="348" 
d="M107 657l1 -657q-12 -14 -34 -14q-7 0 -16.5 3t-15.5 6t-6 5q-1 -5 -1 1q8 288 3 656q16 21 35 21q9 0 17.5 -5t12.5 -11zM154 -193q-17 0 -30.5 8t-13.5 23q0 17 13 27.5t30 10.5q8 0 23 -10.5t25 -10.5q57 0 57 119q0 14 -1 41t-1 39q0 23 0.5 232.5t0.5 216.5
q0 105 -9 153q23 26 44 26q10 0 18 -6.5t11 -13.5l3 -6q-1 -5 -1 -17v-578q0 -44 -9 -86t-27.5 -81t-52.5 -63t-80 -24z" />
    <glyph glyph-name="ij" unicode="&#x133;" horiz-adv-x="375" 
d="M59 1q3 13 3 35v357q0 27 -11 49q-2 3 1.5 5.5t9.5 3.5t11 1.5t9 0.5h8.5h9h8t7.5 -1t5.5 -2.5t4 -4t1.5 -5.5v-56v-2q-7 -333 4 -382q1 -7 -7.5 -9t-24.5 -2q-8 0 -14 0.5t-12.5 1.5t-10 3.5t-2.5 6.5zM95 624q14 4 25 -6t13 -26q3 -18 -16 -30.5t-36 -14.5
q-6 -1 -9.5 0.5t-5 3.5t-3.5 6l-3 6q-2 3 -7 4t-11 0.5t-7 -0.5q-9 4 -1 16q4 6 24.5 21t36.5 20zM179 -217q-17 0 -31 7t-14 23q0 12 9.5 22.5t20.5 10.5q6 0 20 -6.5t20 -6.5q19 -1 32.5 12t20 28.5t10 42.5t4 41t0.5 37v5v413q0 15 -1 26t15.5 14.5t33 -0.5t16.5 -10v-23
q-1 -47 0 -176.5t1 -148.5v-30v-27t-0.5 -20.5t-1 -20.5t-1.5 -17.5t-2.5 -20t-4 -18t-5.5 -22.5q-17 -58 -60.5 -96.5t-81.5 -38.5zM305 624q14 4 24.5 -6t13.5 -26q3 -18 -16.5 -30.5t-36.5 -14.5q-6 -1 -9.5 0.5t-5 3.5t-3.5 6l-3 6q-2 3 -6.5 4t-10.5 0.5t-7 -0.5
q-9 4 -1 16q3 6 23.5 21t37.5 20z" />
    <glyph glyph-name="Jcircumflex" unicode="&#x134;" horiz-adv-x="172" 
d="M-36 -193q-17 0 -30.5 8t-13.5 23q0 17 13 27.5t30 10.5q8 0 23 -10.5t25 -10.5q57 0 57 119q0 14 -1 41t-1 39q0 23 0.5 232.5t0.5 216.5q0 105 -9 153q23 26 44 26q10 0 18 -6.5t11 -13.5l3 -6q-1 -5 -1 -17v-578q0 -44 -9 -86t-27.5 -81t-52.5 -63t-80 -24zM103 732
q-13 0 -40 -10.5t-47 -21.5l-21 -10l-12 11l6 9q94 74 114 74q8 0 36.5 -18.5t52.5 -37.5l25 -18l6 -9l-13 -11q-80 42 -107 42z" />
    <glyph glyph-name="jcircumflex" unicode="&#x135;" horiz-adv-x="181" 
d="M-16 -217q-17 0 -31 7t-14 23q0 12 9.5 22.5t20.5 10.5q7 0 20.5 -6.5t19.5 -6.5q19 0 32.5 12.5t20 28t10 42t4 40.5t0.5 37v6v413q0 18 -1 26q36 1 65 11v-30v-57q0 -46 0.5 -142.5t0.5 -125.5v-38v-34t-0.5 -24.5t-2.5 -27t-5 -22.5t-7 -30q-16 -58 -60 -96.5
t-82 -38.5zM108 542q-13 0 -40 -10.5t-48 -21.5l-20 -10l-12 11l6 9q94 74 114 74q8 0 36.5 -18.5t53.5 -37.5l24 -18l6 -9l-13 -11q-80 42 -107 42z" />
    <glyph glyph-name="Kcommaaccent" unicode="&#x136;" horiz-adv-x="513" 
d="M277 514q17 15 58 59t62 72q24 32 59 32q26 0 26 -16q0 -8 -11 -16q2 2 -26 -23.5t-67 -61.5t-79.5 -74t-68.5 -67t-28 -34q0 -7 118 -150t179 -213q3 -5 3 -8q0 -10 -14.5 -19t-33.5 -9q-37 0 -60 36q-23 38 -131.5 173t-117.5 136q-8 -8 -22.5 -20t-16.5 -14v-74
q0 -197 3 -213q-20 -24 -41 -24q-19 0 -30 24q0 29 2 171t2 232q0 22 0.5 71.5t0 71.5t-2 51.5t-5.5 48.5q18 21 37 21q10 0 19 -5.5t13 -10.5l4 -5q-2 -10 -2 -300q13 0 171 158zM221 -109q17 2 33.5 -7.5t17.5 -34.5q0 -24 -17 -41.5t-34 -23.5l-17 -5q-1 0 -3 -1t-5 -3.5
t-4 -4.5t1.5 -4.5t10.5 -3.5q26 -4 49 8t37.5 33t22.5 38t12 30q6 21 -14.5 51.5t-48.5 34.5q-56 7 -56 -32q0 -36 15 -34z" />
    <glyph glyph-name="kcommaaccent" unicode="&#x137;" horiz-adv-x="449" 
d="M42 634q0 13 -2.5 50.5t-2.5 54.5q0 15 37 15q32 0 32 -13v-37q0 -5 -1 -171.5t-1 -186.5q0 -18 0.5 -50.5t0.5 -46.5q21 20 48 44q15 14 61 47.5t79.5 60t33.5 36.5v5q0 11 57 11q24 0 24 -11q0 -2 -46 -32.5t-102 -70t-74 -59.5q0 -4 47 -59.5t107 -121t90 -92.5
q3 -3 3 -5q0 -13 -47 -13q-42 0 -47 15q-5 13 -89 105q-10 12 -49 58.5t-63 70.5q-33 -23 -33 -146q0 -25 1 -55t1 -37q0 -4 -5.5 -7t-11.5 -3l-6 -1q-43 0 -43 12q0 4 1 13.5t1 16.5zM168 -108q17 2 33.5 -7.5t17.5 -34.5q0 -24 -17 -41.5t-34 -22.5l-17 -6q-1 0 -3 -1
t-5 -3.5t-4 -4.5t1.5 -4.5t10.5 -3.5q26 -4 49 8t37.5 33t22.5 38t12 30q6 21 -14.5 51.5t-48.5 34.5q-56 7 -56 -32q0 -36 15 -34z" />
    <glyph glyph-name="kgreenlandic" unicode="&#x138;" horiz-adv-x="383" 
d="M196 346q10 8 36.5 37t41.5 48q19 23 42 23q10 0 12 -8t-6 -15q-1 -1 -43.5 -43t-83.5 -84.5t-41 -46.5q0 -8 194 -236q3 -5 3 -7q0 -9 -10.5 -16t-25.5 -7q-27 0 -43 26q-15 24 -82.5 109.5t-76.5 89.5q-10 -10 -15 -13v1l-4 -4l-3 -2v-47q0 -128 2 -140
q-17 -20 -31 -20q-16 0 -24 20v88q2 100 2 177v43q0 8 0.5 22.5t0.5 20.5q0 50 -6 75q14 17 29 17q8 0 15 -4t11 -8l3 -5q-2 -10 -2 -191q15 10 97 92z" />
    <glyph glyph-name="Lacute" unicode="&#x139;" horiz-adv-x="461" 
d="M54 617q0 17 -3 30q17 28 36 28q9 0 19 -3.5t16 -7.5l6 -4q-15 -128 -4 -559q1 -40 16.5 -52.5t55.5 -12.5q124 0 221 27q7 3 15 3q22 0 22 -18q0 -5 -4.5 -16t-19.5 -24.5t-37 -13.5q-27 0 -82 4.5t-63 4.5q-29 0 -79.5 -4t-78.5 -4q-47 0 -47 35q0 10 4.5 40.5
t5.5 50.5v3q1 399 1 493zM85 690l-10 11l15 19q121 74 128 74q4 0 12.5 -16t8.5 -21q0 -4 -18 -11z" />
    <glyph glyph-name="lacute" unicode="&#x13a;" horiz-adv-x="135" 
d="M106 80l5 -82v-1q0 -7 -37 -7q-35 0 -35 7q0 2 3 20.5t3 28.5l3 635q0 25 -13 55q-2 2 -2 6q0 12 31 12q43 0 43 -17q0 -106 -0.5 -339.5t-0.5 -317.5zM0 773l-10 11l15 19q121 74 128 74q4 0 12.5 -16t8.5 -21q0 -4 -18 -11z" />
    <glyph glyph-name="Lcommaaccent" unicode="&#x13b;" horiz-adv-x="465" 
d="M54 617q0 17 -3 30q17 28 36 28q9 0 19 -3.5t16 -7.5l6 -4q-15 -128 -4 -559q1 -40 16.5 -52.5t55.5 -12.5q124 0 221 27q7 3 15 3q22 0 22 -18q0 -5 -4.5 -16t-19.5 -24.5t-37 -13.5q-27 0 -82 4.5t-63 4.5q-29 0 -79.5 -4t-78.5 -4q-47 0 -47 35q0 10 4.5 40.5
t5.5 50.5v3q1 399 1 493zM228 -119q17 2 33.5 -7.5t17.5 -34.5q0 -24 -17 -41.5t-34 -23.5l-17 -5q-1 0 -3 -1t-5 -3.5t-4 -4.5t1.5 -4.5t10.5 -3.5q26 -4 49 8t37.5 33t22.5 38t12 30q6 21 -14.5 51.5t-48.5 34.5q-56 7 -56 -32q0 -36 15 -34z" />
    <glyph glyph-name="lcommaaccent" unicode="&#x13c;" horiz-adv-x="152" 
d="M106 80l5 -82v-1q0 -7 -37 -7q-35 0 -35 7q0 2 3 20.5t3 28.5l3 635q0 25 -13 55q-2 2 -2 6q0 12 31 12q43 0 43 -17q0 -106 -0.5 -339.5t-0.5 -317.5zM40 -128q17 2 33.5 -7.5t17.5 -34.5q0 -24 -17 -41.5t-34 -22.5l-17 -6q-1 0 -3 -1t-5 -3.5t-4 -4.5t1.5 -4.5
t10.5 -3.5q26 -4 49 8t37.5 33t22.5 38t12 30q6 21 -14.5 51.5t-48.5 34.5q-56 7 -56 -32q0 -36 15 -34z" />
    <glyph glyph-name="Lcaron" unicode="&#x13d;" horiz-adv-x="469" 
d="M54 617q0 17 -3 30q17 28 36 28q9 0 19 -3.5t16 -7.5l6 -4q-15 -128 -4 -559q1 -40 16.5 -52.5t55.5 -12.5q124 0 221 27q7 3 15 3q22 0 22 -18q0 -5 -4.5 -16t-19.5 -24.5t-37 -13.5q-27 0 -82 4.5t-63 4.5q-29 0 -79.5 -4t-78.5 -4q-47 0 -47 35q0 10 4.5 40.5
t5.5 50.5v3q1 399 1 493zM327 617q17 2 33.5 -7.5t17.5 -34.5q0 -24 -17 -41.5t-34 -23.5l-17 -5q-1 0 -3 -1t-5 -3.5t-4 -4.5t1.5 -4.5t10.5 -3.5q26 -4 49 8t37.5 33t22.5 38t12 30q6 21 -14.5 51.5t-48.5 34.5q-56 7 -56 -32q0 -36 15 -34z" />
    <glyph glyph-name="lcaron" unicode="&#x13e;" horiz-adv-x="145" 
d="M106 80l5 -82v-1q0 -7 -37 -7q-35 0 -35 7q0 2 3 20.5t3 28.5l3 635q0 25 -13 55q-2 2 -2 6q0 12 31 12q43 0 43 -17q0 -106 -0.5 -339.5t-0.5 -317.5zM203 666q17 2 33.5 -7.5t17.5 -34.5q0 -24 -17 -41.5t-34 -22.5l-17 -6q-1 0 -3 -1t-5 -3.5t-4 -4.5t1.5 -4.5
t10.5 -3.5q26 -4 49 8t37.5 33t22.5 38t12 30q6 21 -14.5 51.5t-48.5 34.5q-56 7 -56 -32q0 -36 15 -34z" />
    <glyph glyph-name="Ldot" unicode="&#x13f;" horiz-adv-x="461" 
d="M54 617q0 17 -3 30q17 28 36 28q9 0 19 -3.5t16 -7.5l6 -4q-15 -128 -4 -559q1 -40 16.5 -52.5t55.5 -12.5q124 0 221 27q7 3 15 3q22 0 22 -18q0 -5 -4.5 -16t-19.5 -24.5t-37 -13.5q-27 0 -82 4.5t-63 4.5q-29 0 -79.5 -4t-78.5 -4q-47 0 -47 35q0 10 4.5 40.5
t5.5 50.5v3q1 399 1 493zM301 430q-26 0 -44.5 19t-18.5 45t18.5 44.5t44.5 18.5t45 -18.5t19 -44.5t-19 -45t-45 -19z" />
    <glyph glyph-name="ldot" unicode="&#x140;" horiz-adv-x="168" 
d="M106 80l5 -82v-1q0 -7 -37 -7q-35 0 -35 7q0 2 3 20.5t3 28.5l3 635q0 25 -13 55q-2 2 -2 6q0 12 31 12q43 0 43 -17q0 -106 -0.5 -339.5t-0.5 -317.5zM219 501q-26 0 -44.5 19t-18.5 45t18.5 44.5t44.5 18.5t45 -18.5t19 -44.5t-19 -45t-45 -19z" />
    <glyph glyph-name="Lslash" unicode="&#x141;" horiz-adv-x="588" 
d="M162 617q0 17 -3 30q17 28 36 28q9 0 19 -3.5t16 -7.5l6 -4q-8 -61 -8 -286l133 91q12 8 23 2t11.5 -17.5t-10.5 -20.5l-157 -107q2 -164 4 -221q1 -40 16.5 -52.5t55.5 -12.5q124 0 221 27q7 3 15 3q22 0 22 -18q0 -5 -4.5 -16t-19.5 -24.5t-37 -13.5q-27 0 -82 4.5
t-63 4.5q-29 0 -79.5 -4t-78.5 -4q-47 0 -47 35q0 10 4.5 40.5t5.5 50.5v3v152l-80 -55q-12 -8 -23 -2t-11.5 17.5t10.5 20.5l104 71q1 181 1 289z" />
    <glyph glyph-name="lslash" unicode="&#x142;" horiz-adv-x="308" 
d="M68 190q-8 -6 -15 -6q-9 0 -16 6.5t-7 15.5q0 8 8 16l203 185q6 6 15 6t16 -6.5t7 -15.5t-8 -16zM174 80l5 -82v-1q0 -7 -37 -7q-35 0 -35 7q0 2 3 20.5t3 28.5l3 635q0 25 -13 55q-2 2 -2 6q0 12 31 12q43 0 43 -17q0 -106 -0.5 -339.5t-0.5 -317.5z" />
    <glyph glyph-name="Nacute" unicode="&#x143;" horiz-adv-x="659" 
d="M97 539q-11 0 -11 -63q0 -25 -1 -92t-1 -119t1 -112t4.5 -100t10.5 -53q-14 -14 -30 -14q-23 0 -33 14q16 316 -10 664q12 8 19 8t26 -6.5t22 -11.5q26 -39 226 -256t248 -258q3 0 5 8t3 25.5l2 35t1 46v48.5v53.5v50.5q0 219 -7 257q8 12 24 12q6 0 13.5 -3t12.5 -6
l5 -3v-14q0 -17 -5.5 -299.5t1.5 -311.5q0 -3 2 -14t2 -17t-4 -10.5t-10 -4.5q-16 0 -37 32q-7 12 -18 25.5t-18 21.5t-22 23t-20 21q-387 423 -401 423zM284 649l-10 11l15 19q121 74 128 74q4 0 12.5 -16t8.5 -21q0 -4 -18 -11z" />
    <glyph glyph-name="nacute" unicode="&#x144;" horiz-adv-x="453" 
d="M52 316q0 61 -17 101q-1 2 -1 6q0 12 19 21t38 9q20 0 21 -11l5 -38q0 -5 4 -5q2 0 21.5 12.5t52 25.5t64.5 13q36 0 63.5 -10.5t44 -31.5t27 -43t15 -55.5t5.5 -56.5t1 -59q0 -4 -0.5 -32.5t-0.5 -67.5q0 -66 4 -90q0 -15 -31 -15q-33 0 -39 14q4 26 4 43v202
q0 67 -29.5 112.5t-94.5 45.5q-75 0 -94.5 -37t-19.5 -143q0 -199 6 -226q0 -11 -38 -11q-34 0 -34 10q0 4 2 16t2 21v280zM181 487l-10 11l15 19q121 74 128 74q4 0 12.5 -16t8.5 -21q0 -4 -18 -11z" />
    <glyph glyph-name="Ncommaaccent" unicode="&#x145;" horiz-adv-x="654" 
d="M97 539q-11 0 -11 -63q0 -25 -1 -92t-1 -119t1 -112t4.5 -100t10.5 -53q-14 -14 -30 -14q-23 0 -33 14q16 316 -10 664q12 8 19 8t26 -6.5t22 -11.5q26 -39 226 -256t248 -258q3 0 5 8t3 25.5l2 35t1 46v48.5v53.5v50.5q0 219 -7 257q8 12 24 12q6 0 13.5 -3t12.5 -6
l5 -3v-14q0 -17 -5.5 -299.5t1.5 -311.5q0 -3 2 -14t2 -17t-4 -10.5t-10 -4.5q-16 0 -37 32q-7 12 -18 25.5t-18 21.5t-22 23t-20 21q-387 423 -401 423zM293 -94q17 2 33.5 -7.5t17.5 -34.5q0 -24 -17 -41.5t-34 -22.5l-17 -6q-1 0 -3 -1t-5 -3.5t-4 -4.5t1.5 -4.5
t10.5 -3.5q26 -4 49 8t37.5 33t22.5 38t12 30q6 21 -14.5 51.5t-48.5 34.5q-56 7 -56 -32q0 -36 15 -34z" />
    <glyph glyph-name="ncommaaccent" unicode="&#x146;" horiz-adv-x="459" 
d="M52 316q0 61 -17 101q-1 2 -1 6q0 12 19 21t38 9q20 0 21 -11l5 -38q0 -5 4 -5q2 0 21.5 12.5t52 25.5t64.5 13q36 0 63.5 -10.5t44 -31.5t27 -43t15 -55.5t5.5 -56.5t1 -59q0 -4 -0.5 -32.5t-0.5 -67.5q0 -66 4 -90q0 -15 -31 -15q-33 0 -39 14q4 26 4 43v202
q0 67 -29.5 112.5t-94.5 45.5q-75 0 -94.5 -37t-19.5 -143q0 -199 6 -226q0 -11 -38 -11q-34 0 -34 10q0 4 2 16t2 21v280zM229 -124q17 2 33.5 -7.5t17.5 -34.5q0 -24 -17 -41.5t-34 -22.5l-17 -6q-1 0 -3 -1t-5 -3.5t-4 -4.5t1.5 -4.5t10.5 -3.5q26 -4 49 8t37.5 33
t22.5 38t12 30q6 21 -14.5 51.5t-48.5 34.5q-56 7 -56 -32q0 -36 15 -34z" />
    <glyph glyph-name="Ncaron" unicode="&#x147;" horiz-adv-x="667" 
d="M97 539q-11 0 -11 -63q0 -25 -1 -92t-1 -119t1 -112t4.5 -100t10.5 -53q-14 -14 -30 -14q-23 0 -33 14q16 316 -10 664q12 8 19 8t26 -6.5t22 -11.5q26 -39 226 -256t248 -258q3 0 5 8t3 25.5l2 35t1 46v48.5v53.5v50.5q0 219 -7 257q8 12 24 12q6 0 13.5 -3t12.5 -6
l5 -3v-14q0 -17 -5.5 -299.5t1.5 -311.5q0 -3 2 -14t2 -17t-4 -10.5t-10 -4.5q-16 0 -37 32q-7 12 -18 25.5t-18 21.5t-22 23t-20 21q-387 423 -401 423zM357 720q12 0 38.5 10.5t47.5 21.5l21 10l13 -11l-6 -9q-96 -74 -114 -74q-9 0 -37.5 18.5t-52.5 37.5l-24 18l-6 9
l12 11q78 -42 108 -42z" />
    <glyph glyph-name="ncaron" unicode="&#x148;" horiz-adv-x="454" 
d="M52 316q0 61 -17 101q-1 2 -1 6q0 12 19 21t38 9q20 0 21 -11l5 -38q0 -5 4 -5q2 0 21.5 12.5t52 25.5t64.5 13q36 0 63.5 -10.5t44 -31.5t27 -43t15 -55.5t5.5 -56.5t1 -59q0 -4 -0.5 -32.5t-0.5 -67.5q0 -66 4 -90q0 -15 -31 -15q-33 0 -39 14q4 26 4 43v202
q0 67 -29.5 112.5t-94.5 45.5q-75 0 -94.5 -37t-19.5 -143q0 -199 6 -226q0 -11 -38 -11q-34 0 -34 10q0 4 2 16t2 21v280zM249 547q12 0 39 10.5t47 21.5l21 10l13 -11l-6 -9q-96 -74 -114 -74q-9 0 -37.5 18.5t-52.5 37.5l-24 18l-6 9l12 11q78 -42 108 -42z" />
    <glyph glyph-name="napostrophe" unicode="&#x149;" horiz-adv-x="461" 
d="M52 316q0 61 -17 101q-1 2 -1 6q0 12 19 21t38 9q20 0 21 -11l5 -38q0 -5 4 -5q2 0 21.5 12.5t52 25.5t64.5 13q36 0 63.5 -10.5t44 -31.5t27 -43t15 -55.5t5.5 -56.5t1 -59q0 -4 -0.5 -32.5t-0.5 -67.5q0 -66 4 -90q0 -15 -31 -15q-33 0 -39 14q4 26 4 43v202
q0 67 -29.5 112.5t-94.5 45.5q-75 0 -94.5 -37t-19.5 -143q0 -199 6 -226q0 -11 -38 -11q-34 0 -34 10q0 4 2 16t2 21v280zM26 645q17 2 33.5 -7.5t17.5 -34.5q0 -24 -17 -41.5t-34 -23.5l-17 -5q-1 0 -3 -1t-5 -3.5t-4 -4.5t1.5 -4.5t10.5 -3.5q26 -4 49 8t37.5 33t22.5 38
t12 30q6 21 -14.5 51.5t-48.5 34.5q-56 7 -56 -32q0 -36 15 -34z" />
    <glyph glyph-name="Eng" unicode="&#x14a;" horiz-adv-x="656" 
d="M97 539q-11 0 -11 -63q0 -25 -1 -92t-1 -119t1 -112t4.5 -100t10.5 -53q-14 -14 -30 -14q-23 0 -33 14q16 316 -10 664q12 8 19 8t26 -6.5t22 -11.5q26 -39 226 -256t248 -258q3 0 5 8t3 25.5l2 35t1 46v48.5v53.5v50.5q0 219 -7 257q8 12 24 12q6 0 13.5 -3t12.5 -6
l5 -3v-14q0 -202 -10 -622q-27 -230 -121 -230q-14 0 -24 7.5t-10 18.5q0 19 34 25q25 9 39.5 44t14.5 80q0 66 -27 117q-17 17 -25 26q-387 423 -401 423z" />
    <glyph glyph-name="eng" unicode="&#x14b;" horiz-adv-x="454" 
d="M52 316q0 61 -17 101q-1 2 -1 6q0 12 19 21t38 9q20 0 21 -11l5 -38q0 -5 4 -5q2 0 21.5 12.5t52 25.5t64.5 13q36 0 63.5 -10.5t44 -31.5t27 -43t15 -55.5t5.5 -56.5t1 -59q0 -4 -0.5 -32.5t-0.5 -67.5q0 -97 -41.5 -172t-119.5 -93q-17 -4 -17 11q0 9 11 17.5
t27.5 22.5t33 36t28.5 68.5t14 109.5l2 154q0 67 -29.5 112.5t-94.5 45.5q-75 0 -94.5 -37t-19.5 -143q0 -199 6 -226q0 -11 -38 -11q-34 0 -34 10q0 4 2 16t2 21v280z" />
    <glyph glyph-name="Omacron" unicode="&#x14c;" horiz-adv-x="754" 
d="M726 333q0 -152 -101 -248.5t-253 -96.5q-140 0 -238.5 101.5t-98.5 241.5q0 142 99.5 244.5t241.5 102.5t246 -101.5t104 -243.5zM651 299q0 61 -21 122t-57.5 110.5t-92 80.5t-119.5 31q-117 0 -181.5 -81.5t-64.5 -201.5q0 -83 35 -159.5t103 -127t153 -50.5
q114 0 179.5 80t65.5 196zM502 716h-214q-10 0 -10 11v23q0 11 10 11h214q10 0 10 -11v-23q0 -11 -10 -11z" />
    <glyph glyph-name="omacron" unicode="&#x14d;" horiz-adv-x="513" 
d="M491 216q0 -91 -65.5 -158.5t-155.5 -67.5q-99 0 -167 64t-68 162q0 96 65.5 165t161.5 69t162.5 -69t66.5 -165zM417 185q0 87 -46 160t-128 73q-68 0 -102 -49.5t-34 -120.5q0 -77 51 -151t125 -74q64 0 99 48t35 114zM363 515h-214q-10 0 -10 11v23q0 11 10 11h214
q10 0 10 -11v-23q0 -11 -10 -11z" />
    <glyph glyph-name="Obreve" unicode="&#x14e;" horiz-adv-x="746" 
d="M726 333q0 -152 -101 -248.5t-253 -96.5q-140 0 -238.5 101.5t-98.5 241.5q0 142 99.5 244.5t241.5 102.5t246 -101.5t104 -243.5zM651 299q0 61 -21 122t-57.5 110.5t-92 80.5t-119.5 31q-117 0 -181.5 -81.5t-64.5 -201.5q0 -83 35 -159.5t103 -127t153 -50.5
q114 0 179.5 80t65.5 196zM502 796q0 -34 -40 -59t-76 -25t-76.5 25t-40.5 59q0 7 14 7q11 0 24 -11.5t32.5 -23.5t46.5 -12q25 0 45 12t33 23.5t20 11.5q18 0 18 -7z" />
    <glyph glyph-name="obreve" unicode="&#x14f;" horiz-adv-x="517" 
d="M491 216q0 -91 -65.5 -158.5t-155.5 -67.5q-99 0 -167 64t-68 162q0 96 65.5 165t161.5 69t162.5 -69t66.5 -165zM417 185q0 87 -46 160t-128 73q-68 0 -102 -49.5t-34 -120.5q0 -77 51 -151t125 -74q64 0 99 48t35 114zM374 580q0 -34 -40 -59t-76 -25t-76.5 25
t-40.5 59q0 7 14 7q11 0 24 -11.5t32.5 -23.5t46.5 -12q25 0 45 12t33 23.5t20 11.5q18 0 18 -7z" />
    <glyph glyph-name="Ohungarumlaut" unicode="&#x150;" horiz-adv-x="754" 
d="M726 333q0 -152 -101 -248.5t-253 -96.5q-140 0 -238.5 101.5t-98.5 241.5q0 142 99.5 244.5t241.5 102.5t246 -101.5t104 -243.5zM651 299q0 61 -21 122t-57.5 110.5t-92 80.5t-119.5 31q-117 0 -181.5 -81.5t-64.5 -201.5q0 -83 35 -159.5t103 -127t153 -50.5
q114 0 179.5 80t65.5 196zM393 784l-3 -6l-141 -80l-12 12l18 22l104 85q1 1 5 3q5 0 17 -14.5t12 -21.5zM560 784q0 -4 -4 -6l-140 -80l-12 12l18 22l103 85l6 3q6 0 17.5 -15t11.5 -21z" />
    <glyph glyph-name="ohungarumlaut" unicode="&#x151;" horiz-adv-x="517" 
d="M491 216q0 -91 -65.5 -158.5t-155.5 -67.5q-99 0 -167 64t-68 162q0 96 65.5 165t161.5 69t162.5 -69t66.5 -165zM417 185q0 87 -46 160t-128 73q-68 0 -102 -49.5t-34 -120.5q0 -77 51 -151t125 -74q64 0 99 48t35 114zM258 574l-3 -6l-141 -80l-12 12l18 22l104 85
q1 1 5 3q5 0 17 -14.5t12 -21.5zM425 574q0 -4 -4 -6l-140 -80l-12 12l18 22l103 85l6 3q6 0 17.5 -15t11.5 -21z" />
    <glyph glyph-name="OE" unicode="&#x152;" horiz-adv-x="1032" 
d="M414 679q12 0 145 -3.5t169 -3.5q45 0 118.5 3.5t98.5 4.5q1 -3 7 -3h7q17 0 17 -26q0 -18 -8 -29t-16 -12l-7 -2q-62 31 -210 31q-70 0 -84.5 -7t-14.5 -51v-194q0 -19 14 -19q42 0 115 9t97 24q6 3 10 3q19 0 19 -30q0 -34 -22 -34l-22 4q-22 5 -42 5q-29 0 -67 -3.5
t-64.5 -7.5t-27.5 -4q-10 0 -10 -10v-189q0 -65 23 -83t90 -18q151 0 211 17h3q20 0 20 -27t-22 -29q-156 5 -351 5q-18 0 -54 -2v2q-15 -1 -69 -6t-83 -5q-157 0 -263 93t-106 249q0 83 34.5 155.5t98.5 122.5q92 70 246 70zM428 644q-149 0 -229.5 -65t-80.5 -212
q0 -146 86 -247q81 -96 228 -96q42 0 67 4.5t40.5 14.5t21 27t7.5 42t1 59t1 79q0 27 1 125t-0.5 155.5t-9.5 76.5q-15 37 -133 37z" />
    <glyph glyph-name="oe" unicode="&#x153;" horiz-adv-x="822" 
d="M491 216q0 -20 -5 -45q8 -55 56 -86.5t112 -31.5q34 0 60 7.5t38.5 16t22 16t13.5 7.5q13 0 13 -11q0 -34 -66 -66.5t-113 -32.5q-52 0 -97 27t-74 71q-31 -45 -79 -71.5t-102 -26.5q-99 0 -167 64t-68 162q0 96 65.5 165t161.5 69q60 0 111 -29.5t82 -79.5q31 49 79 79
t106 30q65 0 115.5 -40.5t50.5 -104.5q0 -10 -2.5 -18t-8.5 -13t-11 -8.5t-16 -5.5l-16.5 -3t-19.5 -2t-18 -1q-13 -1 -46 -4t-58 -5.5t-53 -6.5t-45 -9t-21 -11v-2zM283 23q63 0 98 47t36 112q-1 7 -1 21v5q-7 83 -52 146.5t-121 63.5q-68 0 -102 -49.5t-34 -120.5
q0 -77 51 -151t125 -74zM731 318q0 40 -34.5 67t-75.5 27q-44 0 -85.5 -45.5t-41.5 -94.5q0 -10 19 -10q27 0 55 3t73 10t54 8q36 4 36 35z" />
    <glyph glyph-name="Racute" unicode="&#x154;" horiz-adv-x="566" 
d="M133 585v-168q0 -372 9 -411v-2l1 -2q0 -16 -27 -16q-61 0 -61 20q0 4 1 6q19 69 19 268q0 218 -15 302q0 23 -6.5 48t-6.5 29q0 10 10.5 13.5t41.5 3.5q30 0 90 0.5t90 0.5q87 0 144.5 -46.5t57.5 -134.5q0 -57 -54 -104t-118 -66q36 -99 98 -191.5t138 -137.5
q9 -5 9 -10q0 -12 -20 -12q-31 0 -60.5 13t-51.5 30.5t-45.5 49t-37.5 54.5t-32.5 63t-25.5 57t-21 53q-9 25 -12 27q-1 1 -26 7.5t-48.5 18.5t-23.5 28q0 11 11 11q10 0 33 -12.5t27 -13.5q49 -9 51 -9q54 0 94 36t40 105q0 66 -53.5 108.5t-120.5 42.5q-26 0 -38 -1
t-29 -6t-24.5 -18t-7.5 -34zM210 695l-10 11l15 19q121 74 128 74q4 0 12.5 -16t8.5 -21q0 -4 -18 -11z" />
    <glyph glyph-name="racute" unicode="&#x155;" horiz-adv-x="301" 
d="M117 135q0 -10 1.5 -44t3 -62.5t1.5 -26.5q0 -14 -45 -14q-31 0 -31 10q0 1 2.5 21t5 53t2.5 64q0 198 -22 280v4q0 13 19 23t38 10q22 0 22 -15l1 -48q0 -6 4 -6q2 0 16 16.5t38.5 33t52.5 16.5q22 0 40.5 -13t18.5 -34q0 -17 -12.5 -28.5t-31.5 -11.5q-9 30 -48 30
q-77 0 -77 -205q0 -16 0.5 -34t0.5 -19zM110 495l-10 11l15 19q121 74 128 74q4 0 12.5 -16t8.5 -21q0 -4 -18 -11z" />
    <glyph glyph-name="Rcommaaccent" unicode="&#x156;" horiz-adv-x="562" 
d="M133 585v-168q0 -372 9 -411v-2l1 -2q0 -16 -27 -16q-61 0 -61 20q0 4 1 6q19 69 19 268q0 218 -15 302q0 23 -6.5 48t-6.5 29q0 10 10.5 13.5t41.5 3.5q30 0 90 0.5t90 0.5q87 0 144.5 -46.5t57.5 -134.5q0 -57 -54 -104t-118 -66q36 -99 98 -191.5t138 -137.5
q9 -5 9 -10q0 -12 -20 -12q-31 0 -60.5 13t-51.5 30.5t-45.5 49t-37.5 54.5t-32.5 63t-25.5 57t-21 53q-9 25 -12 27q-1 1 -26 7.5t-48.5 18.5t-23.5 28q0 11 11 11q10 0 33 -12.5t27 -13.5q49 -9 51 -9q54 0 94 36t40 105q0 66 -53.5 108.5t-120.5 42.5q-26 0 -38 -1
t-29 -6t-24.5 -18t-7.5 -34zM225 -103q17 2 33.5 -7.5t17.5 -34.5q0 -24 -17 -41.5t-34 -23.5l-17 -5q-1 0 -3 -1t-5 -3.5t-4 -4.5t1.5 -4.5t10.5 -3.5q26 -4 49 8t37.5 33t22.5 38t12 30q6 21 -14.5 51.5t-48.5 34.5q-56 7 -56 -32q0 -36 15 -34z" />
    <glyph glyph-name="rcommaaccent" unicode="&#x157;" horiz-adv-x="296" 
d="M117 135q0 -10 1.5 -44t3 -62.5t1.5 -26.5q0 -14 -45 -14q-31 0 -31 10q0 1 2.5 21t5 53t2.5 64q0 198 -22 280v4q0 13 19 23t38 10q22 0 22 -15l1 -48q0 -6 4 -6q2 0 16 16.5t38.5 33t52.5 16.5q22 0 40.5 -13t18.5 -34q0 -17 -12.5 -28.5t-31.5 -11.5q-9 30 -48 30
q-77 0 -77 -205q0 -16 0.5 -34t0.5 -19zM95 -124q17 2 33.5 -7.5t17.5 -34.5q0 -24 -17 -41.5t-34 -22.5l-17 -6q-1 0 -3 -1t-5 -3.5t-4 -4.5t1.5 -4.5t10.5 -3.5q26 -4 49 8t37.5 33t22.5 38t12 30q6 21 -14.5 51.5t-48.5 34.5q-56 7 -56 -32q0 -36 15 -34z" />
    <glyph glyph-name="Rcaron" unicode="&#x158;" horiz-adv-x="566" 
d="M133 585v-168q0 -372 9 -411v-2l1 -2q0 -16 -27 -16q-61 0 -61 20q0 4 1 6q19 69 19 268q0 218 -15 302q0 23 -6.5 48t-6.5 29q0 10 10.5 13.5t41.5 3.5q30 0 90 0.5t90 0.5q87 0 144.5 -46.5t57.5 -134.5q0 -57 -54 -104t-118 -66q36 -99 98 -191.5t138 -137.5
q9 -5 9 -10q0 -12 -20 -12q-31 0 -60.5 13t-51.5 30.5t-45.5 49t-37.5 54.5t-32.5 63t-25.5 57t-21 53q-9 25 -12 27q-1 1 -26 7.5t-48.5 18.5t-23.5 28q0 11 11 11q10 0 33 -12.5t27 -13.5q49 -9 51 -9q54 0 94 36t40 105q0 66 -53.5 108.5t-120.5 42.5q-26 0 -38 -1
t-29 -6t-24.5 -18t-7.5 -34zM245 775q12 0 38.5 10.5t47.5 20.5l21 11l13 -11l-6 -9q-96 -74 -114 -74q-9 0 -37.5 18.5t-52.5 36.5l-24 19l-6 9l12 11q78 -42 108 -42z" />
    <glyph glyph-name="rcaron" unicode="&#x159;" horiz-adv-x="297" 
d="M117 135q0 -10 1.5 -44t3 -62.5t1.5 -26.5q0 -14 -45 -14q-31 0 -31 10q0 1 2.5 21t5 53t2.5 64q0 198 -22 280v4q0 13 19 23t38 10q22 0 22 -15l1 -48q0 -6 4 -6q2 0 16 16.5t38.5 33t52.5 16.5q22 0 40.5 -13t18.5 -34q0 -17 -12.5 -28.5t-31.5 -11.5q-9 30 -48 30
q-77 0 -77 -205q0 -16 0.5 -34t0.5 -19zM161 552q12 0 38.5 10.5t47.5 21.5l21 10l13 -11l-6 -9q-96 -74 -114 -74q-9 0 -37.5 18.5t-52.5 37.5l-24 18l-6 9l12 11q78 -42 108 -42z" />
    <glyph glyph-name="Sacute" unicode="&#x15a;" horiz-adv-x="465" 
d="M463 189q0 -88 -69 -144.5t-159 -56.5q-13 0 -28.5 3t-26.5 6t-30 10.5t-26 10.5t-29 13.5t-25 11.5q-13 8 -21 26t-8 35q0 22 13 22q5 0 10 -4q27 -32 81 -61t95 -29q60 0 106 34t46 91q0 44 -25 77t-62 51t-81 39.5t-81 41.5t-62 56.5t-25 85.5q0 73 58 121.5t133 48.5
q80 0 158 -26q27 -9 27 -40q0 -23 -18 -23q-13 0 -29 15q-46 43 -128 43q-51 0 -91 -31.5t-40 -80.5q0 -41 25 -72.5t62.5 -49.5t81 -39t81 -41.5t62.5 -57.5t25 -86zM189 685l-10 11l15 19q121 74 128 74q4 0 12.5 -16t8.5 -21q0 -4 -18 -11z" />
    <glyph glyph-name="sacute" unicode="&#x15b;" horiz-adv-x="395" 
d="M382 139q0 -63 -60.5 -107.5t-125.5 -44.5h-25q-133 0 -133 56q0 14 7 24t17 10q1 0 19 -9l-7 4q80 -51 130 -51q44 0 80.5 28t36.5 72q0 32 -28.5 50t-68.5 26.5t-80.5 18.5t-69 36t-28.5 69q0 61 49 95t112 34q35 0 99 -15q2 -1 8.5 -2t10 -2t8.5 -3t7.5 -4.5t4.5 -6.5
t2 -10q0 -29 -22 -29q-6 0 -20.5 11t-40 22t-59.5 11q-39 0 -71.5 -19t-32.5 -55q0 -25 21 -41.5t52 -23.5t67.5 -17t67.5 -22t52 -39t21 -66zM149 494l-10 11l15 19q121 74 128 74q4 0 12.5 -16t8.5 -21q0 -4 -18 -11z" />
    <glyph glyph-name="Scircumflex" unicode="&#x15c;" horiz-adv-x="473" 
d="M463 189q0 -88 -69 -144.5t-159 -56.5q-13 0 -28.5 3t-26.5 6t-30 10.5t-26 10.5t-29 13.5t-25 11.5q-13 8 -21 26t-8 35q0 22 13 22q5 0 10 -4q27 -32 81 -61t95 -29q60 0 106 34t46 91q0 44 -25 77t-62 51t-81 39.5t-81 41.5t-62 56.5t-25 85.5q0 73 58 121.5t133 48.5
q80 0 158 -26q27 -9 27 -40q0 -23 -18 -23q-13 0 -29 15q-46 43 -128 43q-51 0 -91 -31.5t-40 -80.5q0 -41 25 -72.5t62.5 -49.5t81 -39t81 -41.5t62.5 -57.5t25 -86zM259 741q-13 0 -40 -10.5t-47 -20.5l-21 -11l-12 11l6 9q94 74 114 74q8 0 36.5 -18.5t52.5 -36.5l25 -19
l6 -9l-13 -11q-80 42 -107 42z" />
    <glyph glyph-name="scircumflex" unicode="&#x15d;" horiz-adv-x="395" 
d="M382 139q0 -63 -60.5 -107.5t-125.5 -44.5h-25q-133 0 -133 56q0 14 7 24t17 10q1 0 19 -9l-7 4q80 -51 130 -51q44 0 80.5 28t36.5 72q0 32 -28.5 50t-68.5 26.5t-80.5 18.5t-69 36t-28.5 69q0 61 49 95t112 34q35 0 99 -15q2 -1 8.5 -2t10 -2t8.5 -3t7.5 -4.5t4.5 -6.5
t2 -10q0 -29 -22 -29q-6 0 -20.5 11t-40 22t-59.5 11q-39 0 -71.5 -19t-32.5 -55q0 -25 21 -41.5t52 -23.5t67.5 -17t67.5 -22t52 -39t21 -66zM216 542q-13 0 -40 -10.5t-48 -21.5l-20 -10l-12 11l6 9q94 74 114 74q8 0 36.5 -18.5t53.5 -37.5l24 -18l6 -9l-13 -11
q-80 42 -107 42z" />
    <glyph glyph-name="Scedilla" unicode="&#x15e;" horiz-adv-x="477" 
d="M463 189q0 -88 -69 -144.5t-159 -56.5q-13 0 -28.5 3t-26.5 6t-30 10.5t-26 10.5t-29 13.5t-25 11.5q-13 8 -21 26t-8 35q0 22 13 22q5 0 10 -4q27 -32 81 -61t95 -29q60 0 106 34t46 91q0 44 -25 77t-62 51t-81 39.5t-81 41.5t-62 56.5t-25 85.5q0 73 58 121.5t133 48.5
q80 0 158 -26q27 -9 27 -40q0 -23 -18 -23q-13 0 -29 15q-46 43 -128 43q-51 0 -91 -31.5t-40 -80.5q0 -41 25 -72.5t62.5 -49.5t81 -39t81 -41.5t62.5 -57.5t25 -86zM252 -39q0 -4 16 -10t32 -22t16 -44q0 -37 -27 -60.5t-64 -23.5q-28 0 -53 15t-25 41q0 12 8 22t20 10
q10 0 17 -6.5t7 -16.5q0 -6 -6.5 -14t-6.5 -10q0 -9 23 -9t40.5 17.5t17.5 40.5q0 18 -14.5 29.5t-28.5 18t-14 10.5q0 17 9 51q2 7 13 7q27 0 27 -5q0 -7 -3.5 -21t-3.5 -20z" />
    <glyph glyph-name="Scedilla" unicode="&#xf6c1;" horiz-adv-x="477" 
d="M463 189q0 -88 -69 -144.5t-159 -56.5q-13 0 -28.5 3t-26.5 6t-30 10.5t-26 10.5t-29 13.5t-25 11.5q-13 8 -21 26t-8 35q0 22 13 22q5 0 10 -4q27 -32 81 -61t95 -29q60 0 106 34t46 91q0 44 -25 77t-62 51t-81 39.5t-81 41.5t-62 56.5t-25 85.5q0 73 58 121.5t133 48.5
q80 0 158 -26q27 -9 27 -40q0 -23 -18 -23q-13 0 -29 15q-46 43 -128 43q-51 0 -91 -31.5t-40 -80.5q0 -41 25 -72.5t62.5 -49.5t81 -39t81 -41.5t62.5 -57.5t25 -86zM252 -39q0 -4 16 -10t32 -22t16 -44q0 -37 -27 -60.5t-64 -23.5q-28 0 -53 15t-25 41q0 12 8 22t20 10
q10 0 17 -6.5t7 -16.5q0 -6 -6.5 -14t-6.5 -10q0 -9 23 -9t40.5 17.5t17.5 40.5q0 18 -14.5 29.5t-28.5 18t-14 10.5q0 17 9 51q2 7 13 7q27 0 27 -5q0 -7 -3.5 -21t-3.5 -20z" />
    <glyph glyph-name="scedilla" unicode="&#x15f;" horiz-adv-x="395" 
d="M382 139q0 -63 -60.5 -107.5t-125.5 -44.5h-25q-133 0 -133 56q0 14 7 24t17 10q1 0 19 -9l-7 4q80 -51 130 -51q44 0 80.5 28t36.5 72q0 32 -28.5 50t-68.5 26.5t-80.5 18.5t-69 36t-28.5 69q0 61 49 95t112 34q35 0 99 -15q2 -1 8.5 -2t10 -2t8.5 -3t7.5 -4.5t4.5 -6.5
t2 -10q0 -29 -22 -29q-6 0 -20.5 11t-40 22t-59.5 11q-39 0 -71.5 -19t-32.5 -55q0 -25 21 -41.5t52 -23.5t67.5 -17t67.5 -22t52 -39t21 -66zM205 -39q0 -4 16 -10t32 -22t16 -44q0 -37 -27 -60.5t-64 -23.5q-28 0 -53 15t-25 41q0 12 8 22t20 10q10 0 17 -6.5t7 -16.5
q0 -6 -6.5 -14t-6.5 -10q0 -9 23 -9t40.5 17.5t17.5 40.5q0 18 -14 29.5t-28.5 18t-14.5 10.5q0 17 9 51q2 7 13 7q27 0 27 -5q0 -7 -3.5 -21t-3.5 -20z" />
    <glyph glyph-name="scedilla" unicode="&#xf6c2;" horiz-adv-x="395" 
d="M382 139q0 -63 -60.5 -107.5t-125.5 -44.5h-25q-133 0 -133 56q0 14 7 24t17 10q1 0 19 -9l-7 4q80 -51 130 -51q44 0 80.5 28t36.5 72q0 32 -28.5 50t-68.5 26.5t-80.5 18.5t-69 36t-28.5 69q0 61 49 95t112 34q35 0 99 -15q2 -1 8.5 -2t10 -2t8.5 -3t7.5 -4.5t4.5 -6.5
t2 -10q0 -29 -22 -29q-6 0 -20.5 11t-40 22t-59.5 11q-39 0 -71.5 -19t-32.5 -55q0 -25 21 -41.5t52 -23.5t67.5 -17t67.5 -22t52 -39t21 -66zM205 -39q0 -4 16 -10t32 -22t16 -44q0 -37 -27 -60.5t-64 -23.5q-28 0 -53 15t-25 41q0 12 8 22t20 10q10 0 17 -6.5t7 -16.5
q0 -6 -6.5 -14t-6.5 -10q0 -9 23 -9t40.5 17.5t17.5 40.5q0 18 -14 29.5t-28.5 18t-14.5 10.5q0 17 9 51q2 7 13 7q27 0 27 -5q0 -7 -3.5 -21t-3.5 -20z" />
    <glyph glyph-name="Scaron" unicode="&#x160;" horiz-adv-x="475" 
d="M463 189q0 -88 -69 -144.5t-159 -56.5q-13 0 -28.5 3t-26.5 6t-30 10.5t-26 10.5t-29 13.5t-25 11.5q-13 8 -21 26t-8 35q0 22 13 22q5 0 10 -4q27 -32 81 -61t95 -29q60 0 106 34t46 91q0 44 -25 77t-62 51t-81 39.5t-81 41.5t-62 56.5t-25 85.5q0 73 58 121.5t133 48.5
q80 0 158 -26q27 -9 27 -40q0 -23 -18 -23q-13 0 -29 15q-46 43 -128 43q-51 0 -91 -31.5t-40 -80.5q0 -41 25 -72.5t62.5 -49.5t81 -39t81 -41.5t62.5 -57.5t25 -86zM240 760q12 0 39 10.5t47 21.5l21 10l13 -11l-6 -9q-96 -74 -114 -74q-9 0 -37.5 18.5t-52.5 37.5l-24 18
l-6 9l12 11q78 -42 108 -42z" />
    <glyph glyph-name="scaron" unicode="&#x161;" horiz-adv-x="390" 
d="M382 139q0 -63 -60.5 -107.5t-125.5 -44.5h-25q-133 0 -133 56q0 14 7 24t17 10q1 0 19 -9l-7 4q80 -51 130 -51q44 0 80.5 28t36.5 72q0 32 -28.5 50t-68.5 26.5t-80.5 18.5t-69 36t-28.5 69q0 61 49 95t112 34q35 0 99 -15q2 -1 8.5 -2t10 -2t8.5 -3t7.5 -4.5t4.5 -6.5
t2 -10q0 -29 -22 -29q-6 0 -20.5 11t-40 22t-59.5 11q-39 0 -71.5 -19t-32.5 -55q0 -25 21 -41.5t52 -23.5t67.5 -17t67.5 -22t52 -39t21 -66zM193 552q12 0 38.5 10.5t47.5 21.5l21 10l13 -11l-6 -9q-96 -74 -114 -74q-9 0 -37.5 18.5t-52.5 37.5l-24 18l-6 9l12 11
q78 -42 108 -42z" />
    <glyph glyph-name="Tcommaaccent" unicode="&#x162;" horiz-adv-x="572" 
d="M539 673q25 -17 25 -34q0 -15 -20 -24q-46 15 -146 15h-7q-21 0 -30 -1t-19 -5.5t-13.5 -15.5t-3.5 -30q0 -76 -0.5 -263t-0.5 -263q0 -28 4 -47q0 -6 -12 -11t-23 -5q-41 0 -41 14l4 74q3 74 3 130q0 63 -1.5 174t-1.5 178q0 50 -15 60.5t-68 10.5q-69 0 -143 -12
q-20 6 -20 20t20 34q54 -7 408 -7q70 0 101 8zM258 -97q17 2 33.5 -7.5t17.5 -34.5q0 -24 -17 -41.5t-34 -23.5l-17 -5q-1 0 -3 -1t-5 -3.5t-4 -4.5t1.5 -4.5t10.5 -3.5q26 -4 49 8t37.5 33t22.5 38t12 30q6 21 -14.5 51.5t-48.5 34.5q-56 7 -56 -32q0 -36 15 -34z" />
    <glyph glyph-name="Tcommaaccent" unicode="&#x21a;" horiz-adv-x="572" 
d="M539 673q25 -17 25 -34q0 -15 -20 -24q-46 15 -146 15h-7q-21 0 -30 -1t-19 -5.5t-13.5 -15.5t-3.5 -30q0 -76 -0.5 -263t-0.5 -263q0 -28 4 -47q0 -6 -12 -11t-23 -5q-41 0 -41 14l4 74q3 74 3 130q0 63 -1.5 174t-1.5 178q0 50 -15 60.5t-68 10.5q-69 0 -143 -12
q-20 6 -20 20t20 34q54 -7 408 -7q70 0 101 8zM258 -97q17 2 33.5 -7.5t17.5 -34.5q0 -24 -17 -41.5t-34 -23.5l-17 -5q-1 0 -3 -1t-5 -3.5t-4 -4.5t1.5 -4.5t10.5 -3.5q26 -4 49 8t37.5 33t22.5 38t12 30q6 21 -14.5 51.5t-48.5 34.5q-56 7 -56 -32q0 -36 15 -34z" />
    <glyph glyph-name="tcommaaccent" unicode="&#x163;" horiz-adv-x="299" 
d="M223 38q18 0 31.5 10.5t18.5 10.5q16 0 16 -14q0 -23 -31 -39t-67 -16q-26 0 -45 11t-29 26.5t-15.5 40t-7 43.5t-1.5 45q0 33 0.5 103.5t0.5 104.5q0 19 -5.5 27.5t-14 7.5t-17 -3t-15 0t-7.5 13t30 27q17 10 29 23.5t16.5 24t11.5 31.5t12 32q3 8 14 8q15 0 15 -10
q0 -15 -2 -42.5t-2 -44.5q0 -2 0.5 -3.5t2 -2.5t3.5 -1l85 9q6 1 9.5 -5t3.5 -12q3 -26 -11 -27q-1 0 -29 -2t-47 -5.5t-19 -9.5l-2 -191q0 -3 -0.5 -24t0 -31.5t2 -31t6 -32.5t12 -25.5t20 -19.5t28.5 -6zM140 -124q17 2 33.5 -7.5t17.5 -34.5q0 -24 -17 -41.5t-34 -22.5
l-17 -6q-1 0 -3 -1t-5 -3.5t-4 -4.5t1.5 -4.5t10.5 -3.5q26 -4 49 8t37.5 33t22.5 38t12 30q6 21 -14.5 51.5t-48.5 34.5q-56 7 -56 -32q0 -36 15 -34z" />
    <glyph glyph-name="tcommaaccent" unicode="&#x21b;" horiz-adv-x="299" 
d="M223 38q18 0 31.5 10.5t18.5 10.5q16 0 16 -14q0 -23 -31 -39t-67 -16q-26 0 -45 11t-29 26.5t-15.5 40t-7 43.5t-1.5 45q0 33 0.5 103.5t0.5 104.5q0 19 -5.5 27.5t-14 7.5t-17 -3t-15 0t-7.5 13t30 27q17 10 29 23.5t16.5 24t11.5 31.5t12 32q3 8 14 8q15 0 15 -10
q0 -15 -2 -42.5t-2 -44.5q0 -2 0.5 -3.5t2 -2.5t3.5 -1l85 9q6 1 9.5 -5t3.5 -12q3 -26 -11 -27q-1 0 -29 -2t-47 -5.5t-19 -9.5l-2 -191q0 -3 -0.5 -24t0 -31.5t2 -31t6 -32.5t12 -25.5t20 -19.5t28.5 -6zM140 -124q17 2 33.5 -7.5t17.5 -34.5q0 -24 -17 -41.5t-34 -22.5
l-17 -6q-1 0 -3 -1t-5 -3.5t-4 -4.5t1.5 -4.5t10.5 -3.5q26 -4 49 8t37.5 33t22.5 38t12 30q6 21 -14.5 51.5t-48.5 34.5q-56 7 -56 -32q0 -36 15 -34z" />
    <glyph glyph-name="Tcaron" unicode="&#x164;" horiz-adv-x="572" 
d="M539 673q25 -17 25 -34q0 -15 -20 -24q-46 15 -146 15h-7q-21 0 -30 -1t-19 -5.5t-13.5 -15.5t-3.5 -30q0 -76 -0.5 -263t-0.5 -263q0 -28 4 -47q0 -6 -12 -11t-23 -5q-41 0 -41 14l4 74q3 74 3 130q0 63 -1.5 174t-1.5 178q0 50 -15 60.5t-68 10.5q-69 0 -143 -12
q-20 6 -20 20t20 34q54 -7 408 -7q70 0 101 8zM284 761q12 0 39 10.5t47 20.5l21 11l13 -11l-6 -9q-96 -74 -114 -74q-9 0 -37.5 18.5t-52.5 36.5l-24 19l-6 9l12 11q78 -42 108 -42z" />
    <glyph glyph-name="tcaron" unicode="&#x165;" horiz-adv-x="299" 
d="M223 38q18 0 31.5 10.5t18.5 10.5q16 0 16 -14q0 -23 -31 -39t-67 -16q-26 0 -45 11t-29 26.5t-15.5 40t-7 43.5t-1.5 45q0 33 0.5 103.5t0.5 104.5q0 19 -5.5 27.5t-14 7.5t-17 -3t-15 0t-7.5 13t30 27q17 10 29 23.5t16.5 24t11.5 31.5t12 32q3 8 14 8q15 0 15 -10
q0 -15 -2 -42.5t-2 -44.5q0 -2 0.5 -3.5t2 -2.5t3.5 -1l85 9q6 1 9.5 -5t3.5 -12q3 -26 -11 -27q-1 0 -29 -2t-47 -5.5t-19 -9.5l-2 -191q0 -3 -0.5 -24t0 -31.5t2 -31t6 -32.5t12 -25.5t20 -19.5t28.5 -6zM228 654q17 2 33.5 -7.5t17.5 -34.5q0 -24 -17 -41.5t-34 -22.5
l-17 -6q-1 0 -3 -1t-5 -3.5t-4 -4.5t1.5 -4.5t10.5 -3.5q26 -4 49 8t37.5 33t22.5 38t12 30q6 21 -14.5 51.5t-48.5 34.5q-56 7 -56 -32q0 -36 15 -34z" />
    <glyph glyph-name="Tbar" unicode="&#x166;" horiz-adv-x="571" 
d="M539 673q25 -17 25 -34q0 -15 -20 -24q-46 15 -146 15h-7q-21 0 -30 -1t-19 -5.5t-13.5 -15.5t-3.5 -30v-113h168q11 0 17 -6.5t6 -15.5t-6 -15.5t-17 -6.5h-168q-1 -126 -1 -369q0 -28 4 -47q0 -6 -12 -11t-23 -5q-41 0 -41 14l4 74q3 74 3 130q0 74 -2 214h-170
q-22 0 -22 22t22 22h169v94q0 50 -15 60.5t-68 10.5q-69 0 -143 -12q-20 6 -20 20t20 34q54 -7 408 -7q70 0 101 8z" />
    <glyph glyph-name="tbar" unicode="&#x167;" horiz-adv-x="325" 
d="M61 254q-14 0 -20 11t0 22t20 11h37q0 11 0.5 33t0.5 33q0 19 -5.5 27.5t-14 7.5t-17 -3t-15 0t-7.5 13t30 27q17 10 29 23.5t16.5 24t11.5 31.5t12 32q3 8 14 8q15 0 15 -10q0 -15 -2 -42.5t-2 -44.5q0 -2 0.5 -3.5t2 -2.5t3.5 -1l85 9q6 1 9.5 -5t3.5 -12
q3 -26 -11 -27q-1 0 -29 -2t-47 -5.5t-19 -9.5v-101h73q14 0 20 -11t0 -22t-20 -11h-73v-46q0 -5 -0.5 -24.5t-0.5 -31.5t1.5 -31t6 -32t11.5 -25.5t19.5 -19t28.5 -6.5q14 0 25.5 5t17.5 10.5t7 5.5q4 0 10 -5t6 -9q0 -21 -36.5 -38t-61.5 -17q-33 0 -54.5 15t-31 42
t-13 52t-3.5 57q0 30 2 98h-35z" />
    <glyph glyph-name="Utilde" unicode="&#x168;" horiz-adv-x="598" 
d="M40 604q0 16 -4 50q-1 11 13 15.5t30 4.5q8 0 14.5 -1t13 -5.5t5.5 -12.5q-5 -33 -5 -44v-321q0 -108 56 -178.5t164 -70.5q107 0 159.5 67.5t52.5 175.5q0 324 -10 369q-3 13 6.5 18.5t18.5 5.5q11 0 17.5 -7t5.5 -17q-5 -74 -5 -370q0 -129 -64 -212t-191 -83
q-80 0 -135.5 26t-85.5 74.5t-43 107t-13 134.5v274zM199 681q0 20 26.5 45.5t46.5 25.5q23 0 57.5 -18.5t49.5 -18.5q21 0 38 16t19 16q7 0 7 -7q0 -18 -27 -42t-46 -24q-24 0 -56.5 17.5t-48.5 17.5q-13 0 -26 -9t-20.5 -18t-8.5 -9q-11 0 -11 8z" />
    <glyph glyph-name="utilde" unicode="&#x169;" horiz-adv-x="454" 
d="M408 127q0 -57 9 -107v-3q0 -11 -12 -18.5t-27 -7.5q-18 0 -24.5 14.5t-7 29.5t-3.5 15h-2q-1 0 -9 -5.5t-21 -13.5t-29.5 -15.5t-37 -13t-38.5 -5.5q-79 0 -122 55.5t-43 136.5q0 220 -5 248q-3 17 35 17q15 0 27 -5.5t11 -14.5q-5 -58 -5 -90q0 -8 -0.5 -38.5t-0.5 -48
t2 -48.5t6.5 -50.5t14 -44t23 -38.5t34.5 -24t48 -10q33 0 73.5 22.5t40.5 52.5q0 29 -1 116t-1 115v41q0 7 -2 20.5t-2 25.5q0 8 12.5 13t27.5 5q28 0 28 -14q0 -7 -0.5 -17t-0.5 -14q0 -207 2 -281zM108 530q0 20 26.5 45.5t46.5 25.5q23 0 57.5 -18.5t49.5 -18.5
q21 0 38 16t19 16q7 0 7 -7q0 -18 -27 -42t-46 -24q-24 0 -56.5 17.5t-48.5 17.5q-13 0 -26 -9t-20.5 -18t-8.5 -9q-11 0 -11 8z" />
    <glyph glyph-name="Umacron" unicode="&#x16a;" horiz-adv-x="598" 
d="M40 604q0 16 -4 50q-1 11 13 15.5t30 4.5q8 0 14.5 -1t13 -5.5t5.5 -12.5q-5 -33 -5 -44v-321q0 -108 56 -178.5t164 -70.5q107 0 159.5 67.5t52.5 175.5q0 324 -10 369q-3 13 6.5 18.5t18.5 5.5q11 0 17.5 -7t5.5 -17q-5 -74 -5 -370q0 -129 -64 -212t-191 -83
q-80 0 -135.5 26t-85.5 74.5t-43 107t-13 134.5v274zM418 712h-214q-10 0 -10 11v23q0 11 10 11h214q10 0 10 -11v-23q0 -11 -10 -11z" />
    <glyph glyph-name="umacron" unicode="&#x16b;" horiz-adv-x="449" 
d="M408 127q0 -57 9 -107v-3q0 -11 -12 -18.5t-27 -7.5q-18 0 -24.5 14.5t-7 29.5t-3.5 15h-2q-1 0 -9 -5.5t-21 -13.5t-29.5 -15.5t-37 -13t-38.5 -5.5q-79 0 -122 55.5t-43 136.5q0 220 -5 248q-3 17 35 17q15 0 27 -5.5t11 -14.5q-5 -58 -5 -90q0 -8 -0.5 -38.5t-0.5 -48
t2 -48.5t6.5 -50.5t14 -44t23 -38.5t34.5 -24t48 -10q33 0 73.5 22.5t40.5 52.5q0 29 -1 116t-1 115v41q0 7 -2 20.5t-2 25.5q0 8 12.5 13t27.5 5q28 0 28 -14q0 -7 -0.5 -17t-0.5 -14q0 -207 2 -281zM330 526h-214q-10 0 -10 11v23q0 11 10 11h214q10 0 10 -11v-23
q0 -11 -10 -11z" />
    <glyph glyph-name="Ubreve" unicode="&#x16c;" horiz-adv-x="610" 
d="M40 604q0 16 -4 50q-1 11 13 15.5t30 4.5q8 0 14.5 -1t13 -5.5t5.5 -12.5q-5 -33 -5 -44v-321q0 -108 56 -178.5t164 -70.5q107 0 159.5 67.5t52.5 175.5q0 324 -10 369q-3 13 6.5 18.5t18.5 5.5q11 0 17.5 -7t5.5 -17q-5 -74 -5 -370q0 -129 -64 -212t-191 -83
q-80 0 -135.5 26t-85.5 74.5t-43 107t-13 134.5v274zM435 753q0 -34 -40 -59t-76 -25t-76.5 25t-40.5 59q0 7 14 7q9 0 19.5 -7.5t19.5 -16t26 -16t38 -7.5q25 0 45 11.5t33 23.5t20 12q18 0 18 -7z" />
    <glyph glyph-name="ubreve" unicode="&#x16d;" horiz-adv-x="448" 
d="M408 127q0 -57 9 -107v-3q0 -11 -12 -18.5t-27 -7.5q-18 0 -24.5 14.5t-7 29.5t-3.5 15h-2q-1 0 -9 -5.5t-21 -13.5t-29.5 -15.5t-37 -13t-38.5 -5.5q-79 0 -122 55.5t-43 136.5q0 220 -5 248q-3 17 35 17q15 0 27 -5.5t11 -14.5q-5 -58 -5 -90q0 -8 -0.5 -38.5t-0.5 -48
t2 -48.5t6.5 -50.5t14 -44t23 -38.5t34.5 -24t48 -10q33 0 73.5 22.5t40.5 52.5q0 29 -1 116t-1 115v41q0 7 -2 20.5t-2 25.5q0 8 12.5 13t27.5 5q28 0 28 -14q0 -7 -0.5 -17t-0.5 -14q0 -207 2 -281zM336 590q0 -34 -40 -59t-76 -25t-76.5 25t-40.5 59q0 7 14 7
q11 0 24 -11.5t32.5 -23.5t46.5 -12q25 0 45 12t33 23.5t20 11.5q18 0 18 -7z" />
    <glyph glyph-name="Uring" unicode="&#x16e;" horiz-adv-x="602" 
d="M40 604q0 16 -4 50q-1 11 13 15.5t30 4.5q8 0 14.5 -1t13 -5.5t5.5 -12.5q-5 -33 -5 -44v-321q0 -108 56 -178.5t164 -70.5q107 0 159.5 67.5t52.5 175.5q0 324 -10 369q-3 13 6.5 18.5t18.5 5.5q11 0 17.5 -7t5.5 -17q-5 -74 -5 -370q0 -129 -64 -212t-191 -83
q-80 0 -135.5 26t-85.5 74.5t-43 107t-13 134.5v274zM401 665q0 -33 -24 -57.5t-57 -24.5q-34 0 -58 24t-24 58q0 33 24.5 57t57.5 24t57 -24t24 -57zM368 665q0 19 -14 33.5t-34 14.5t-34.5 -14.5t-14.5 -33.5q0 -20 14.5 -34.5t34.5 -14.5q19 0 33.5 14.5t14.5 34.5z" />
    <glyph glyph-name="uring" unicode="&#x16f;" horiz-adv-x="458" 
d="M408 127q0 -57 9 -107v-3q0 -11 -12 -18.5t-27 -7.5q-18 0 -24.5 14.5t-7 29.5t-3.5 15h-2q-1 0 -9 -5.5t-21 -13.5t-29.5 -15.5t-37 -13t-38.5 -5.5q-79 0 -122 55.5t-43 136.5q0 220 -5 248q-3 17 35 17q15 0 27 -5.5t11 -14.5q-5 -58 -5 -90q0 -8 -0.5 -38.5t-0.5 -48
t2 -48.5t6.5 -50.5t14 -44t23 -38.5t34.5 -24t48 -10q33 0 73.5 22.5t40.5 52.5q0 29 -1 116t-1 115v41q0 7 -2 20.5t-2 25.5q0 8 12.5 13t27.5 5q28 0 28 -14q0 -7 -0.5 -17t-0.5 -14q0 -207 2 -281zM307 574q0 -33 -24 -57.5t-57 -24.5q-34 0 -58 24t-24 58q0 33 24.5 57
t57.5 24t57 -24t24 -57zM274 574q0 20 -14 34t-34 14t-34.5 -14.5t-14.5 -33.5q0 -20 14.5 -34.5t34.5 -14.5q19 0 33.5 14.5t14.5 34.5z" />
    <glyph glyph-name="Uhungarumlaut" unicode="&#x170;" horiz-adv-x="606" 
d="M40 604q0 16 -4 50q-1 11 13 15.5t30 4.5q8 0 14.5 -1t13 -5.5t5.5 -12.5q-5 -33 -5 -44v-321q0 -108 56 -178.5t164 -70.5q107 0 159.5 67.5t52.5 175.5q0 324 -10 369q-3 13 6.5 18.5t18.5 5.5q11 0 17.5 -7t5.5 -17q-5 -74 -5 -370q0 -129 -64 -212t-191 -83
q-80 0 -135.5 26t-85.5 74.5t-43 107t-13 134.5v274zM324 762l-3 -6l-141 -80l-12 12l18 22l104 85q1 1 5 3q5 0 17 -14.5t12 -21.5zM491 762q0 -4 -4 -6l-140 -80l-12 12l18 22l103 85l6 3q6 0 17.5 -15t11.5 -21z" />
    <glyph glyph-name="uhungarumlaut" unicode="&#x171;" horiz-adv-x="448" 
d="M408 127q0 -57 9 -107v-3q0 -11 -12 -18.5t-27 -7.5q-18 0 -24.5 14.5t-7 29.5t-3.5 15h-2q-1 0 -9 -5.5t-21 -13.5t-29.5 -15.5t-37 -13t-38.5 -5.5q-79 0 -122 55.5t-43 136.5q0 220 -5 248q-3 17 35 17q15 0 27 -5.5t11 -14.5q-5 -58 -5 -90q0 -8 -0.5 -38.5t-0.5 -48
t2 -48.5t6.5 -50.5t14 -44t23 -38.5t34.5 -24t48 -10q33 0 73.5 22.5t40.5 52.5q0 29 -1 116t-1 115v41q0 7 -2 20.5t-2 25.5q0 8 12.5 13t27.5 5q28 0 28 -14q0 -7 -0.5 -17t-0.5 -14q0 -207 2 -281zM223 572l-3 -6l-141 -80l-12 12l18 22l104 85q1 1 5 3q5 0 17 -14.5
t12 -21.5zM390 572q0 -4 -4 -6l-140 -80l-12 12l18 22l103 85l6 3q6 0 17.5 -15t11.5 -21z" />
    <glyph glyph-name="Uogonek" unicode="&#x172;" horiz-adv-x="606" 
d="M40 604q0 16 -4 50q-1 11 13 15.5t30 4.5q8 0 14.5 -1t13 -5.5t5.5 -12.5q-5 -33 -5 -44v-321q0 -108 56 -178.5t164 -70.5q107 0 159.5 67.5t52.5 175.5q0 324 -10 369q-3 13 6.5 18.5t18.5 5.5q11 0 17.5 -7t5.5 -17q-5 -74 -5 -370q0 -129 -64 -212t-191 -83
q-80 0 -135.5 26t-85.5 74.5t-43 107t-13 134.5v274zM409 5q-62 -39 -62 -90q0 -85 89 -85q28 0 52 10l4 -9q-39 -23 -89 -23q-45 0 -72 25.5t-27 69.5q0 61 83 102h22z" />
    <glyph glyph-name="uogonek" unicode="&#x173;" horiz-adv-x="463" 
d="M408 127q0 -57 9 -107v-3q0 -11 -12 -18.5t-27 -7.5q-18 0 -24.5 14.5t-7 29.5t-3.5 15h-2q-1 0 -9 -5.5t-21 -13.5t-29.5 -15.5t-37 -13t-38.5 -5.5q-79 0 -122 55.5t-43 136.5q0 220 -5 248q-3 17 35 17q15 0 27 -5.5t11 -14.5q-5 -58 -5 -90q0 -8 -0.5 -38.5t-0.5 -48
t2 -48.5t6.5 -50.5t14 -44t23 -38.5t34.5 -24t48 -10q33 0 73.5 22.5t40.5 52.5q0 29 -1 116t-1 115v41q0 7 -2 20.5t-2 25.5q0 8 12.5 13t27.5 5q28 0 28 -14q0 -7 -0.5 -17t-0.5 -14q0 -207 2 -281zM414 17q-62 -39 -62 -90q0 -85 89 -85q28 0 52 10l4 -9q-39 -23 -89 -23
q-45 0 -72 25.5t-27 69.5q0 61 83 102h22z" />
    <glyph glyph-name="Wcircumflex" unicode="&#x174;" horiz-adv-x="841" 
d="M407 519q0 19 13 30.5t29 11.5q13 0 21.5 -8t8.5 -23q0 -17 9 -54t17.5 -66t24.5 -79t18 -57l42 -128q3 -9 7 -9q2 0 44.5 108.5t85.5 236t43 167.5q0 25 38 25q30 0 30 -12q0 -4 -13 -30q-18 -41 -68 -173q-154 -400 -154 -453q0 -10 -9 -16t-19 -6q-12 0 -15 27
q-6 46 -128 412q-4 15 -9 15q-4 0 -10 -19q-25 -68 -70 -198.5t-52 -151.5q-2 -6 -7.5 -32t-14.5 -38.5t-26 -12.5q-7 0 -40.5 111t-83 285t-67.5 234q-1 3 -8.5 20t-7.5 24q0 6 10 10.5t20 4.5q54 0 54 -20q0 -21 8 -51l70 -251q7 -30 24 -81.5t31.5 -90.5t16.5 -39t4.5 3
t4 6t3 7.5t2.5 5.5q25 59 74 195.5t49 159.5zM434 693q-13 0 -40 -10.5t-48 -20.5l-20 -11l-12 11l6 9q94 74 114 74q8 0 36.5 -18.5t53.5 -36.5l24 -19l6 -9l-13 -11q-80 42 -107 42z" />
    <glyph glyph-name="wcircumflex" unicode="&#x175;" horiz-adv-x="593" 
d="M208 -10q-8 0 -12 13q-28 104 -146 405q-15 33 -15 35q0 11 28 11q43 0 49 -21q9 -35 41.5 -125.5t44.5 -120.5q0 -1 9 -23.5t16.5 -38.5t11.5 -16q3 0 6 5q8 18 28 81t38.5 101t37.5 38q9 0 16.5 -8t12.5 -22.5t8.5 -27.5t8 -32t6.5 -27q7 -24 18 -58t17 -59
q15 36 33 89q2 6 27.5 72.5t39.5 110t16 69.5q1 13 28 13q15 0 18.5 -4t3.5 -17q-20 -36 -76.5 -204t-77.5 -218q-9 -21 -28 -21q-5 0 -10.5 13.5t-11 34t-5.5 21.5l-16 55q-16 54 -29 95t-16 41q-5 -1 -43 -102.5t-48 -133.5q-6 -24 -29 -24zM338 542q-13 0 -40 -10.5
t-48 -21.5l-20 -10l-12 11l6 9q94 74 114 74q8 0 36.5 -18.5t53.5 -37.5l24 -18l6 -9l-13 -11q-80 42 -107 42z" />
    <glyph glyph-name="Ycircumflex" unicode="&#x176;" horiz-adv-x="510" 
d="M431 615q7 13 12.5 32t11.5 23t25 4q30 0 30 -9q0 -1 -1 -2q-25 -31 -57.5 -88.5t-77.5 -145t-53 -101.5q-16 -30 -16 -85q0 -147 9 -210q1 -4 4 -15t3 -17q0 -12 -44 -12q-51 0 -51 12q0 1 5 25t5 45v122q-1 77 -10 117.5t-47 107.5q-2 3 -22.5 45.5t-47.5 90.5t-51 81
q-3 4 -8.5 10.5t-9 10.5t-3.5 7q0 11 53 11h8h8.5h7.5t7 -1t6 -2t6 -2.5t4 -4t3.5 -6t1.5 -7.5q2 -15 19 -48q10 -18 36 -68.5t50.5 -95.5t47.5 -83q18 30 43 78t54.5 105.5t38.5 75.5zM268 731q-13 0 -40 -10.5t-48 -20.5l-20 -11l-12 11l6 9q94 74 114 74q8 0 36.5 -18.5
t53.5 -36.5l24 -19l6 -9l-13 -11q-80 42 -107 42z" />
    <glyph glyph-name="ycircumflex" unicode="&#x177;" horiz-adv-x="469" 
d="M273 116q1 3 22 47t33.5 73t31 72t29 76t12.5 53q1 16 37 16q24 0 24 -9q0 -2 -1 -3q-29 -50 -30 -53l-84 -186q-7 -15 -30.5 -68.5t-42.5 -95.5t-49.5 -98t-58.5 -93.5t-62.5 -64.5t-67.5 -27q-20 0 -36 9.5t-16 28.5q0 10 4.5 14t9.5 4t14.5 -2t15.5 -2q45 0 80 26
t68 82.5t33 86.5q0 52 -161 422l-4 7q-3 7 -3 10q0 13 32 13q43 0 49 -21q14 -51 48.5 -134.5t61.5 -142.5l28 -58q6 0 13 18zM281 571q-13 0 -40 -10.5t-47 -20.5l-21 -11l-12 11l6 9q94 74 114 74q8 0 36.5 -18.5t52.5 -36.5l25 -19l6 -9l-13 -11q-80 42 -107 42z" />
    <glyph glyph-name="Ydieresis" unicode="&#x178;" horiz-adv-x="524" 
d="M431 615q7 13 12.5 32t11.5 23t25 4q30 0 30 -9q0 -1 -1 -2q-25 -31 -57.5 -88.5t-77.5 -145t-53 -101.5q-16 -30 -16 -85q0 -147 9 -210q1 -4 4 -15t3 -17q0 -12 -44 -12q-51 0 -51 12q0 1 5 25t5 45v122q-1 77 -10 117.5t-47 107.5q-2 3 -22.5 45.5t-47.5 90.5t-51 81
q-3 4 -8.5 10.5t-9 10.5t-3.5 7q0 11 53 11h8h8.5h7.5t7 -1t6 -2t6 -2.5t4 -4t3.5 -6t1.5 -7.5q2 -15 19 -48q10 -18 36 -68.5t50.5 -95.5t47.5 -83q18 30 43 78t54.5 105.5t38.5 75.5zM187 750q14 4 27.5 -12.5t11.5 -33.5q-1 -15 -18 -26t-31 -13q-7 -1 -11.5 4.5
t-7.5 13.5t-4 9q-8 12 -23 15q-3 0 -3 4t2 8q4 5 23 16t34 15zM350 750q14 4 27.5 -12.5t11.5 -33.5q-1 -15 -18 -26t-31 -13q-7 -1 -11.5 4.5t-7.5 13.5t-4 9q-8 12 -23 15q-4 0 -4 4t3 8q3 5 22 16t35 15z" />
    <glyph glyph-name="Zacute" unicode="&#x179;" horiz-adv-x="626" 
d="M150 41l6 -4q23 -5 70 -5q201 0 262 28q35 11 82 40l4 2q14 0 14 -39q0 -29 -11 -49t-33 -20q-76 9 -189 9q-54 0 -147 -2.5t-145 -2.5q-36 0 -36 18q0 4 9 11q24 18 67 78q62 87 188 258t189 260q0 11 -84 11q-75 0 -125.5 -4.5t-97.5 -13t-75 -11.5q-17 -2 -26 6.5
t-10 16t-1 19.5q0 21 20 21q60 0 200 -5q58 0 163 4t140 4q8 0 13 -6t5 -14q0 -2 -28 -30q-63 -63 -242 -309t-182 -271zM283 697l-10 11l15 19q121 74 128 74q4 0 12.5 -16t8.5 -21q0 -4 -18 -11z" />
    <glyph glyph-name="zacute" unicode="&#x17a;" horiz-adv-x="444" 
d="M297 394q0 13 -66 13q-87 0 -158 -15q-18 0 -18 19q0 13 6 24t12 11q53 -9 138 -9q65 0 117.5 5t77.5 5q4 0 8 -4.5t4 -9.5q0 -1 -9.5 -12.5t-21 -25t-13.5 -16.5l-45 -60q-171 -253 -171 -277q0 -11 85 -11q116 0 160 22q1 1 4 1q11 0 11 -25q0 -5 -8.5 -18t-13.5 -13
q-94 4 -127 4q-117 0 -225 -10q-10 3 -10 14q0 4 7 11q30 32 63.5 76.5t55.5 78t56.5 88.5t49.5 78q2 3 8.5 12t10.5 15.5t8 14.5t4 14zM146 522l-10 11l15 19q121 74 128 74q4 0 12.5 -16t8.5 -21q0 -4 -18 -11z" />
    <glyph glyph-name="Zdotaccent" unicode="&#x17b;" horiz-adv-x="626" 
d="M150 41l6 -4q23 -5 70 -5q201 0 262 28q35 11 82 40l4 2q14 0 14 -39q0 -29 -11 -49t-33 -20q-76 9 -189 9q-54 0 -147 -2.5t-145 -2.5q-36 0 -36 18q0 4 9 11q24 18 67 78q62 87 188 258t189 260q0 11 -84 11q-75 0 -125.5 -4.5t-97.5 -13t-75 -11.5q-17 -2 -26 6.5
t-10 16t-1 19.5q0 21 20 21q60 0 200 -5q58 0 163 4t140 4q8 0 13 -6t5 -14q0 -2 -28 -30q-63 -63 -242 -309t-182 -271zM345 690q-26 0 -44.5 19t-18.5 45t18.5 44.5t44.5 18.5t45 -18.5t19 -44.5t-19 -45t-45 -19z" />
    <glyph glyph-name="zdotaccent" unicode="&#x17c;" horiz-adv-x="432" 
d="M297 394q0 13 -66 13q-87 0 -158 -15q-18 0 -18 19q0 13 6 24t12 11q53 -9 138 -9q65 0 117.5 5t77.5 5q4 0 8 -4.5t4 -9.5q0 -1 -9.5 -12.5t-21 -25t-13.5 -16.5l-45 -60q-171 -253 -171 -277q0 -11 85 -11q116 0 160 22q1 1 4 1q11 0 11 -25q0 -5 -8.5 -18t-13.5 -13
q-94 4 -127 4q-117 0 -225 -10q-10 3 -10 14q0 4 7 11q30 32 63.5 76.5t55.5 78t56.5 88.5t49.5 78q2 3 8.5 12t10.5 15.5t8 14.5t4 14zM220 531q-26 0 -44.5 19t-18.5 45t18.5 44.5t44.5 18.5t45 -18.5t19 -44.5t-19 -45t-45 -19z" />
    <glyph glyph-name="Zcaron" unicode="&#x17d;" horiz-adv-x="609" 
d="M150 41l6 -4q23 -5 70 -5q201 0 262 28q35 11 82 40l4 2q14 0 14 -39q0 -29 -11 -49t-33 -20q-76 9 -189 9q-54 0 -147 -2.5t-145 -2.5q-36 0 -36 18q0 4 9 11q24 18 67 78q62 87 188 258t189 260q0 11 -84 11q-75 0 -125.5 -4.5t-97.5 -13t-75 -11.5q-17 -2 -26 6.5
t-10 16t-1 19.5q0 21 20 21q60 0 200 -5q58 0 163 4t140 4q8 0 13 -6t5 -14q0 -2 -28 -30q-63 -63 -242 -309t-182 -271zM338 757q12 0 39 10.5t47 20.5l21 11l13 -11l-6 -9q-96 -74 -114 -74q-9 0 -37.5 18.5t-52.5 36.5l-24 19l-6 9l12 11q78 -42 108 -42z" />
    <glyph glyph-name="zcaron" unicode="&#x17e;" horiz-adv-x="432" 
d="M297 394q0 13 -66 13q-87 0 -158 -15q-18 0 -18 19q0 13 6 24t12 11q53 -9 138 -9q65 0 117.5 5t77.5 5q4 0 8 -4.5t4 -9.5q0 -1 -9.5 -12.5t-21 -25t-13.5 -16.5l-45 -60q-171 -253 -171 -277q0 -11 85 -11q116 0 160 22q1 1 4 1q11 0 11 -25q0 -5 -8.5 -18t-13.5 -13
q-94 4 -127 4q-117 0 -225 -10q-10 3 -10 14q0 4 7 11q30 32 63.5 76.5t55.5 78t56.5 88.5t49.5 78q2 3 8.5 12t10.5 15.5t8 14.5t4 14zM217 552q12 0 38.5 10.5t47.5 21.5l21 10l13 -11l-6 -9q-96 -74 -114 -74q-9 0 -37.5 18.5t-52.5 37.5l-24 18l-6 9l12 11
q78 -42 108 -42z" />
    <glyph glyph-name="florin" unicode="&#x192;" horiz-adv-x="352" 
d="M129 358h-77q-22 11 -22 24q0 12 27 20h77q22 150 57 215q43 77 93 77q19 0 38 -9t19 -25q0 -13 -13 -24.5t-26 -11.5q-14 0 -23 12t-13 12q-21 -1 -35 -40.5t-20.5 -85.5t-12.5 -104v-5.5t-0.5 -4.5t-0.5 -5l90 1q17 -10 17 -23q0 -11 -22 -21l-90 -1q-2 -17 -9.5 -76.5
t-14.5 -117.5q-11 -90 -19.5 -127t-27.5 -72q-42 -78 -93 -78q-18 0 -37 9t-19 25q0 13 13 24.5t26 11.5t21.5 -12t13.5 -12q25 1 35.5 48.5t27.5 199.5q12 108 20 176z" />
    <glyph glyph-name="AEacute" unicode="&#x1fc;" horiz-adv-x="990" 
d="M24 12q76 84 263 312t238 303q-1 6 -1 16q0 17 8 24.5t30 8.5q22 0 57.5 -1.5t52 -2.5t35.5 0q43 0 114.5 3.5t93.5 4.5q33 -14 33 -41q0 -31 -33 -31q-62 31 -218 31q-71 0 -83 -7q-11 -5 -14 -20q-2 -50 -2 -232q2 -12 14 -12q41 0 110 9t94 24q10 0 19.5 -7.5
t9.5 -19.5q0 -19 -33 -33q-13 8 -57 8q-29 0 -64 -3.5t-58.5 -7.5t-24.5 -4q-7 0 -10 -5q1 -49 0.5 -140t0.5 -114q3 -5 7 -15q20 -26 105 -26q50 0 119 8.5t104 20.5q24 -1 24 -18q0 -18 -27 -50q-147 19 -378 -6q-29 -4 -30 22q-1 2 -1 7t1 9q0 23 2.5 98.5t4 133
t0.5 57.5q-232 -24 -239 -35q-8 -11 -51 -68.5t-83 -113.5t-56 -87q-14 -27 -70 -27q-11 0 -11 9t4 18zM531 356v3v10v184q-2 20 -5 20t-11 -8q-13 -14 -100.5 -124.5t-90.5 -116.5q17 4 69 12t95 14zM529 689l-10 11l15 19q121 74 128 74q4 0 12.5 -16t8.5 -21
q0 -4 -18 -11z" />
    <glyph glyph-name="aeacute" unicode="&#x1fd;" horiz-adv-x="723" 
d="M595 255q-156 -17 -190 -23q-24 -4 -31.5 -11t-7.5 -30q0 -147 169 -147q43 0 75.5 12t48.5 23.5t20 11.5q6 0 10 -4t3 -10q-7 -32 -68.5 -59t-120.5 -27q-76 0 -136 55q4 -30 7 -45q1 -4 -2 -6t-10.5 -3.5t-19.5 -1.5q-26 0 -35 9t-13 38q-40 -29 -72.5 -38t-88.5 -9
q-38 0 -68.5 38t-30.5 84q0 43 12 74t31 48.5t50.5 27t61 12.5t72.5 3q5 0 10 -4.5t5 -10.5q0 -17 -11 -17q-7 0 -22 2.5t-23 2.5q-51 0 -82 -29t-31 -88q0 -44 31.5 -71.5t65.5 -27.5q94 0 94 136q0 3 -0.5 14.5t-1 34t-0.5 53.5q0 32 -3.5 52.5t-16 42t-41.5 32t-74 10.5
q-11 0 -40 -11.5t-41 -11.5q-22 0 -22 18q0 46 196 46q82 0 103 -79q67 80 164 80q65 0 115.5 -40.5t50.5 -104.5q0 -10 -2.5 -18t-8.5 -13t-11 -8.5t-16 -5.5l-16.5 -3t-19.5 -2t-18 -1zM612 319q0 40 -34.5 67t-75.5 27q-44 0 -85.5 -45.5t-41.5 -94.5q0 -10 19 -10
q27 0 55 3t73 10t54 8q36 4 36 35zM286 495l-10 11l15 19q121 74 128 74q4 0 12.5 -16t8.5 -21q0 -4 -18 -11z" />
    <glyph glyph-name="Oslashacute" unicode="&#x1fe;" horiz-adv-x="759" 
d="M179 -14q-7 -11 -19 -9.5t-16.5 10.5t1.5 21l29 45q-65 48 -102 121t-37 157q0 142 99.5 244.5t241.5 102.5q93 0 174 -47l33 50q7 11 19 9.5t16.5 -10.5t-1.5 -21l-33 -50q65 -48 103.5 -121t38.5 -155q0 -152 -101 -248.5t-253 -96.5q-86 0 -164 43zM651 299
q0 70 -26.5 138.5t-74.5 119.5l-309 -475q72 -59 165 -59q114 0 179.5 80t65.5 196zM115 360q0 -69 25.5 -135.5t70.5 -114.5l309 475q-71 58 -159 58q-117 0 -181.5 -81.5t-64.5 -201.5zM321 711l-10 11l15 19q121 74 128 74q4 0 12.5 -16t8.5 -21q0 -4 -18 -11z" />
    <glyph glyph-name="oslashacute" unicode="&#x1ff;" horiz-adv-x="498" 
d="M402 402q41 -33 64.5 -83t23.5 -103q0 -90 -65.5 -158t-155.5 -68q-69 0 -116 27q-38 -57 -43 -58t-9.5 -1.5t-7 0.5t-4.5 3t-3 3.5t-1.5 4.5t-0.5 4v3v3q0 2 8 14.5t18 28t11 16.5q-40 32 -63.5 79.5t-23.5 98.5q0 97 65.5 165.5t161.5 68.5q59 0 110 -27q1 2 6 9.5
t10 15.5t10.5 16.5t10.5 13.5t7 5l2 -1q1 -1 5.5 -1.5t8 -1t6.5 -5t3 -12.5q0 -2 -8 -14.5t-18.5 -28t-11.5 -17.5zM368 348l-184 -282q43 -43 98 -43q64 0 99 48.5t35 114.5q0 96 -48 162zM159 96l183 281q-44 41 -100 41q-67 0 -101.5 -49.5t-34.5 -119.5q0 -78 53 -153z
M190 495l-10 11l15 19q121 74 128 74q4 0 12.5 -16t8.5 -21q0 -4 -18 -11z" />
    <glyph glyph-name="Scommaaccent" unicode="&#x218;" horiz-adv-x="489" 
d="M463 189q0 -88 -69 -144.5t-159 -56.5q-13 0 -28.5 3t-26.5 6t-30 10.5t-26 10.5t-29 13.5t-25 11.5q-13 8 -21 26t-8 35q0 22 13 22q5 0 10 -4q27 -32 81 -61t95 -29q60 0 106 34t46 91q0 44 -25 77t-62 51t-81 39.5t-81 41.5t-62 56.5t-25 85.5q0 73 58 121.5t133 48.5
q80 0 158 -26q27 -9 27 -40q0 -23 -18 -23q-13 0 -29 15q-46 43 -128 43q-51 0 -91 -31.5t-40 -80.5q0 -41 25 -72.5t62.5 -49.5t81 -39t81 -41.5t62.5 -57.5t25 -86zM206 -107q17 2 33.5 -7.5t17.5 -34.5q0 -24 -17 -41.5t-34 -23.5l-17 -5q-1 0 -3 -1t-5 -3.5t-4 -4.5
t1.5 -4.5t10.5 -3.5q26 -4 49 8t37.5 33t22.5 38t12 30q6 21 -14.5 51.5t-48.5 34.5q-56 7 -56 -32q0 -36 15 -34z" />
    <glyph glyph-name="scommaaccent" unicode="&#x219;" horiz-adv-x="395" 
d="M382 139q0 -63 -60.5 -107.5t-125.5 -44.5h-25q-133 0 -133 56q0 14 7 24t17 10q1 0 19 -9l-7 4q80 -51 130 -51q44 0 80.5 28t36.5 72q0 32 -28.5 50t-68.5 26.5t-80.5 18.5t-69 36t-28.5 69q0 61 49 95t112 34q35 0 99 -15q2 -1 8.5 -2t10 -2t8.5 -3t7.5 -4.5t4.5 -6.5
t2 -10q0 -29 -22 -29q-6 0 -20.5 11t-40 22t-59.5 11q-39 0 -71.5 -19t-32.5 -55q0 -25 21 -41.5t52 -23.5t67.5 -17t67.5 -22t52 -39t21 -66zM173 -124q17 2 33.5 -7.5t17.5 -34.5q0 -24 -17 -41.5t-34 -22.5l-17 -6q-1 0 -3 -1t-5 -3.5t-4 -4.5t1.5 -4.5t10.5 -3.5
q26 -4 49 8t37.5 33t22.5 38t12 30q6 21 -14.5 51.5t-48.5 34.5q-56 7 -56 -32q0 -36 15 -34z" />
    <glyph glyph-name="hsuperior" unicode="&#x2b0;" horiz-adv-x="242" 
d="M18 780v2q0 19 21 19q11 0 19.5 -4.5t8.5 -10.5q0 -11 0.5 -51t0.5 -62v-53q34 22 64 22q43 0 67 -28.5t24 -71.5v-108q0 -18 5 -31q-1 -14 -25 -14q-28 0 -31 13q4 14 4 24v106q0 31 -14.5 52t-43.5 21q-17 0 -33.5 -9.5t-16.5 -25.5v-94q0 -19 0.5 -34t1 -23t0.5 -10
q1 -2 1 -8q0 -12 -23 -12q-30 0 -30 12q0 9 1 12q0 2 1 6.5t1 5.5v237q0 79 -3 118z" />
    <glyph glyph-name="circumflex" unicode="&#x2c6;" horiz-adv-x="306" 
d="M153 542q-13 0 -40 -10.5t-47 -21.5l-21 -10l-12 11l6 9q94 74 114 74q8 0 36.5 -18.5t52.5 -37.5l25 -18l6 -9l-13 -11q-80 42 -107 42z" />
    <glyph glyph-name="caron" unicode="&#x2c7;" horiz-adv-x="305" 
d="M152 552q12 0 39 10.5t47 21.5l21 10l13 -11l-6 -9q-96 -74 -114 -74q-9 0 -37.5 18.5t-52.5 37.5l-24 18l-6 9l12 11q78 -42 108 -42z" />
    <glyph glyph-name="breve" unicode="&#x2d8;" horiz-adv-x="302" 
d="M267 585q0 -34 -40 -59t-76 -25t-76.5 25t-40.5 59q0 7 14 7q9 0 19.5 -7.5t19.5 -16t26 -16t38 -7.5q25 0 45 11.5t33 23.5t20 12q18 0 18 -7z" />
    <glyph glyph-name="dotaccent" unicode="&#x2d9;" horiz-adv-x="199" 
d="M99 485q-26 0 -44.5 19t-18.5 45t18.5 44.5t44.5 18.5t45 -18.5t19 -44.5t-19 -45t-45 -19z" />
    <glyph glyph-name="ring" unicode="&#x2da;" horiz-adv-x="233" 
d="M198 544q0 -33 -24 -57.5t-57 -24.5q-34 0 -58 24t-24 58q0 33 24.5 57t57.5 24t57 -24t24 -57zM165 544q0 20 -14.5 34t-33.5 14q-20 0 -34.5 -14.5t-14.5 -33.5q0 -20 14.5 -34.5t34.5 -14.5q19 0 33.5 14.5t14.5 34.5z" />
    <glyph glyph-name="ogonek" unicode="&#x2db;" horiz-adv-x="253" 
d="M140 0q-62 -39 -62 -90q0 -85 89 -85q28 0 52 10l4 -9q-39 -23 -89 -23q-45 0 -72 25.5t-27 69.5q0 60 83 102h22z" />
    <glyph glyph-name="tilde" unicode="&#x2dc;" horiz-adv-x="314" 
d="M35 515q0 20 26.5 45.5t46.5 25.5q23 0 57.5 -18.5t49.5 -18.5q21 0 38 16t19 16q7 0 7 -7q0 -18 -27 -42t-46 -24q-24 0 -56.5 17.5t-48.5 17.5q-13 0 -26 -9t-20.5 -18t-8.5 -9q-11 0 -11 8z" />
    <glyph glyph-name="hungarumlaut" unicode="&#x2dd;" horiz-adv-x="390" 
d="M190 572l-3 -6l-141 -80l-12 12l18 22l104 85q1 1 5 3q5 0 17 -14.5t12 -21.5zM357 572q0 -4 -4 -6l-140 -80l-12 12l18 22l103 85l6 3q6 0 17.5 -15t11.5 -21z" />
    <glyph glyph-name="Delta" unicode="&#x394;" horiz-adv-x="628" 
d="M520 -2h-415q-22 0 -35.5 9t-13.5 24q0 11 6 21l218 378q13 22 35 22q20 0 27 -16l221 -382q6 -10 6 -21q0 -15 -12.5 -25t-36.5 -10zM301 378l-179 -311q-5 -7 -5 -14q0 -13 23 -13h334q34 0 34 16q0 7 -5 15l-178 307q-4 8 -12 8t-12 -8z" />
    <glyph glyph-name="Delta" unicode="&#x2206;" horiz-adv-x="628" 
d="M520 -2h-415q-22 0 -35.5 9t-13.5 24q0 11 6 21l218 378q13 22 35 22q20 0 27 -16l221 -382q6 -10 6 -21q0 -15 -12.5 -25t-36.5 -10zM301 378l-179 -311q-5 -7 -5 -14q0 -13 23 -13h334q34 0 34 16q0 7 -5 15l-178 307q-4 8 -12 8t-12 -8z" />
    <glyph glyph-name="Omega" unicode="&#x3a9;" horiz-adv-x="761" 
d="M579 46h63q23 0 41.5 2t27.5 4.5t11 2.5q9 0 14.5 -6.5t5.5 -12.5q0 -15 -16 -31.5t-31 -16.5q-4 0 -18 3t-46 6t-81 3q-5 0 -15.5 -0.5t-16.5 -0.5q-20 0 -20 19l5 21q64 38 106 111.5t42 148.5q0 61 -21 122t-57.5 110.5t-92 80.5t-119.5 31q-117 0 -181.5 -81.5
t-64.5 -201.5q0 -49 6 -88.5t23 -81.5t50.5 -80.5t84.5 -71.5q7 -10 7 -20q0 -14 -20 -18q-48 2 -65 2q-51 0 -83.5 -4t-45.5 -8.5t-18 -4.5q-8 0 -15.5 16t-7.5 26q0 30 7 30q1 0 2 -1q13 -9 26 -12.5t25 -4t50 -0.5q9 0 51 2q-64 51 -110.5 131.5t-46.5 158.5
q0 142 99.5 244.5t241.5 102.5t246 -101.5t104 -243.5q0 -84 -41.5 -161.5t-105.5 -125.5z" />
    <glyph glyph-name="Omega" unicode="&#x2126;" horiz-adv-x="761" 
d="M579 46h63q23 0 41.5 2t27.5 4.5t11 2.5q9 0 14.5 -6.5t5.5 -12.5q0 -15 -16 -31.5t-31 -16.5q-4 0 -18 3t-46 6t-81 3q-5 0 -15.5 -0.5t-16.5 -0.5q-20 0 -20 19l5 21q64 38 106 111.5t42 148.5q0 61 -21 122t-57.5 110.5t-92 80.5t-119.5 31q-117 0 -181.5 -81.5
t-64.5 -201.5q0 -49 6 -88.5t23 -81.5t50.5 -80.5t84.5 -71.5q7 -10 7 -20q0 -14 -20 -18q-48 2 -65 2q-51 0 -83.5 -4t-45.5 -8.5t-18 -4.5q-8 0 -15.5 16t-7.5 26q0 30 7 30q1 0 2 -1q13 -9 26 -12.5t25 -4t50 -0.5q9 0 51 2q-64 51 -110.5 131.5t-46.5 158.5
q0 142 99.5 244.5t241.5 102.5t246 -101.5t104 -243.5q0 -84 -41.5 -161.5t-105.5 -125.5z" />
    <glyph glyph-name="pi" unicode="&#x3c0;" horiz-adv-x="569" 
d="M449 51q15 1 29 14.5t24 26.5t15 13t7.5 -1.5t5.5 -7.5t0 -19q-3 -23 -35.5 -57.5t-60.5 -34.5q-57 0 -82 37.5t-25 123.5q0 136 50 230q-112 2 -124 2q-1 -9 -9 -58t-11.5 -69.5t-11 -59t-15 -67.5t-16.5 -56q-11 -34 -23 -54t-36 -29l-5 -1q-4 -1 -7.5 -1t-8 1t-7 5.5
t-1.5 12.5l4 32q2 14 24.5 35t25.5 33q36 141 53 272q-10 -1 -28.5 -2.5t-28 -3t-22.5 -5t-22 -9.5t-16 -16q-6 -8 -9 -19t-5.5 -25t-4.5 -21l-12 55q-10 42 25 68.5t88 33.5t107.5 10.5t83.5 -0.5h4.5h3.5h4q4 0 24 -0.5t36 -1t34.5 1t27.5 5.5q4 1 7 4.5t6.5 9t5.5 7.5
v-43q0 -19 -35.5 -34.5t-66.5 -14.5q-29 -75 -34 -205q-2 -57 4.5 -83t19.5 -31.5t43 -3.5z" />
    <glyph glyph-name="Wgrave" unicode="&#x1e80;" horiz-adv-x="848" 
d="M407 519q0 19 13 30.5t29 11.5q13 0 21.5 -8t8.5 -23q0 -17 9 -54t17.5 -66t24.5 -79t18 -57l42 -128q3 -9 7 -9q2 0 44.5 108.5t85.5 236t43 167.5q0 25 38 25q30 0 30 -12q0 -4 -13 -30q-18 -41 -68 -173q-154 -400 -154 -453q0 -10 -9 -16t-19 -6q-12 0 -15 27
q-6 46 -128 412q-4 15 -9 15q-4 0 -10 -19q-25 -68 -70 -198.5t-52 -151.5q-2 -6 -7.5 -32t-14.5 -38.5t-26 -12.5q-7 0 -40.5 111t-83 285t-67.5 234q-1 3 -8.5 20t-7.5 24q0 6 10 10.5t20 4.5q54 0 54 -20q0 -21 8 -51l70 -251q7 -30 24 -81.5t31.5 -90.5t16.5 -39t4.5 3
t4 6t3 7.5t2.5 5.5q25 59 74 195.5t49 159.5zM396 751q6 0 38 -18.5t61 -36.5l29 -18q2 -1 5 -3t7.5 -6.5t3.5 -7.5t-3.5 -6.5t-4.5 -4.5l-3 -2q-112 44 -136 54q-17 8 -17 14t7.5 20.5t12.5 14.5z" />
    <glyph glyph-name="wgrave" unicode="&#x1e81;" horiz-adv-x="593" 
d="M208 -10q-8 0 -12 13q-28 104 -146 405q-15 33 -15 35q0 11 28 11q43 0 49 -21q9 -35 41.5 -125.5t44.5 -120.5q0 -1 9 -23.5t16.5 -38.5t11.5 -16q3 0 6 5q8 18 28 81t38.5 101t37.5 38q9 0 16.5 -8t12.5 -22.5t8.5 -27.5t8 -32t6.5 -27q7 -24 18 -58t17 -59
q15 36 33 89q2 6 27.5 72.5t39.5 110t16 69.5q1 13 28 13q15 0 18.5 -4t3.5 -17q-20 -36 -76.5 -204t-77.5 -218q-9 -21 -28 -21q-5 0 -10.5 13.5t-11 34t-5.5 21.5l-16 55q-16 54 -29 95t-16 41q-5 -1 -43 -102.5t-48 -133.5q-6 -24 -29 -24zM272 598q6 0 38 -18t61 -36
l29 -19q2 -1 5 -3t7.5 -6.5t3.5 -7.5t-3.5 -6.5t-4.5 -5.5l-3 -1q-112 44 -136 54q-1 0 -5 2l-6 3t-4 3.5t-2 5.5q0 6 7.5 20.5t12.5 14.5z" />
    <glyph glyph-name="Wacute" unicode="&#x1e82;" horiz-adv-x="841" 
d="M407 519q0 19 13 30.5t29 11.5q13 0 21.5 -8t8.5 -23q0 -17 9 -54t17.5 -66t24.5 -79t18 -57l42 -128q3 -9 7 -9q2 0 44.5 108.5t85.5 236t43 167.5q0 25 38 25q30 0 30 -12q0 -4 -13 -30q-18 -41 -68 -173q-154 -400 -154 -453q0 -10 -9 -16t-19 -6q-12 0 -15 27
q-6 46 -128 412q-4 15 -9 15q-4 0 -10 -19q-25 -68 -70 -198.5t-52 -151.5q-2 -6 -7.5 -32t-14.5 -38.5t-26 -12.5q-7 0 -40.5 111t-83 285t-67.5 234q-1 3 -8.5 20t-7.5 24q0 6 10 10.5t20 4.5q54 0 54 -20q0 -21 8 -51l70 -251q7 -30 24 -81.5t31.5 -90.5t16.5 -39t4.5 3
t4 6t3 7.5t2.5 5.5q25 59 74 195.5t49 159.5zM380 645l-10 11l15 19q121 74 128 74q4 0 12.5 -16t8.5 -21q0 -4 -18 -11z" />
    <glyph glyph-name="wacute" unicode="&#x1e83;" horiz-adv-x="594" 
d="M208 -10q-8 0 -12 13q-28 104 -146 405q-15 33 -15 35q0 11 28 11q43 0 49 -21q9 -35 41.5 -125.5t44.5 -120.5q0 -1 9 -23.5t16.5 -38.5t11.5 -16q3 0 6 5q8 18 28 81t38.5 101t37.5 38q9 0 16.5 -8t12.5 -22.5t8.5 -27.5t8 -32t6.5 -27q7 -24 18 -58t17 -59
q15 36 33 89q2 6 27.5 72.5t39.5 110t16 69.5q1 13 28 13q15 0 18.5 -4t3.5 -17q-20 -36 -76.5 -204t-77.5 -218q-9 -21 -28 -21q-5 0 -10.5 13.5t-11 34t-5.5 21.5l-16 55q-16 54 -29 95t-16 41q-5 -1 -43 -102.5t-48 -133.5q-6 -24 -29 -24zM257 517l-10 11l15 19
q121 74 128 74q4 0 12.5 -16t8.5 -21q0 -4 -18 -11z" />
    <glyph glyph-name="Wdieresis" unicode="&#x1e84;" horiz-adv-x="846" 
d="M407 519q0 19 13 30.5t29 11.5q13 0 21.5 -8t8.5 -23q0 -17 9 -54t17.5 -66t24.5 -79t18 -57l42 -128q3 -9 7 -9q2 0 44.5 108.5t85.5 236t43 167.5q0 25 38 25q30 0 30 -12q0 -4 -13 -30q-18 -41 -68 -173q-154 -400 -154 -453q0 -10 -9 -16t-19 -6q-12 0 -15 27
q-6 46 -128 412q-4 15 -9 15q-4 0 -10 -19q-25 -68 -70 -198.5t-52 -151.5q-2 -6 -7.5 -32t-14.5 -38.5t-26 -12.5q-7 0 -40.5 111t-83 285t-67.5 234q-1 3 -8.5 20t-7.5 24q0 6 10 10.5t20 4.5q54 0 54 -20q0 -21 8 -51l70 -251q7 -30 24 -81.5t31.5 -90.5t16.5 -39t4.5 3
t4 6t3 7.5t2.5 5.5q25 59 74 195.5t49 159.5zM367 735q14 4 27.5 -12.5t11.5 -33.5q-1 -15 -18 -26t-31 -13q-7 -1 -11.5 4.5t-7.5 13.5t-4 9q-8 12 -23 15q-3 0 -3 4t2 8q4 5 23 16t34 15zM530 735q14 4 27.5 -12.5t11.5 -33.5q-1 -15 -18 -26t-31 -13q-7 -1 -11.5 4.5
t-7.5 13.5t-4 9q-8 12 -23 15q-4 0 -4 4t3 8q3 5 22 16t35 15z" />
    <glyph glyph-name="wdieresis" unicode="&#x1e85;" horiz-adv-x="589" 
d="M208 -10q-8 0 -12 13q-28 104 -146 405q-15 33 -15 35q0 11 28 11q43 0 49 -21q9 -35 41.5 -125.5t44.5 -120.5q0 -1 9 -23.5t16.5 -38.5t11.5 -16q3 0 6 5q8 18 28 81t38.5 101t37.5 38q9 0 16.5 -8t12.5 -22.5t8.5 -27.5t8 -32t6.5 -27q7 -24 18 -58t17 -59
q15 36 33 89q2 6 27.5 72.5t39.5 110t16 69.5q1 13 28 13q15 0 18.5 -4t3.5 -17q-20 -36 -76.5 -204t-77.5 -218q-9 -21 -28 -21q-5 0 -10.5 13.5t-11 34t-5.5 21.5l-16 55q-16 54 -29 95t-16 41q-5 -1 -43 -102.5t-48 -133.5q-6 -24 -29 -24zM230 613q14 4 27.5 -12.5
t11.5 -33.5q-1 -15 -18 -26t-31 -13q-7 -1 -11.5 4.5t-7.5 13.5t-4 9q-8 12 -23 15q-3 0 -3 4t2 8q4 5 23 16t34 15zM393 613q14 4 27.5 -12.5t11.5 -33.5q-1 -15 -18 -26t-31 -13q-7 -1 -11.5 4.5t-7.5 13.5t-4 9q-8 12 -23 15q-4 0 -4 4t3 8q3 5 22 16t35 15z" />
    <glyph glyph-name="Ygrave" unicode="&#x1ef2;" horiz-adv-x="507" 
d="M431 615q7 13 12.5 32t11.5 23t25 4q30 0 30 -9q0 -1 -1 -2q-25 -31 -57.5 -88.5t-77.5 -145t-53 -101.5q-16 -30 -16 -85q0 -147 9 -210q1 -4 4 -15t3 -17q0 -12 -44 -12q-51 0 -51 12q0 1 5 25t5 45v122q-1 77 -10 117.5t-47 107.5q-2 3 -22.5 45.5t-47.5 90.5t-51 81
q-3 4 -8.5 10.5t-9 10.5t-3.5 7q0 11 53 11h8h8.5h7.5t7 -1t6 -2t6 -2.5t4 -4t3.5 -6t1.5 -7.5q2 -15 19 -48q10 -18 36 -68.5t50.5 -95.5t47.5 -83q18 30 43 78t54.5 105.5t38.5 75.5zM213 744q6 0 38 -18t61 -36l29 -19q2 -1 5 -3t7.5 -6.5t3.5 -7.5t-3.5 -6.5t-5.5 -5.5
l-2 -1q-112 44 -136 54q-1 0 -5 2l-6 3t-4 3.5t-2 5.5q0 6 7.5 20.5t12.5 14.5z" />
    <glyph glyph-name="ygrave" unicode="&#x1ef3;" horiz-adv-x="469" 
d="M273 116q1 3 22 47t33.5 73t31 72t29 76t12.5 53q1 16 37 16q24 0 24 -9q0 -2 -1 -3q-29 -50 -30 -53l-84 -186q-7 -15 -30.5 -68.5t-42.5 -95.5t-49.5 -98t-58.5 -93.5t-62.5 -64.5t-67.5 -27q-20 0 -36 9.5t-16 28.5q0 10 4.5 14t9.5 4t14.5 -2t15.5 -2q45 0 80 26
t68 82.5t33 86.5q0 52 -161 422l-4 7q-3 7 -3 10q0 13 32 13q43 0 49 -21q14 -51 48.5 -134.5t61.5 -142.5l28 -58q6 0 13 18zM218 658q6 0 38 -18t61 -36l29 -19q2 -1 5 -3t7.5 -6.5t3.5 -7.5t-3.5 -6.5t-4.5 -5.5l-3 -1q-112 44 -136 54q-1 0 -5 2l-6 3t-4 3.5t-2 5.5
q0 6 7.5 20.5t12.5 14.5z" />
    <glyph glyph-name="endash" unicode="&#x2013;" horiz-adv-x="485" 
d="M356 257q9 0 36 4t38 4q21 0 21 -10q0 -18 -10.5 -29t-19.5 -13t-18 -2h-284q-9 0 -33.5 -3.5t-33.5 -3.5q-14 0 -14 7q0 15 18 30.5t28 15.5h272z" />
    <glyph glyph-name="emdash" unicode="&#x2014;" horiz-adv-x="649" 
d="M516 257q9 0 36 4t38 4q21 0 21 -10q0 -18 -10.5 -29t-19.5 -13t-18 -2h-444q-9 0 -33.5 -3.5t-33.5 -3.5q-14 0 -14 7q0 15 18 30.5t28 15.5h432z" />
    <glyph glyph-name="quoteleft" unicode="&#x2018;" horiz-adv-x="187" 
d="M85 643q31 26 51 24q9 0 9 -8q0 -3 -15.5 -11.5t-30.5 -22t-15 -31.5q0 -4 6.5 -4t13 1t11.5 -2q20 -13 30 -45q8 -24 4 -31q-4 -6 -26 -21.5t-38 -20.5q-15 -4 -33.5 32t-18.5 59q1 28 11 42t41 39z" />
    <glyph glyph-name="quoteright" unicode="&#x2019;" horiz-adv-x="187" 
d="M102 494q-34 -25 -52 -23q-8 0 -8 8q0 3 15.5 11.5t30.5 22t15 31.5q0 4 -6.5 4t-13 -1t-11.5 2q-22 13 -31 45q-6 26 -3 31q4 6 26 21.5t38 20.5q14 4 33 -32t18 -59q0 -27 -10 -41.5t-41 -40.5z" />
    <glyph glyph-name="quotesinglbase" unicode="&#x201a;" horiz-adv-x="187" 
d="M102 -63q-30 -26 -51 -24q-3 0 -6 2.5t-2 6.5q0 3 15 11.5t30 22t15 30.5q0 4 -6 4.5t-13 -0.5t-12 2q-21 12 -30 45q-8 23 -4 30q4 6 26 21.5t39 20.5q14 4 32.5 -31.5t18.5 -59.5q-1 -28 -11 -42t-41 -39z" />
    <glyph glyph-name="quotedblleft" unicode="&#x201c;" horiz-adv-x="352" 
d="M87 643q-31 -25 -41 -39t-11 -42q0 -23 18.5 -59t33.5 -32q16 5 38 20.5t26 21.5q4 7 -4 31q-10 32 -30 45q-5 3 -11.5 2t-13 -1t-6.5 4q0 18 15 31.5t30.5 22t15.5 11.5q0 8 -9 8q-20 2 -51 -24zM248 643q-31 -25 -41 -39.5t-10 -41.5q-1 -23 18 -59t33 -32
q16 5 38 20.5t26 21.5q3 5 -3 31q-9 32 -31 45q-5 3 -11.5 2t-13 -1t-6.5 4q0 18 15 31.5t30.5 22t15.5 11.5q0 8 -9 8q-19 2 -51 -24z" />
    <glyph glyph-name="quotedblright" unicode="&#x201d;" horiz-adv-x="352" 
d="M265 494q31 26 41 40.5t10 41.5q1 23 -18 59t-33 32q-16 -5 -38 -20.5t-26 -21.5q-3 -5 3 -31q9 -32 31 -45q5 -3 11.5 -2t13 1t6.5 -4q0 -18 -15 -31.5t-30.5 -22t-15.5 -11.5q0 -8 8 -8q18 -2 52 23zM104 494q31 26 40.5 40.5t10.5 41.5q1 23 -18 59t-33 32
q-17 -5 -39 -20.5t-25 -21.5q-3 -5 3 -31q9 -32 31 -45q5 -3 11.5 -2t13 1t6.5 -4q0 -18 -15 -31.5t-30.5 -22t-15.5 -11.5q0 -8 8 -8q18 -2 52 23z" />
    <glyph glyph-name="quotedblbase" unicode="&#x201e;" horiz-adv-x="297" 
d="M102 -63q-30 -26 -51 -24q-3 0 -6 2.5t-2 6.5q0 3 15 11.5t30 22t15 30.5q0 4 -6 4.5t-13 -0.5t-12 2q-21 12 -30 45q-8 23 -4 30q4 6 26 21.5t39 20.5q14 4 32.5 -31.5t18.5 -59.5q-1 -28 -11 -42t-41 -39zM246 -63q-30 -26 -51 -24q-3 0 -6 2.5t-2 6.5q0 3 15 11.5
t30 22t15 30.5q0 4 -6 4.5t-13 -0.5t-12 2q-21 12 -30 45q-8 23 -4 30q4 6 26 21.5t39 20.5q14 4 32.5 -31.5t18.5 -59.5q-1 -28 -11 -42t-41 -39z" />
    <glyph glyph-name="dagger" unicode="&#x2020;" horiz-adv-x="480" 
d="M93 487q17 -1 69 -1t57 1l1 174q0 16 16 16q3 0 9.5 -1t9.5 -1q4 0 12.5 1.5t12.5 1.5q14 0 14 -27v-164h138q33 0 37 -6q2 -3 2 -9q0 -4 -1 -11t-1 -10t1.5 -10t1.5 -10q0 -13 -11 -13q-12 0 -43.5 2t-51.5 2l-72 -1q0 -585 -3 -622q-2 -18 -28 -18q-19 0 -39 13
q-5 2 -5 176v451q-5 0 -42 1t-62 1q-12 0 -29.5 -1t-24.5 -1q-4 0 -7.5 3t-3.5 7t1.5 12t1.5 12q0 3 -1 8.5t-1 8.5q0 17 13 17q5 0 29 -2z" />
    <glyph glyph-name="daggerdbl" unicode="&#x2021;" horiz-adv-x="489" 
d="M274 289l-18 -128q0 -2 3.5 -6t8.5 -9.5t7 -8.5q28 5 80.5 11.5t65.5 8.5q1 0 9.5 1.5t13.5 1.5q11 0 11 -13q0 -4 -1.5 -10.5t-1.5 -9.5t1 -11t1 -11q0 -14 -15 -14q-27 0 -82.5 10.5t-84.5 10.5l-18 -21q17 -237 23 -305v-6q0 -6 -4 -10.5t-10 -4.5q-4 0 -12.5 1.5
t-12.5 1.5t-11 -1t-10 -1q-6 0 -10 5t-4 11q0 3 2 30q8 108 21 277q-16 22 -22 22q-26 0 -78.5 -11t-78.5 -11q-12 0 -12 16q0 4 0.5 10t0.5 8q0 4 -1.5 12t-1.5 12q0 10 14 10q22 0 77 -9.5t71 -9.5l2 1q27 11 28 23q0 22 -8 64t-8 63q0 19 2.5 39.5t7.5 49.5t6 39l-23 23
q-26 0 -79 -9.5t-79 -9.5q-3 0 -7 3t-4 7t1.5 12t1.5 12q0 3 -1 8.5t-1 8.5q0 17 13 17q26 0 78.5 -11t78.5 -11h2q1 1 6.5 8.5t10.5 9.5l3 4l-12 72t-11 99q0 18 14 18h46q14 0 14 -14q0 -29 -11.5 -88.5t-11.5 -89.5q20 -20 21 -20q27 0 82 10.5t82 10.5q15 0 15 -15
q0 -4 -1 -11t-1 -10t1.5 -10t1.5 -10q0 -12 -14 -12q-19 0 -90 10.5t-75 12.5q-2 -3 -10 -11.5t-10 -11.5v-4q0 -7 9 -60t9 -66z" />
    <glyph glyph-name="bullet" unicode="&#x2022;" horiz-adv-x="345" 
d="M173 398q56 0 96.5 -41.5t40.5 -97.5t-40.5 -98t-96.5 -42q-57 0 -97.5 41.5t-40.5 98.5t40.5 98t97.5 41z" />
    <glyph glyph-name="ellipsis" unicode="&#x2026;" horiz-adv-x="669" 
d="M101 109q-17 -5 -37.5 -19.5t-23.5 -20.5q-3 -4 -3 -9.5t4 -6.5q14 -3 25 -18q1 -2 4.5 -12.5t8 -17.5t11.5 -6q16 3 34 17.5t19 33.5q2 21 -12.5 42t-29.5 17zM346 109q-17 -5 -37.5 -19.5t-23.5 -20.5q-3 -4 -3 -9.5t4 -6.5q14 -3 25 -18q1 -2 4.5 -12.5t8 -17.5
t11.5 -6q16 3 34 17.5t19 33.5q2 21 -12.5 42t-29.5 17zM588 109q-16 -5 -36.5 -19.5t-24.5 -20.5q-3 -4 -3 -9.5t4 -6.5q14 -3 25 -18q1 -2 4.5 -12.5t8 -17.5t11.5 -6q16 3 34 17.5t19 33.5q2 21 -12.5 42t-29.5 17z" />
    <glyph glyph-name="perthousand" unicode="&#x2030;" horiz-adv-x="1083" 
d="M298 452q0 -56 -12 -105t-45 -86.5t-81 -37.5t-81 37.5t-45.5 87t-12.5 104.5q0 56 12 105t44.5 87t81.5 38q37 0 65 -21.5t43.5 -56.5t23 -73.5t7.5 -78.5zM239 473q-3 28 -10 57.5t-18.5 61.5t-31 48.5t-42.5 9.5q-61 -15 -61 -157q0 -30 4 -64q4 -29 10 -57
t17.5 -59.5t30.5 -48t42 -10.5q63 18 63 160q0 27 -4 59zM180 -12q-20 0 -20 13q2 7 7 16.5t13 21.5t10 16l67 114l193 331q84 146 92 158q9 13 14 16.5t20 3.5q18 0 18 -10q0 -5 -172.5 -302.5t-207.5 -354.5q-6 -10 -9 -13.5t-9 -6.5t-16 -3zM757 222q0 -56 -12 -105
t-45 -86.5t-81 -37.5t-81 37.5t-45.5 87t-12.5 104.5q0 56 12 105t44.5 87t81.5 38q37 0 65 -21.5t43.5 -56.5t23 -73.5t7.5 -78.5zM698 243q-3 28 -10 57.5t-18.5 61.5t-31 48.5t-42.5 9.5q-61 -15 -61 -157q0 -30 4 -64q4 -29 10 -57t17.5 -59.5t30.5 -48t42 -10.5
q63 18 63 160q0 27 -4 59zM1064 219q0 -56 -12 -105t-45 -86.5t-81 -37.5t-81 37.5t-45.5 87t-12.5 104.5q0 56 12 105t44.5 87t81.5 38q37 0 65 -21.5t43.5 -56.5t23 -73.5t7.5 -78.5zM1005 240q-3 28 -10 57.5t-18.5 61.5t-31 48.5t-42.5 9.5q-61 -15 -61 -157
q0 -30 4 -64q4 -29 10 -57t17.5 -59.5t30.5 -48t42 -10.5q63 18 63 160q0 27 -4 59z" />
    <glyph glyph-name="second" unicode="&#x2033;" horiz-adv-x="991" 
d="M945 325h-404q-18 0 -18 11v23q0 11 18 11h404q17 0 17 -11v-23q0 -11 -17 -11zM447 478q-1 -48 -36 -97t-84 -87.5t-98 -75t-83.5 -72.5t-34.5 -66q0 -23 101 -23q106 0 202 14q1 0 3 0.5t3 0.5q18 0 18 -20q0 -17 -11.5 -40t-17.5 -23q-30 2 -91.5 9.5t-90.5 7.5
q-43 0 -97 -4t-81 -4q-8 0 -13 9t-5 21q0 45 18.5 84t48.5 68t66 55.5t72 52t66.5 52t50 60.5t20.5 73v24q0 53 -38.5 93.5t-119.5 40.5q-21 0 -35.5 -2t-27.5 -9.5t-19 -11.5t-21 -18t-21 -20q-10 -8 -18 -8q-17 0 -17 23q0 10 6 19q64 71 158 71q116 0 171.5 -56.5
t55.5 -140.5zM514 566q0 27 -8 49v4l-1 3q0 9 12 15.5t24 6.5q14 0 18 -11q1 -6 1 -15l1 1q38 23 67 23q25 0 42 -9t26 -21.5t13.5 -34t5.5 -36.5t1 -39v-21v-31q0 -36 1 -45q0 -16 -22 -16q-23 0 -27 14v7q2 10 2 16v105q0 32 -14 53.5t-44 21.5q-34 0 -43 -18t-9 -69v-13
q0 -89 3 -103q0 -14 -27 -14q-24 0 -24 12v4v4q2 8 2 12v145zM971 408v-6q0 -13 -22 -13q-25 0 -25 12q0 2 0.5 5t0.5 4v3q-45 -24 -65 -24q-49 0 -84 34t-35 83q0 57 38 96.5t94 39.5q23 0 50 -10v109q0 28 -4 40q0 20 28 20q21 0 21 -12v-51q0 -37 2 -191q0 -23 0.5 -60
t0.5 -49v-30zM870 611q-37 0 -58.5 -26t-21.5 -64q0 -35 26.5 -61.5t62.5 -26.5q44 0 44 34v111q0 16 -17.5 24.5t-35.5 8.5z" />
    <glyph glyph-name="guilsinglleft" unicode="&#x2039;" horiz-adv-x="242" 
d="M206 55l-4 -5q-7 0 -13 10q-56 79 -119 136q-1 1 -7 5.5t-11.5 9.5t-11.5 10t-10 9t-4 6t4 6q91 68 153 162q9 13 16 13l4 -5q-1 -19 -40.5 -100t-39.5 -82t41 -80.5t42 -94.5z" />
    <glyph glyph-name="guilsinglright" unicode="&#x203a;" horiz-adv-x="242" 
d="M40 50l-4 5q1 15 42 94.5t41 80.5t-39.5 82t-40.5 100l4 5q7 0 16 -13q62 -94 153 -162q4 -4 4 -6t-4 -6t-10 -9t-11.5 -10t-11.5 -9.5t-7 -5.5q-63 -57 -119 -136q-6 -10 -13 -10z" />
    <glyph glyph-name="fraction" unicode="&#x2044;" horiz-adv-x="375" 
d="M47 -2q-20 0 -20 10q0 5 10 21l372 620q7 12 14 15.5t21 3.5q17 0 17 -7q0 -5 -7 -17l-373 -624q-7 -13 -13.5 -17.5t-20.5 -4.5z" />
    <glyph glyph-name="fraction" unicode="&#x2215;" horiz-adv-x="375" 
d="M47 -2q-20 0 -20 10q0 5 10 21l372 620q7 12 14 15.5t21 3.5q17 0 17 -7q0 -5 -7 -17l-373 -624q-7 -13 -13.5 -17.5t-20.5 -4.5z" />
    <glyph glyph-name="zerosuperior" unicode="&#x2070;" horiz-adv-x="256" 
d="M240 573q0 -72 -27.5 -128t-84.5 -56t-85 56.5t-28 127.5q0 45 9.5 84.5t36 70.5t66.5 31q57 0 85 -57t28 -129zM187 590q-3 31 -10.5 61.5t-25.5 56.5t-41 19q-45 -11 -45 -121q0 -30 3 -50v1q3 -22 8 -43.5t13.5 -46t22.5 -37.5t31 -9q47 13 47 123q0 26 -3 46z" />
    <glyph glyph-name="foursuperior" unicode="&#x2074;" horiz-adv-x="275" 
d="M252 532q15 0 15 -29q0 -25 -13 -25q-6 1 -15.5 1.5t-15.5 1t-10 1.5q0 -46 7 -78q0 -15 -31 -15q-36 0 -36 14q2 8 8 74q0 1 0.5 4t0.5 4q-23 0 -63 -2q-21 -1 -65 -1q-7 0 -13 5t-6 12q0 4 6 10q120 167 158 236q11 17 25 17q17 0 17 -13q0 -7 -2 -17.5t-2 -14.5
q-4 -15 -4 -32v-156q9 0 13 1q16 2 26 2zM75 524h91v144q-4 -6 -41.5 -65.5t-49.5 -78.5z" />
    <glyph glyph-name="fivesuperior" unicode="&#x2075;" horiz-adv-x="270" 
d="M256 534q0 -56 -51.5 -101t-110.5 -45q-28 0 -53.5 14.5t-25.5 41.5q0 10 6.5 17.5t17.5 7.5q8 0 11.5 -3t4 -7t0.5 -12v-3q0 -12 12.5 -19t26.5 -7q41 0 76.5 30.5t35.5 68.5q0 32 -23.5 61.5t-55.5 29.5q-16 0 -50 -19l-9 -6q-6 0 -11.5 5.5t-5.5 10.5q0 10 4 18
q9 41 9 92q0 5 -1 18.5t-1 16.5q0 15 16 15q3 0 9 -4l-1 1q27 -11 80 -11q24 0 37 11q8 5 13 5q12 0 12 -12q0 -20 -19 -34.5t-39 -14.5q-18 0 -39 3q-19 3 -36 3q-7 -24 -7 -62h3.5t3.5 1q27 8 41 8q45 0 82.5 -37t37.5 -82z" />
    <glyph glyph-name="sixsuperior" unicode="&#x2076;" horiz-adv-x="258" 
d="M243 514q0 -51 -33 -88.5t-83 -37.5q-53 0 -83 39t-30 93q0 75 52.5 142t124.5 97q9 3 32 3q13 0 13 -11q0 -15 -21 -20q-58 -21 -102 -77q-1 -1 -2.5 -3t-3.5 -4t-4 -6q16 2 26 2q47 0 80.5 -40t33.5 -89zM192 512q-5 35 -24.5 67.5t-49.5 32.5q-27 0 -39.5 -25.5
t-12.5 -59.5q0 -36 18.5 -72.5t54.5 -36.5q27 0 40.5 23t13.5 54v8q0 1 -0.5 4t-0.5 5z" />
    <glyph glyph-name="sevensuperior" unicode="&#x2077;" horiz-adv-x="251" 
d="M44 385q-14 0 -14 16q0 6 12 26v-1q2 7 5 7q21 38 73.5 150.5t52.5 126.5q-43 -5 -81 -7q-39 -3 -56 -3q-18 0 -18 18q0 12 9 26t15 14q9 0 37 -2q25 -3 52 -3q16 0 44 4q5 0 22.5 2t27.5 2q6 0 10 -4.5t4 -10.5q0 -10 -81 -170.5t-96 -181.5q-7 -9 -18 -9z" />
    <glyph glyph-name="eightsuperior" unicode="&#x2078;" horiz-adv-x="263" 
d="M248 496q-1 -46 -36 -77.5t-82 -31.5q-46 0 -80.5 29t-34.5 73q0 47 61 92q6 3 6 4q0 3 -4 5q-3 0 -6 3h1q-42 34 -42 69q0 41 30.5 70t71.5 29q39 0 67.5 -24t28.5 -63q0 -50 -51 -77q29 -14 49.5 -41t20.5 -60zM112 569q-5 0 -34 -25q-15 -16 -15 -43q0 -32 22.5 -57.5
t49.5 -25.5q62 0 62 68q0 25 -10.5 38.5t-32.5 24.5q-40 20 -42 20zM186 677q0 24 -14 40t-38 16q-57 0 -57 -56q0 -25 34 -50q2 -2 11.5 -7t13.5 -5q25 0 37.5 18.5t12.5 43.5z" />
    <glyph glyph-name="ninesuperior" unicode="&#x2079;" horiz-adv-x="258" 
d="M15 633q0 50 32.5 88t82.5 38q54 0 84 -38t30 -93q0 -73 -57 -142t-120 -92q-1 0 -5 -2q-12 -7 -27 -7q-13 0 -13 12q0 13 16 18q3 0 6 2v-1q87 56 112 102q-12 -3 -27 -3q-47 0 -80.5 35t-33.5 83zM66 643q0 -34 18.5 -65t50.5 -31q30 0 43.5 26.5t13.5 59.5
q0 35 -18 66.5t-50 31.5q-29 0 -43.5 -28t-14.5 -60z" />
    <glyph glyph-name="parenleftsuperior" unicode="&#x207d;" horiz-adv-x="161" 
d="M86 592q0 -96 39 -181q0 -8 -5 -13t-11 -5q-15 0 -23 17q-54 99 -54 182q0 52 27 127q20 51 34 66q5 6 13 6q6 0 9 -0.5t6.5 -5t3.5 -13.5q-39 -85 -39 -180z" />
    <glyph glyph-name="parenrightsuperior" unicode="&#x207e;" horiz-adv-x="164" 
d="M75 590q0 94 -40 183q-1 7 4 11.5t14 4.5q12 0 23 -19v1q54 -96 54 -181q0 -61 -27 -127v1q-5 -14 -16 -37t-19 -30q-6 -6 -14 -6q-4 0 -6.5 0.5t-5.5 2t-4.5 5.5t-1.5 11q39 84 39 180z" />
    <glyph glyph-name="nsuperior" unicode="&#x207f;" horiz-adv-x="243" 
d="M24 566q0 27 -8 49v4l-1 3q0 9 12 15.5t24 6.5q14 0 18 -11q1 -6 1 -15l1 1q38 23 67 23q25 0 42 -9t26 -21.5t13.5 -34t5.5 -36.5t1 -39v-21v-31q0 -36 1 -45q0 -16 -22 -16q-23 0 -27 14v7q2 10 2 16v105q0 32 -14 53.5t-44 21.5q-34 0 -43 -18t-9 -69v-13
q0 -89 3 -103q0 -14 -27 -14q-24 0 -24 12v4v4q2 8 2 12v145z" />
    </font>
</defs>
</svg>
